<svg xmlns="http://www.w3.org/2000/svg" width="50" height="51" fill="none" viewBox="0 0 50 51">
  <path fill="#1572B6" d="M9.222 42.656 5.712 3.279h38.575l-3.514 39.37-15.797 4.38-15.754-4.373Z"/>
  <path fill="#33A9DC" d="m25 43.682 12.766-3.539L40.769 6.5H25v37.182Z"/>
  <path fill="#fff" d="M25 20.765h6.39l.441-4.945H25v-4.83h12.11l-.116 1.296-1.186 13.309H25v-4.83Z"/>
  <path fill="#EBEBEB" d="m25.03 33.307-.022.006-5.378-1.453-.344-3.851h-4.849l.677 7.583 9.892 2.747.024-.007v-5.025Z"/>
  <path fill="#fff" d="m30.98 25.39-.581 6.467-5.386 1.453v5.026l9.9-2.744.073-.816.84-9.386H30.98Z"/>
  <path fill="#EBEBEB" d="M25.017 10.99v4.83H13.352l-.097-1.086-.22-2.448-.116-1.296h12.098ZM25 20.765v4.83h-5.31l-.098-1.086-.218-2.448-.116-1.296H25Z"/>
</svg>
