<svg xmlns="http://www.w3.org/2000/svg" width="45" height="45" fill="none" viewBox="0 0 45 45">
  <path fill="#01579B" d="M9.177 35.822 1.48 28.124C.566 27.188 0 25.864 0 24.57c0-.6.338-1.535.592-2.071L7.7 7.698l1.478 28.124Z"/>
  <path fill="#40C4FF" d="M35.528 9.177 27.83 1.48C27.158.804 25.759 0 24.574 0c-1.019 0-2.018.205-2.663.592L7.701 7.7l27.827 1.478ZM18.355 45h18.652v-7.993l-13.915-4.443-12.73 4.443L18.355 45Z"/>
  <path fill="#29B6F6" d="M7.698 31.677c0 2.376.298 2.958 1.48 4.145l1.184 1.185h26.645L23.982 22.206 7.698 7.698v23.98Z"/>
  <path fill="#01579B" d="M31.383 7.695H7.698l29.309 29.309H45V18.649l-9.475-9.475c-1.33-1.333-2.511-1.479-4.142-1.479Z"/>
  <path fill="#fff" d="M9.475 36.117c-1.184-1.188-1.479-2.359-1.479-4.44V7.993l-.294-.295v23.98c-.004 2.08-.004 2.656 1.773 4.439l.887.886-.887-.886Z" opacity=".2"/>
  <path fill="#263238" d="M44.706 18.355v18.354h-7.993l.294.298H45V18.649l-.294-.294Z" opacity=".2"/>
  <path fill="#fff" d="M35.528 9.177c-1.469-1.469-2.67-1.479-4.44-1.479H7.702l.294.295h23.092c.884 0 3.113-.15 4.44 1.184Z" opacity=".2"/>
  <path fill="url(#a)" d="m44.706 18.355-9.178-9.178L27.83 1.48C27.158.804 25.759 0 24.574 0c-1.019 0-2.018.205-2.663.592L7.701 7.7.597 22.5c-.255.54-.593 1.476-.593 2.071 0 1.294.57 2.614 1.48 3.553l7.092 7.044c.169.208.368.42.602.655l.295.294.886.887 7.699 7.698.294.295h18.65v-7.993h7.992V18.649l-.288-.294Z" opacity=".2"/>
  <defs>
    <radialGradient id="a" cx="0" cy="0" r="1" gradientTransform="translate(22.498 22.496) scale(22.4968)" gradientUnits="userSpaceOnUse">
      <stop stop-color="#fff" stop-opacity=".1"/>
      <stop offset="1" stop-color="#fff" stop-opacity="0"/>
    </radialGradient>
  </defs>
</svg>
