<svg xmlns="http://www.w3.org/2000/svg" width="90" height="45" fill="none" viewBox="0 0 90 45">
  <path fill="#000" d="M30.008 31.315V14.03h.939v2.719c.11-.12.213-.249.306-.383a4.647 4.647 0 0 1 4.238-2.63c2.138-.064 3.874.728 4.895 2.63a8.45 8.45 0 0 1 .205 7.748c-.951 2.132-3.3 3.191-5.815 2.802a4.704 4.704 0 0 1-3.753-2.476v6.874h-1.015Zm.939-11.17c.082.843.114 1.443.21 2.03.37 2.31 1.736 3.683 3.88 3.931a4.41 4.41 0 0 0 4.845-2.802 7.513 7.513 0 0 0-.166-6.178 4.321 4.321 0 0 0-4.55-2.515 4.206 4.206 0 0 0-3.76 3.109c-.2.799-.353 1.608-.46 2.425Zm29.621 2.349a5.055 5.055 0 0 1-4.94 4.468c-3.932.197-5.776-2.413-6.07-5.426a8.693 8.693 0 0 1 .766-4.787 5.341 5.341 0 0 1 5.56-2.98 5.106 5.106 0 0 1 4.53 3.887c.2.948.348 1.907.441 2.872H50.522c-.192 2.732 1.276 4.927 3.357 5.457 2.592.638 4.806-.485 5.61-2.949.18-.632.505-.721 1.08-.542Zm-10.046-2.84h9.236c-.058-2.911-1.87-5.017-4.328-5.05-2.783-.044-4.787 1.986-4.908 5.05Zm11.948 2.903h.907a3.63 3.63 0 0 0 2.131 3.128 5.572 5.572 0 0 0 4.839-.128 2.176 2.176 0 0 0 1.276-2.138 1.972 1.972 0 0 0-1.328-1.972c-.995-.37-2.055-.575-3.07-.9a22.493 22.493 0 0 1-3.089-1.13c-1.634-.798-1.736-3.906.115-4.89a6.517 6.517 0 0 1 6.23-.095 3.28 3.28 0 0 1 1.659 3.345h-.779c0-.039-.07-.07-.07-.109-.096-2.483-2.176-3.249-4.41-3.032a5.856 5.856 0 0 0-1.915.581 1.915 1.915 0 0 0-1.11 1.915 1.915 1.915 0 0 0 1.276 1.8c.983.357 2.01.587 3.019.868.81.223 1.653.37 2.438.638a2.879 2.879 0 0 1 1.979 2.598 3.07 3.07 0 0 1-1.653 3.191c-2.132 1.206-5.643.887-7.207-.638a4.257 4.257 0 0 1-1.238-3.032Zm21.586-4.78h-.849c0-.114-.045-.216-.057-.312a2.776 2.776 0 0 0-2.26-2.668 5.572 5.572 0 0 0-3.58.172 2.177 2.177 0 0 0-1.577 2.075 2.004 2.004 0 0 0 1.532 2.016c1.276.396 2.585.639 3.88.996.42.1.834.227 1.239.377a3.191 3.191 0 0 1 .172 5.942 7.102 7.102 0 0 1-5.744.057 3.982 3.982 0 0 1-2.4-3.868h.83a4.653 4.653 0 0 0 7.084 2.962 2.28 2.28 0 0 0 1.226-2.132 1.971 1.971 0 0 0-1.347-1.96c-.996-.37-2.055-.567-3.07-.893-1.062-.296-2.1-.67-3.108-1.117-1.596-.785-1.724-3.868.095-4.85a6.427 6.427 0 0 1 6.332-.07 3.338 3.338 0 0 1 1.602 3.274Zm-55.599 8.871a1.461 1.461 0 0 1-1.813-.689c-1.04-1.557-2.189-3.044-3.293-4.563l-.479-.639c-1.315 1.762-2.63 3.453-3.83 5.208a1.404 1.404 0 0 1-1.723.677l4.934-6.619-4.589-5.98a1.525 1.525 0 0 1 1.819.638c1.066 1.557 2.247 3.045 3.421 4.621 1.18-1.564 2.349-3.057 3.44-4.602a1.372 1.372 0 0 1 1.71-.638l-1.78 2.362c-.798 1.053-1.583 2.112-2.413 3.14a.637.637 0 0 0 0 .95c1.526 2.024 3.039 4.054 4.596 6.134ZM49.405 13.98v.893a4.626 4.626 0 0 0-4.927 4.78v7.022h-.913V14.031h.894v2.59c1.104-1.888 2.808-2.59 4.946-2.641ZM5.499 19.94c.134-.638.217-1.333.402-1.984 1.104-3.926 5.604-5.56 8.7-3.128 1.812 1.424 2.265 3.44 2.176 5.713H6.565c-.166 4.059 2.764 6.51 6.51 5.259a3.887 3.887 0 0 0 2.47-2.75c.198-.64.517-.748 1.124-.563a5.183 5.183 0 0 1-2.477 3.785 6 6 0 0 1-6.989-.893 6.287 6.287 0 0 1-1.57-3.69c0-.216-.083-.433-.128-.638a98.773 98.773 0 0 1-.006-1.11Zm1.079-.274h9.235c-.057-2.942-1.915-5.03-4.39-5.048-2.758-.039-4.73 2.004-4.852 5.036l.007.012Z"/>
</svg>
