<svg xmlns="http://www.w3.org/2000/svg" width="33" height="46" fill="none" viewBox="0 0 33 46">
  <g clip-path="url(#a)">
    <path fill="#FFC24A" d="m0 36.436.272-.381L13.145 11.63l.027-.258L7.497.713c-.475-.893-1.814-.667-1.97.332L0 36.436Z"/>
    <path fill="#F4BD62" d="m17.308 19.434 4.225-4.327-4.226-8.068c-.401-.764-1.521-.766-1.918 0l-2.258 4.306v.367l4.177 7.722Z"/>
    <path fill="#F6820C" d="m0 36.436.123-.124.449-.182 16.47-16.41.21-.568-4.11-7.83L0 36.436Z"/>
    <path fill="#FDE068" d="m17.836 44.712 14.907-8.314-4.257-26.217a1.019 1.019 0 0 0-1.727-.556L0 36.436l14.822 8.276a3.093 3.093 0 0 0 3.014 0Z"/>
    <path fill="#FCCA3F" d="M32.61 36.329 28.385 10.31c-.132-.814-.969-1.15-1.552-.567L.166 36.385l14.658 8.194a3.07 3.07 0 0 0 2.992 0l14.794-8.25Z"/>
    <path fill="#EEAB37" d="M17.836 44.467a3.093 3.093 0 0 1-3.015 0L.12 36.31l-.12.126 14.821 8.276a3.093 3.093 0 0 0 3.015 0l14.907-8.314-.037-.224-14.87 8.293Z"/>
  </g>
  <defs>
    <clipPath id="a">
      <path fill="#fff" d="M0 0h32.821v45H0z" transform="translate(0 .154)"/>
    </clipPath>
  </defs>
</svg>
