<svg xmlns="http://www.w3.org/2000/svg" width="41" height="45" fill="none" viewBox="0 0 41 45">
  <path fill="#E535AB" fill-rule="evenodd" d="m23.87 5.157 9.253 5.342a4.04 4.04 0 0 1 .91-.72 4.02 4.02 0 0 1 5.481 1.471 4.02 4.02 0 0 1-1.47 5.481 4.022 4.022 0 0 1-1.07.426v10.689c.371.09.727.232 1.058.422a4 4 0 0 1 1.47 5.482 4.017 4.017 0 0 1-6.473.666l-9.196 5.31A4.015 4.015 0 0 1 20.025 45a4.007 4.007 0 0 1-4.01-4.01c0-.395.056-.776.162-1.135l-9.25-5.341a4.042 4.042 0 0 1-.899.707c-1.93 1.103-4.378.448-5.481-1.471a4.02 4.02 0 0 1 1.47-5.482c.331-.19.687-.332 1.058-.422v-10.69a4.016 4.016 0 0 1-2.54-5.907 4.016 4.016 0 0 1 6.388-.754l9.255-5.344a4.02 4.02 0 0 1-.164-1.14A4.007 4.007 0 0 1 20.024 0a4.007 4.007 0 0 1 4.011 4.01c0 .399-.058.784-.166 1.147Zm-.965 1.646 9.276 5.355a4.005 4.005 0 0 0 2.886 4.99V27.85a4.13 4.13 0 0 0-.155.041L22.798 6.911l.108-.108Zm-5.65.11L5.14 27.892a3.929 3.929 0 0 0-.158-.042V17.147a4.005 4.005 0 0 0 2.885-4.995L17.14 6.8a4 4 0 0 0 .114.113Zm3.89.95 12.111 20.976a4.018 4.018 0 0 0-1.129 1.958H7.923a4.023 4.023 0 0 0-1.128-1.953l12.114-20.98a4.023 4.023 0 0 0 2.237-.001Zm1.846 30.425 9.215-5.32a4.056 4.056 0 0 1-.075-.264H7.918a4.08 4.08 0 0 1-.041.155l9.26 5.347a3.999 3.999 0 0 1 2.889-1.227 4 4 0 0 1 2.966 1.309Z" clip-rule="evenodd"/>
</svg>
