<svg xmlns="http://www.w3.org/2000/svg" width="50" height="51" fill="none" viewBox="0 0 50 51">
  <path fill="#E44F26" d="M9.222 42.656 5.71 3.279h38.578l-3.516 39.37-15.796 4.38-15.755-4.373Z"/>
  <path fill="#F1662A" d="m25 43.682 12.766-3.539L40.769 6.5H25v37.182Z"/>
  <path fill="#EBEBEB" d="M25 21.103h-6.39l-.441-4.946H25v-4.83H12.89l.116 1.297 1.186 13.308H25v-4.83Zm0 12.542-.022.006L19.6 32.2l-.344-3.851h-4.848l.676 7.581 9.894 2.747.022-.006v-5.025Z"/>
  <path fill="#fff" d="M24.983 21.103v4.83h5.947l-.56 6.263-5.387 1.454v5.025l9.902-2.746.071-.815L36.091 22.4l.118-1.297H24.983Zm0-9.775v4.83h11.665l.097-1.085.22-2.449.116-1.296H24.983Z"/>
</svg>
