<svg xmlns="http://www.w3.org/2000/svg" width="46" height="46" fill="none" viewBox="0 0 46 46">
  <path fill="#21609B" fill-rule="evenodd" d="m44.364 33.555-.203.527c-3.464 6.746-9.603 10.885-18.359 11.068-4.093.084-7.993-.966-10.54-2.109-5.499-2.47-10.123-7.05-12.649-11.945C-1.01 24.079-1.663 14.318 5.87 7.027c.116 0-.914 1.581-.798 1.581l-.207.675C-.563 26.278 16.161 40.842 32.418 39.176c3.908-.4 8.89-2.54 11.946-5.62Z" clip-rule="evenodd"/>
  <path fill="#21609B" fill-rule="evenodd" d="M34.526 26.527c4.09.029 8.363-1.883 10.893-4.567-2.214 5.618-8.623 9.23-17.217 8.08-7.196-.962-14.05-8.203-14.757-15.458C12.93 9.3 14.77 6.149 17.802 2.325c-1.054 2-1.448 3.542-1.546 4.525-1.152 11.423 9.125 19.617 18.27 19.676Z" clip-rule="evenodd"/>
  <path fill="#21609B" fill-rule="evenodd" d="M45.008 12.34c-.636 1.458-4.297 4.212-5.913 4.556-6.402 1.364-10.502-1.672-12.65-5.126-.319-.516-.909-1.925-1.015-2.283-.832-2.832-.45-7.116 2.035-9.333-.748 2.11-.858 4.557-.464 6.15.239.962.966 2.642 1.694 3.699 1.324 1.926 2.163 2.393 3.864 3.415.767.46 1.588.83 1.943.932 1.613.474 5.018 1.725 10.506-2.01" clip-rule="evenodd"/>
</svg>
