<svg xmlns="http://www.w3.org/2000/svg" width="53" height="45" fill="none" viewBox="0 0 53 45">
  <path fill="#007FFF" d="M43.875 30.727a1.446 1.446 0 0 0 .726-1.25l.026-8.368a1.447 1.447 0 0 1 .726-1.25l4.536-2.605a1.447 1.447 0 0 1 2.166 1.253v15.214a1.446 1.446 0 0 1-.725 1.254l-17.12 9.833a1.447 1.447 0 0 1-1.437.001l-13.435-7.684a1.447 1.447 0 0 1-.73-1.255V28.2c0-.009.011-.014.02-.01.007.004.017 0 .017-.01v-.01c0-.005.003-.01.009-.014L29.719 21.8c.01-.006.005-.022-.006-.022a.012.012 0 0 1-.008-.003.011.011 0 0 1-.004-.009l.022-7.52a1.447 1.447 0 0 0-2.169-1.258l-8.223 4.739a1.446 1.446 0 0 1-1.444 0l-8.25-4.75a1.445 1.445 0 0 0-2.167 1.252V27.82a1.446 1.446 0 0 1-2.163 1.257L.729 26.459A1.446 1.446 0 0 1 0 25.201L.04 1.443A1.446 1.446 0 0 1 2.207.193L17.89 9.199a1.446 1.446 0 0 0 1.44 0L35.007.192a1.446 1.446 0 0 1 2.166 1.255v23.764a1.446 1.446 0 0 1-.724 1.254l-8.21 4.728a1.445 1.445 0 0 0 .005 2.51l4.529 2.578a1.446 1.446 0 0 0 1.436-.003l9.666-5.552Zm.95-21.318a1.445 1.445 0 0 0 2.19 1.24l4.338-2.603a1.446 1.446 0 0 0 .703-1.24V1.502a1.447 1.447 0 0 0-2.19-1.237l-4.338 2.602a1.446 1.446 0 0 0-.703 1.24V9.41v-.002Z"/>
</svg>
