<svg xmlns="http://www.w3.org/2000/svg" width="46" height="45" fill="none" viewBox="0 0 46 45">
  <path fill="#000" d="M33.398 42.19c-.168.089-.154.117.007.035a.432.432 0 0 0 .133-.085c0-.03 0-.03-.14.05Zm.337-.183c-.08.067-.08.067.016.023a.35.35 0 0 0 .095-.066c0-.038-.022-.03-.11.043Zm.22-.132c-.08.066-.08.066.015.023a.346.346 0 0 0 .096-.068c0-.035-.023-.028-.111.045Zm.222-.13c-.08.066-.08.066.012.02.053-.028.096-.057.096-.066 0-.035-.022-.028-.108.046Zm.3-.199c-.154.103-.207.169-.067.096.094-.058.255-.184.227-.184-.06.022-.111.06-.162.088h.001ZM21.027.01c-.103.007-.41.035-.68.058-6.396.58-12.38 4.022-16.173 9.325a22.259 22.259 0 0 0-3.971 9.828C.023 20.46 0 20.825 0 22.502s.023 2.037.204 3.274c1.225 8.453 7.238 15.55 15.389 18.18 1.467.467 3.004.79 4.754.99.681.072 3.624.072 4.305 0 3.026-.338 5.582-1.085 8.11-2.375.388-.197.461-.249.41-.292a478.237 478.237 0 0 1-3.67-4.915l-3.595-4.856-4.505-6.673a586.74 586.74 0 0 0-4.54-6.671c-.016 0-.036 2.966-.044 6.583-.016 6.335-.016 6.592-.096 6.739a.804.804 0 0 1-.388.403c-.14.066-.264.08-.93.08h-.76l-.199-.123a.836.836 0 0 1-.292-.322l-.096-.199.007-8.819.016-8.818.139-.176a1.05 1.05 0 0 1 .322-.263c.184-.089.257-.103 1.018-.103.893 0 1.04.035 1.276.293a848.72 848.72 0 0 1 5.426 8.173c2.924 4.433 6.915 10.481 8.877 13.448l3.567 5.399.176-.117a22.99 22.99 0 0 0 4.62-4.057 22.41 22.41 0 0 0 5.297-11.499c.182-1.238.204-1.605.204-3.28 0-1.678-.022-2.037-.204-3.275-1.224-8.453-7.238-15.549-15.389-18.18a23.883 23.883 0 0 0-4.68-.98c-.426-.044-3.334-.096-3.7-.058V.01Zm9.207 13.609a.877.877 0 0 1 .446.512c.038.118.045 2.563.038 8.072l-.016 7.909-1.39-2.138-1.4-2.139v-5.742c0-3.722.016-5.809.035-5.912a.942.942 0 0 1 .44-.555c.175-.089.242-.096.938-.096.652 0 .761.007.908.089h.001Z"/>
</svg>
