<svg xmlns="http://www.w3.org/2000/svg" width="74" height="45" fill="none" viewBox="0 0 74 45">
  <path fill="#539E43" d="M36.345 45c-.249 0-.481-.067-.697-.183l-2.21-1.313c-.332-.182-.166-.249-.066-.282.449-.15.532-.183.997-.448.05-.034.116-.017.166.016l1.694 1.013c.067.034.15.034.2 0l6.627-3.837c.067-.033.1-.1.1-.183v-7.657c0-.084-.033-.15-.1-.183l-6.627-3.82c-.067-.034-.15-.034-.2 0l-6.628 3.82c-.066.033-.1.116-.1.183v7.657c0 .067.034.15.1.183l1.811 1.047c.98.498 1.595-.083 1.595-.665V32.79c0-.1.083-.2.199-.2h.847c.1 0 .2.084.2.2v7.558c0 1.312-.715 2.077-1.96 2.077-.383 0-.682 0-1.529-.416l-1.744-.996a1.402 1.402 0 0 1-.698-1.213v-7.658c0-.498.266-.963.698-1.212l6.628-3.838c.415-.232.98-.232 1.395 0l6.628 3.838c.432.249.698.714.698 1.212V39.8c0 .498-.266.964-.698 1.213l-6.628 3.837c-.216.1-.465.15-.697.15Zm2.044-5.266c-2.907 0-3.505-1.33-3.505-2.459 0-.1.083-.2.199-.2h.864c.1 0 .182.067.182.167.134.88.516 1.312 2.276 1.312 1.396 0 1.994-.315 1.994-1.063 0-.432-.166-.747-2.343-.963-1.81-.183-2.94-.582-2.94-2.027 0-1.345 1.13-2.143 3.023-2.143 2.127 0 3.173.731 3.306 2.326 0 .05-.016.1-.05.15-.033.032-.083.066-.133.066H40.4a.194.194 0 0 1-.183-.15c-.2-.913-.714-1.212-2.077-1.212-1.528 0-1.71.531-1.71.93 0 .481.215.631 2.275.897 2.044.266 3.007.648 3.007 2.076-.017 1.462-1.213 2.293-3.322 2.293Z"/>
  <path fill="#333" d="M15.78 15.05a.846.846 0 0 0-.431-.731l-7.043-4.053a1.02 1.02 0 0 0-.382-.117h-.067a.789.789 0 0 0-.382.117L.432 14.319A.845.845 0 0 0 0 15.05l.017 10.897c0 .15.083.299.216.365a.377.377 0 0 0 .415 0l4.186-2.392a.845.845 0 0 0 .432-.73v-5.1c0-.3.166-.582.432-.731l1.777-1.03a.805.805 0 0 1 .432-.116c.15 0 .299.033.415.116l1.778 1.03c.266.15.432.432.432.73v5.1c0 .3.166.582.431.731l4.187 2.392a.406.406 0 0 0 .431 0 .413.413 0 0 0 .216-.365l-.016-10.897Zm33.855-15a.457.457 0 0 0-.416 0 .433.433 0 0 0-.216.365v10.798c0 .1-.05.199-.149.266-.1.05-.2.05-.299 0l-1.76-1.014a.856.856 0 0 0-.848 0l-7.043 4.07a.845.845 0 0 0-.432.73v8.124c0 .299.166.581.432.73l7.043 4.07a.856.856 0 0 0 .847 0l7.043-4.07a.845.845 0 0 0 .432-.73V3.139a.852.852 0 0 0-.432-.747L49.635.05Zm-.648 20.664c0 .084-.033.15-.1.183l-2.408 1.395a.247.247 0 0 1-.216 0l-2.409-1.395c-.067-.033-.1-.116-.1-.183v-2.79c0-.083.033-.15.1-.183l2.409-1.395a.246.246 0 0 1 .216 0l2.408 1.395c.067.033.1.116.1.183v2.79Zm24.086-2.857a.83.83 0 0 0 .416-.73V15.15a.865.865 0 0 0-.416-.731l-6.993-4.053a.856.856 0 0 0-.847 0l-7.044 4.07a.845.845 0 0 0-.431.73v8.123c0 .3.166.581.431.731l6.994 3.987c.266.15.581.15.83 0l4.236-2.359a.413.413 0 0 0 .216-.365.413.413 0 0 0-.216-.366l-7.076-4.07a.433.433 0 0 1-.216-.365v-2.541c0-.15.083-.3.216-.366l2.21-1.262a.406.406 0 0 1 .431 0l2.21 1.262a.432.432 0 0 1 .215.366v1.993c0 .15.083.299.216.365a.405.405 0 0 0 .432 0l4.186-2.442Z"/>
  <path fill="#539E43" d="M65.548 17.475a.152.152 0 0 1 .166 0l1.346.78c.05.034.083.084.083.15v1.562a.174.174 0 0 1-.083.15l-1.346.78a.15.15 0 0 1-.166 0l-1.345-.78a.174.174 0 0 1-.083-.15v-1.561c0-.067.033-.117.083-.15l1.345-.78Z"/>
  <path fill="url(#a)" d="m34.568 14.434-7.027-4.036a1.151 1.151 0 0 0-.216-.083l-7.874 13.488c.066.08.144.147.233.2l7.027 4.036c.199.116.431.15.647.083L34.751 14.6a.871.871 0 0 0-.183-.166Z"/>
  <path fill="url(#b)" fill-rule="evenodd" d="m26.479 8.919-.1.05h.133l-.034-.05Z" clip-rule="evenodd"/>
  <path fill="url(#c)" fill-rule="evenodd" d="M34.585 23.985a.945.945 0 0 0 .415-.532l-7.708-13.156a.844.844 0 0 0-.598.1l-6.977 4.02 7.525 13.72a1.16 1.16 0 0 0 .316-.099l7.026-4.053Z" clip-rule="evenodd"/>
  <path fill="url(#d)" fill-rule="evenodd" d="m35.233 23.853-.05-.084v.117l.05-.033Z" clip-rule="evenodd"/>
  <path fill="url(#e)" fill-rule="evenodd" d="m34.584 23.986-7.01 4.036c-.099.05-.205.084-.315.1l.133.25 7.774-4.503v-.1l-.2-.331a.772.772 0 0 1-.382.548Z" clip-rule="evenodd"/>
  <path fill="url(#f)" fill-rule="evenodd" d="m34.584 23.986-7.01 4.036c-.099.05-.205.084-.315.1l.133.25 7.774-4.503v-.1l-.2-.331a.772.772 0 0 1-.382.548Z" clip-rule="evenodd"/>
  <defs>
    <linearGradient id="a" x1="26.072" x2="45.27" y1="20.157" y2="9.727" gradientUnits="userSpaceOnUse">
      <stop offset=".138" stop-color="#41873F"/>
      <stop offset=".403" stop-color="#54A044"/>
      <stop offset=".714" stop-color="#66B848"/>
      <stop offset=".908" stop-color="#6CC04A"/>
    </linearGradient>
    <linearGradient id="b" x1="20.517" x2="33.455" y1="8.926" y2="8.926" gradientUnits="userSpaceOnUse">
      <stop offset=".092" stop-color="#6CC04A"/>
      <stop offset=".286" stop-color="#66B848"/>
      <stop offset=".597" stop-color="#54A044"/>
      <stop offset=".862" stop-color="#41873F"/>
    </linearGradient>
    <linearGradient id="c" x1="19.047" x2="35.229" y1="19.209" y2="19.209" gradientUnits="userSpaceOnUse">
      <stop offset=".092" stop-color="#6CC04A"/>
      <stop offset=".286" stop-color="#66B848"/>
      <stop offset=".597" stop-color="#54A044"/>
      <stop offset=".862" stop-color="#41873F"/>
    </linearGradient>
    <linearGradient id="d" x1="30.338" x2="35.197" y1="23.812" y2="23.812" gradientUnits="userSpaceOnUse">
      <stop offset=".092" stop-color="#6CC04A"/>
      <stop offset=".286" stop-color="#66B848"/>
      <stop offset=".597" stop-color="#54A044"/>
      <stop offset=".862" stop-color="#41873F"/>
    </linearGradient>
    <linearGradient id="e" x1="19.047" x2="35.229" y1="25.918" y2="25.918" gradientUnits="userSpaceOnUse">
      <stop offset=".092" stop-color="#6CC04A"/>
      <stop offset=".286" stop-color="#66B848"/>
      <stop offset=".597" stop-color="#54A044"/>
      <stop offset=".862" stop-color="#41873F"/>
    </linearGradient>
    <linearGradient id="f" x1="37.586" x2="33.487" y1="13.024" y2="34.506" gradientUnits="userSpaceOnUse">
      <stop stop-color="#41873F"/>
      <stop offset=".329" stop-color="#418B3D"/>
      <stop offset=".635" stop-color="#419637"/>
      <stop offset=".932" stop-color="#3FA92D"/>
      <stop offset="1" stop-color="#3FAE2A"/>
    </linearGradient>
  </defs>
</svg>
