<svg xmlns="http://www.w3.org/2000/svg" width="51" height="45" fill="none" viewBox="0 0 51 45">
  <path fill="#00D8FF" d="M41.585 14.585a33.79 33.79 0 0 0-1.628-.513c.092-.375.177-.746.252-1.11 1.232-5.983.426-10.803-2.326-12.39-2.638-1.52-6.953.066-11.311 3.858-.43.375-.85.76-1.26 1.156a30.738 30.738 0 0 0-.838-.774C19.907.756 15.33-.953 12.58.639c-2.636 1.526-3.417 6.057-2.307 11.726.11.562.235 1.12.373 1.676-.648.184-1.273.38-1.871.589C3.42 16.497 0 19.422 0 22.457c0 3.135 3.671 6.279 9.249 8.185.452.154.908.297 1.367.428-.15.598-.281 1.2-.397 1.805-1.058 5.572-.232 9.996 2.397 11.512 2.716 1.566 7.273-.044 11.71-3.923.36-.315.713-.64 1.056-.972.444.428.9.844 1.367 1.247 4.3 3.699 8.545 5.193 11.171 3.672 2.713-1.57 3.595-6.323 2.45-12.105-.09-.453-.191-.903-.303-1.351.32-.095.634-.193.94-.294 5.798-1.921 9.571-5.027 9.571-8.204 0-3.046-3.53-5.991-8.993-7.872ZM40.328 28.61c-.277.091-.56.18-.85.265-.64-2.026-1.504-4.18-2.561-6.407 1.009-2.173 1.84-4.3 2.462-6.314.517.15 1.019.308 1.503.474 4.68 1.612 7.535 3.994 7.535 5.83 0 1.955-3.083 4.493-8.09 6.152Zm-2.078 4.116c.507 2.556.579 4.868.243 6.675-.3 1.624-.906 2.707-1.656 3.14-1.593.923-5.002-.276-8.678-3.44a30.934 30.934 0 0 1-1.272-1.16c1.425-1.558 2.85-3.37 4.24-5.383 2.445-.216 4.755-.571 6.85-1.056.1.406.192.814.273 1.224Zm-21.007 9.656c-1.557.55-2.797.565-3.547.133-1.596-.92-2.259-4.472-1.354-9.237.107-.563.23-1.123.37-1.679 2.07.459 4.364.788 6.815.987a52.68 52.68 0 0 0 4.342 5.364c-.314.304-.635.6-.964.887-1.962 1.716-3.929 2.933-5.662 3.545ZM9.948 28.598c-2.467-.843-4.503-1.939-5.9-3.134-1.254-1.074-1.887-2.141-1.887-3.007 0-1.841 2.745-4.19 7.325-5.787a31.352 31.352 0 0 1 1.74-.548 51.837 51.837 0 0 0 2.466 6.388 52.64 52.64 0 0 0-2.496 6.479c-.42-.12-.835-.25-1.248-.391Zm2.445-16.648c-.95-4.857-.32-8.522 1.27-9.441 1.692-.98 5.433.417 9.377 3.919.257.228.51.462.759.7a51.799 51.799 0 0 0-4.309 5.332c-2.379.22-4.656.574-6.75 1.049a31.641 31.641 0 0 1-.347-1.558Zm21.817 5.388a68.665 68.665 0 0 0-1.538-2.53c1.614.204 3.16.475 4.612.806a46.112 46.112 0 0 1-1.619 4.356 75.184 75.184 0 0 0-1.455-2.632Zm-8.897-8.666a46.205 46.205 0 0 1 2.977 3.593 63.632 63.632 0 0 0-5.978-.001 47.68 47.68 0 0 1 3.001-3.592Zm-8.954 8.68a64.868 64.868 0 0 0-1.428 2.616 47.686 47.686 0 0 1-1.607-4.377 48.832 48.832 0 0 1 4.586-.787 63.491 63.491 0 0 0-1.55 2.548Zm1.597 12.912a45.96 45.96 0 0 1-4.662-.75c.447-1.441.997-2.94 1.64-4.464a63.407 63.407 0 0 0 3.022 5.214Zm7.417 6.13a48.437 48.437 0 0 1-3.043-3.641c.968.038 1.956.057 2.959.057 1.03 0 2.05-.023 3.053-.068a45.966 45.966 0 0 1-2.969 3.653Zm10.313-11.422a45.836 45.836 0 0 1 1.698 4.45 45.85 45.85 0 0 1-4.718.803 75.435 75.435 0 0 0 1.553-2.573c.509-.882.998-1.776 1.467-2.68Zm-3.339 1.6a70.82 70.82 0 0 1-2.426 3.915 64.51 64.51 0 0 1-4.632.163 70.82 70.82 0 0 1-4.58-.145 61.31 61.31 0 0 1-2.471-3.92 60.745 60.745 0 0 1-2.158-4.076 61.312 61.312 0 0 1 2.151-4.077 60.699 60.699 0 0 1 2.452-3.904 60.825 60.825 0 0 1 9.22.001 65.075 65.075 0 0 1 2.437 3.891 70.823 70.823 0 0 1 2.18 4.058 65.07 65.07 0 0 1-2.173 4.094Zm4.457-24.128c1.694.977 2.353 4.916 1.289 10.081-.068.33-.145.666-.228 1.006a51.726 51.726 0 0 0-6.763-1.068c-1.39-1.98-2.83-3.779-4.275-5.336.379-.365.767-.721 1.163-1.067 3.735-3.25 7.224-4.533 8.814-3.616ZM25.29 17.941a4.517 4.517 0 1 1 0 9.033 4.517 4.517 0 0 1 0-9.033Z"/>
</svg>
