<svg xmlns="http://www.w3.org/2000/svg" width="48" height="45" fill="none" viewBox="0 0 48 45">
  <g clip-path="url(#a)">
    <path fill="#41E0FD" d="M17.047 22.384c.357-.727.732-1.458 1.119-2.172l.003-.006.41-.796.607-1.004.003-.006c.227-.385.461-.774.698-1.156l.417-.688a33.196 33.196 0 0 1 1.706-2.56 41.67 41.67 0 0 1 1.308-1.695l.002-.001.028-.036.01-.014c.232-.295.466-.585.695-.864l.007-.01.005-.005c.531-.658 1.073-1.32 1.61-1.963l.214-.256V5.369h-.386a31.283 31.283 0 0 0-.627-.574c-1.703-1.51-3.4-2.696-5.048-3.52C18.138.429 16.578 0 15.19 0c-.99 0-1.875.222-2.63.659-.727.42-1.337 1.047-1.815 1.862-.447.763-.777 1.693-.98 2.762-.391 2.06-.307 4.64.245 7.46.07.354.147.714.229 1.07-.44.135-.868.272-1.275.414-2.66.928-4.886 2.14-6.435 3.506-.803.708-1.424 1.456-1.85 2.223-.45.816-.68 1.653-.68 2.487 0 1.674.927 3.37 2.68 4.908 1.652 1.448 3.987 2.713 6.751 3.659.257.087.518.172.781.253-.092.4-.177.803-.253 1.205-.526 2.768-.587 5.301-.179 7.326.212 1.048.55 1.96 1.002 2.712.48.799 1.091 1.416 1.815 1.833.761.439 1.658.662 2.665.662 1.37 0 2.902-.407 4.554-1.208 1.619-.786 3.271-1.91 4.911-3.344.253-.221.513-.458.774-.704h.388v-3.89l-.141-.175-.067-.082L23.9 33.4l-.99-1.221c-.5-.617-1.3-1.758-2.253-3.213a57.377 57.377 0 0 1-1.573-2.535l-.029-.05a77.232 77.232 0 0 1-2.072-3.874l.06-.115.004-.007Zm-1.805-3.857a45.38 45.38 0 0 1-.825-2.294c.771-.16 1.573-.302 2.394-.426a61.907 61.907 0 0 0-1.569 2.72Zm-.853 10.31a45.92 45.92 0 0 1 .857-2.378 61.972 61.972 0 0 0 1.618 2.791 43.53 43.53 0 0 1-2.475-.413ZM13.012 6.275c.201-1.378.65-2.362 1.236-2.701.243-.14.565-.212.958-.212.858 0 1.968.337 3.21.974 1.347.692 2.806 1.72 4.222 2.978l.27.243a51.621 51.621 0 0 0-3.652 4.554 52.55 52.55 0 0 0-5.752.872 30.233 30.233 0 0 1-.182-.859l-.006-.03c-.431-2.203-.536-4.216-.304-5.819Zm.253 16.22a52.284 52.284 0 0 0-2.15 5.522 23.4 23.4 0 0 1-.595-.194c-2.298-.786-4.212-1.8-5.535-2.933-1.013-.866-1.617-1.78-1.617-2.446 0-.682.605-1.561 1.659-2.414 1.227-.992 2.973-1.899 5.047-2.621.352-.123.71-.24 1.07-.35a51.35 51.35 0 0 0 2.12 5.436Zm.002 10.597c.064-.335.134-.671.21-1.006 1.786.365 3.74.64 5.819.819a52.236 52.236 0 0 0 3.682 4.584 26.51 26.51 0 0 1-.466.419c-1.816 1.587-3.64 2.734-5.272 3.318l-.034.012c-.732.258-1.385.39-1.941.39-.41 0-.741-.072-.984-.212-.592-.34-1.052-1.304-1.263-2.643-.247-1.56-.16-3.524.249-5.681Z"/>
    <path fill="#41E0FD" d="M46.21 24.302c-.837-1.539-2.068-2.537-3.694-2.995a.063.063 0 0 1-.04-.063c0-.012.002-.024.008-.035a.067.067 0 0 1 .023-.025 6.93 6.93 0 0 0 2.792-2.854c.657-1.233.985-2.717.986-4.45 0-2.862-.724-4.991-2.166-6.407-1.442-1.416-3.36-2.12-5.75-2.12H25.465c-.028 0-.05.03-.05.066v34.26c0 .036.022.066.05.066H37.66c1.717 0 3.198-.25 4.443-.752 1.247-.5 2.262-1.175 3.061-2.023.799-.848 1.382-1.86 1.755-3.035.374-1.165.56-2.427.56-3.776.001-2.35-.426-4.296-1.27-5.857ZM30.094 10.29c0-.036.022-.065.05-.065h7.574c1.27 0 2.243.357 2.915 1.06.673.705 1.009 1.928 1.009 3.664 0 1.543-.374 2.72-1.122 3.55-.747.828-1.681 1.234-2.803 1.234h-7.573c-.028 0-.05-.03-.05-.066V10.29Zm11.56 23.11c-.777.955-1.883 1.429-3.303 1.429h-8.207c-.028 0-.05-.03-.05-.066V24.134c0-.036.021-.065.05-.065h8.206c1.42 0 2.512.443 3.304 1.369.792.925 1.181 2.227 1.181 3.933 0 1.735-.396 3.085-1.18 4.03Z"/>
  </g>
  <defs>
    <clipPath id="a">
      <path fill="#fff" d="M0 0h47.479v45H0z"/>
    </clipPath>
  </defs>
</svg>
