<svg xmlns="http://www.w3.org/2000/svg" width="75" height="45" fill="none" viewBox="0 0 75 45">
  <g clip-path="url(#a)">
    <path fill="url(#b)" d="M37.403 0C27.429 0 21.195 4.987 18.7 14.961c3.74-4.987 8.104-6.857 13.091-5.61 2.845.71 4.88 2.775 7.13 5.06 3.668 3.723 7.912 8.03 17.182 8.03 9.974 0 16.208-4.987 18.701-14.96-3.74 4.987-8.104 6.857-13.09 5.61-2.846-.711-4.88-2.776-7.13-5.06C50.916 4.307 46.672 0 37.402 0ZM18.7 22.442c-9.974 0-16.208 4.987-18.701 14.96 3.74-4.986 8.104-6.857 13.09-5.61 2.846.711 4.88 2.776 7.131 5.06 3.667 3.723 7.911 8.031 17.182 8.031 9.974 0 16.208-4.987 18.7-14.96-3.74 4.986-8.103 6.856-13.09 5.61-2.845-.712-4.879-2.776-7.13-5.061-3.667-3.722-7.911-8.03-17.182-8.03Z"/>
  </g>
  <defs>
    <linearGradient id="b" x1="-2.078" x2="62.528" y1="14.363" y2="51.614" gradientUnits="userSpaceOnUse">
      <stop stop-color="#2298BD"/>
      <stop offset="1" stop-color="#0ED7B5"/>
    </linearGradient>
    <clipPath id="a">
      <path fill="#fff" d="M0 0h74.805v45H0z"/>
    </clipPath>
  </defs>
</svg>
