<svg xmlns="http://www.w3.org/2000/svg" width="348" height="53" fill="none" viewBox="0 0 348 53">
  <path fill="#B7B7B7" fill-rule="evenodd" d="M0 26.5 46.09 53V0L0 26.5Zm8.194 0 33.8 19.433V7.067L8.194 26.5Zm53.261 0 46.09 26.5V0l-46.09 26.5Zm8.194 0 33.799 19.433V7.067L69.648 26.5Zm53.26 0L169 0v53l-46.091-26.5Zm41.994 19.433-33.8-19.433 33.8-19.433v38.866ZM179 26.5 225.091 53V0L179 26.5Zm8.194 0 33.8 19.433V7.067l-33.8 19.433Zm53.261 0 46.09 26.5V0l-46.09 26.5Zm8.193 0 33.8 19.433V7.067l-33.8 19.433Zm53.261 0L348 0v53l-46.091-26.5Zm41.994 19.433-33.8-19.433 33.8-19.433v38.866Z" clip-rule="evenodd"/>
</svg>
