<svg xmlns="http://www.w3.org/2000/svg" width="209" height="173" fill="none" viewBox="0 0 209 173">
  <path fill="#C5AEF2" d="M27 91.732a6 6 0 0 1 6 0l19.98 11.536a6 6 0 0 1 3 5.196v23.072a6 6 0 0 1-3 5.196L33 148.268a5.999 5.999 0 0 1-6 0L7.02 136.732a6 6 0 0 1-3-5.196v-23.072a6 6 0 0 1 3-5.196L27 91.732Z"/>
  <path fill="#85CDDE" d="M176 1.732a6 6 0 0 1 6 0l19.981 11.536a6 6 0 0 1 3 5.196v23.072a6 6 0 0 1-3 5.196L182 58.268a6 6 0 0 1-6 0l-19.981-11.536a6 6 0 0 1-3-5.196V18.464a6 6 0 0 1 3-5.196L176 1.732Z"/>
  <path stroke="#557085" stroke-dasharray="4 4" d="M85.858 147.279a6.006 6.006 0 0 1-1.553-2.69l.483-.13a5.493 5.493 0 0 1-.187-1.423v-1.92h-.5v-3.839h.5v-3.839h-.5v-3.84h.5v-3.839h-.5v-3.839h.5v-3.84h-.5v-3.839h.5v-3.839h-.5v-3.84h.5v-3.839h-.5v-3.84h.5v-1.919c0-.487.064-.965.187-1.423l-.483-.13a6.003 6.003 0 0 1 1.553-2.69l.353.354c.336-.336.718-.63 1.14-.874l1.662-.96-.25-.433 3.325-1.92.25.433 3.325-1.92-.25-.432 3.325-1.92.25.433 3.325-1.92-.25-.433 3.325-1.92.25.434 3.325-1.92-.25-.433 3.325-1.92.25.433 3.325-1.92-.25-.432 3.325-1.92.25.433 3.325-1.92-.25-.432 3.325-1.92.25.433 1.662-.96a5.497 5.497 0 0 1 1.326-.55l-.129-.483a6.005 6.005 0 0 1 3.106 0l-.129.483c.458.123.904.306 1.326.55l1.662.96.25-.433 3.325 1.92-.25.433 3.325 1.92.25-.434 3.325 1.92-.25.433 3.325 1.92.25-.433 3.325 1.92-.25.432 3.325 1.92.25-.433 3.325 1.92-.25.433 3.325 1.92.25-.434 3.325 1.92-.25.433 3.325 1.92.25-.434 3.325 1.92-.25.433 1.662.96c.422.244.804.538 1.14.874l.353-.354a6.002 6.002 0 0 1 1.553 2.69l-.483.13c.123.458.187.936.187 1.423v1.92h.5v3.839h-.5v3.839h.5v3.84h-.5v3.839h.5v3.839h-.5v3.84h.5v3.839h-.5v3.839h.5v3.84h-.5v3.839h.5v3.839h-.5v1.92c0 .487-.064.965-.187 1.423l.483.13a6.006 6.006 0 0 1-1.553 2.69l-.353-.354c-.336.336-.718.63-1.14.874l-1.662.96.25.433-3.325 1.92-.25-.433-3.325 1.919.25.433-3.325 1.92-.25-.433-3.325 1.92.25.433-3.325 1.919-.25-.433-3.325 1.92.25.433-3.325 1.919-.25-.433-3.325 1.92.25.433-3.325 1.92-.25-.433-3.325 1.919.25.433-3.325 1.92-.25-.433-1.662.96a5.494 5.494 0 0 1-1.326.55l.129.482a5.992 5.992 0 0 1-3.106 0l.129-.482a5.494 5.494 0 0 1-1.326-.55l-1.662-.96-.25.433-3.325-1.92.25-.433-3.325-1.919-.25.433-3.325-1.92.25-.433-3.325-1.92-.25.433-3.325-1.919.25-.433-3.325-1.92-.25.433-3.325-1.919.25-.433-3.325-1.92-.25.433-3.325-1.92.25-.433-3.325-1.919-.25.433-3.325-1.92.25-.433-1.662-.96a5.49 5.49 0 0 1-1.14-.874l-.353.354Z"/>
</svg>
