<svg xmlns="http://www.w3.org/2000/svg" width="262" height="90" fill="none" viewBox="0 0 262 90">
  <path fill="#3C3C3C" d="m.6 14.406.602.367.004-.002.013-.008.056-.028.22-.115a156.484 156.484 0 0 1 4.079-2.003 183.401 183.401 0 0 1 10.949-4.754c4.377-1.729 9.28-3.45 14.16-4.737C35.577 1.836 40.377 1 44.567 1c8.346 0 14.703 3.309 21.382 6.82l.132.069c6.509 3.421 13.35 7.017 22.453 7.017 9.102 0 15.943-3.596 22.452-7.017l.132-.07C117.797 4.31 124.154 1 132.5 1c8.346 0 14.703 3.309 21.382 6.82l.132.069c6.509 3.421 13.35 7.017 22.452 7.017 9.103 0 15.944-3.596 22.453-7.017l.132-.07C205.73 4.31 212.087 1 220.433 1c4.191 0 8.99.835 13.884 2.126 4.88 1.287 9.783 3.008 14.16 4.737a183.21 183.21 0 0 1 10.948 4.754 155.469 155.469 0 0 1 4.079 2.003l.221.115.056.028.017.01.601-.367.545-.332.056-.034-.005-.003-.015-.008-.059-.03-.229-.12c-.2-.102-.496-.253-.878-.444-.763-.383-1.871-.93-3.255-1.585a185.684 185.684 0 0 0-11.071-4.807c-4.426-1.748-9.42-3.503-14.425-4.823C230.071.903 224.997 0 220.433 0c-9.103 0-15.944 3.596-22.453 7.018l-.131.069c-6.68 3.51-13.037 6.82-21.383 6.82-8.346 0-14.702-3.31-21.382-6.82l-.131-.07C148.444 3.597 141.603 0 132.5 0s-15.944 3.596-22.453 7.018l-.131.069c-6.68 3.51-13.037 6.82-21.382 6.82-8.347 0-14.703-3.31-21.383-6.82l-.131-.07C60.51 3.597 53.67 0 44.567 0c-4.564 0-9.638.903-14.63 2.22-5.005 1.32-10 3.075-14.425 4.823a185.47 185.47 0 0 0-11.07 4.807 158.917 158.917 0 0 0-4.134 2.03l-.229.118-.059.03-.019.01s-.001.002.6.368Zm0 25.032.602.366.004-.002.013-.007.056-.029.22-.114c.196-.1.487-.249.863-.438.752-.377 1.847-.917 3.217-1.566a183.398 183.398 0 0 1 10.948-4.753c4.377-1.729 9.28-3.45 14.16-4.737 4.894-1.291 9.694-2.126 13.884-2.126 8.346 0 14.703 3.308 21.382 6.82l.132.068c6.509 3.422 13.35 7.018 22.453 7.018 9.102 0 15.943-3.596 22.452-7.018l.132-.069c6.679-3.51 13.036-6.82 21.382-6.82 8.346 0 14.703 3.31 21.382 6.82l.132.07c6.509 3.42 13.35 7.017 22.452 7.017 9.103 0 15.944-3.596 22.453-7.018l.132-.069c6.679-3.51 13.036-6.82 21.382-6.82 4.191 0 8.99.836 13.884 2.127 4.88 1.287 9.783 3.008 14.16 4.737a183.207 183.207 0 0 1 10.948 4.753 155.469 155.469 0 0 1 4.079 2.004l.221.114.056.029.017.009.601-.366.601-.367-.005-.003-.015-.008-.059-.03-.229-.119a158.599 158.599 0 0 0-4.133-2.03 185.655 185.655 0 0 0-11.071-4.806c-4.426-1.748-9.42-3.504-14.425-4.824-4.992-1.317-10.066-2.22-14.63-2.22-9.103 0-15.944 3.597-22.453 7.018l-.131.07c-6.68 3.51-13.037 6.819-21.383 6.819-8.346 0-14.702-3.309-21.382-6.82l-.131-.069c-6.509-3.421-13.35-7.017-22.453-7.017s-15.944 3.596-22.453 7.017l-.131.07c-6.68 3.51-13.037 6.819-21.382 6.819-8.347 0-14.703-3.309-21.383-6.82l-.131-.069c-6.51-3.421-13.35-7.017-22.453-7.017-4.564 0-9.638.902-14.63 2.22-5.005 1.32-10 3.075-14.425 4.823a185.441 185.441 0 0 0-11.07 4.806 158.917 158.917 0 0 0-4.134 2.03l-.229.119-.059.03-.015.008-.004.003.6.367Zm.602 25.397L.6 64.47l-.6-.367.005-.003.015-.008.06-.03a64.062 64.062 0 0 1 1.106-.564c.763-.383 1.871-.93 3.255-1.585a185.507 185.507 0 0 1 11.071-4.807c4.426-1.748 9.42-3.503 14.425-4.823 4.992-1.317 10.066-2.22 14.63-2.22 9.103 0 15.944 3.596 22.453 7.018l.131.069c6.68 3.51 13.037 6.82 21.383 6.82 8.345 0 14.702-3.31 21.382-6.82l.131-.07c6.509-3.421 13.35-7.017 22.453-7.017s15.944 3.596 22.453 7.018l.131.069c6.68 3.51 13.036 6.82 21.382 6.82 8.346 0 14.703-3.31 21.383-6.82l.131-.07c6.509-3.421 13.35-7.017 22.453-7.017 4.564 0 9.638.903 14.63 2.22 5.005 1.32 9.999 3.075 14.425 4.823a185.721 185.721 0 0 1 11.071 4.807 158.599 158.599 0 0 1 4.133 2.03l.229.118.059.03.019.01s.002.002-.6.368l-.601.367-.004-.002-.013-.008-.056-.028-.036-.02-.072-.037-.113-.058a155.469 155.469 0 0 0-4.079-2.003 183.207 183.207 0 0 0-10.948-4.754c-4.377-1.729-9.28-3.45-14.16-4.737-4.894-1.29-9.693-2.126-13.884-2.126-8.346 0-14.703 3.309-21.382 6.82l-.132.069c-6.509 3.421-13.35 7.017-22.453 7.017-9.102 0-15.943-3.596-22.452-7.017l-.132-.07c-6.679-3.51-13.036-6.819-21.382-6.819-8.346 0-14.703 3.309-21.382 6.82l-.132.069c-6.509 3.421-13.35 7.017-22.453 7.017-9.102 0-15.943-3.596-22.452-7.017l-.132-.07c-6.68-3.51-13.036-6.819-21.382-6.819-4.19 0-8.99.835-13.884 2.126-4.88 1.287-9.783 3.008-14.16 4.737A183.398 183.398 0 0 0 5.575 62.68a156.484 156.484 0 0 0-4.08 2.003l-.22.114-.056.03-.017.008ZM.6 89.5l.602.366.017-.009.056-.029.22-.114c.196-.1.487-.249.863-.437.752-.378 1.847-.918 3.217-1.566a183.398 183.398 0 0 1 10.948-4.754c4.377-1.729 9.28-3.45 14.16-4.737 4.894-1.29 9.694-2.126 13.884-2.126 8.346 0 14.703 3.308 21.382 6.82l.132.068C72.59 86.404 79.43 90 88.534 90c9.102 0 15.943-3.596 22.452-7.018l.132-.069c6.679-3.51 13.036-6.82 21.382-6.82 8.346 0 14.703 3.31 21.382 6.82l.132.07c6.509 3.421 13.35 7.017 22.452 7.017 9.103 0 15.944-3.596 22.453-7.018l.132-.069c6.679-3.51 13.036-6.82 21.382-6.82 4.191 0 8.99.836 13.884 2.127 4.88 1.287 9.783 3.008 14.16 4.737a183.207 183.207 0 0 1 10.948 4.754 155.469 155.469 0 0 1 4.079 2.003l.221.114.056.03.013.006.004.002.601-.366c.602-.366.601-.367.601-.367l-.005-.002-.015-.008-.059-.031-.229-.118a157.979 157.979 0 0 0-4.133-2.03 185.721 185.721 0 0 0-11.071-4.807c-4.426-1.748-9.42-3.503-14.425-4.824-4.992-1.316-10.066-2.22-14.63-2.22-9.103 0-15.944 3.597-22.453 7.019l-.131.069C191.169 85.69 184.812 89 176.466 89c-8.346 0-14.702-3.309-21.382-6.82l-.131-.069c-6.509-3.421-13.35-7.017-22.453-7.017s-15.944 3.596-22.453 7.018l-.131.069C103.236 85.69 96.879 89 88.534 89c-8.347 0-14.703-3.309-21.383-6.82l-.131-.069c-6.51-3.421-13.35-7.017-22.453-7.017-4.564 0-9.638.903-14.63 2.22-5.005 1.32-10 3.075-14.425 4.823a185.507 185.507 0 0 0-11.07 4.807 158.295 158.295 0 0 0-4.134 2.03l-.229.118-.059.03-.015.009-.004.002.6.367Z"/>
</svg>
