<svg xmlns="http://www.w3.org/2000/svg" width="300" height="300" fill="none" viewBox="0 0 300 300">
  <path fill="url(#a)" d="M289.287 69.77c.831 1.44 1.64 2.892 2.427 4.359a5.354 5.354 0 0 1-2.427-4.359Z"/>
  <path fill="url(#b)" d="M259.954 32.785a161.626 161.626 0 0 1 7.261 7.26 5.357 5.357 0 1 1-7.261-7.26Z"/>
  <path fill="url(#c)" d="M225.871 8.286c1.467.787 2.92 1.596 4.359 2.427a5.353 5.353 0 0 1-4.359-2.427Z"/>
  <path fill="url(#d)" d="M69.77 10.713c1.44-.83 2.892-1.64 4.359-2.427a5.353 5.353 0 0 1-4.359 2.427Z"/>
  <path fill="url(#e)" d="M32.785 40.046a161.825 161.825 0 0 1 7.26-7.26 5.357 5.357 0 1 1-7.26 7.26Z"/>
  <path fill="url(#f)" d="M8.286 74.129c.787-1.467 1.596-2.92 2.427-4.359a5.353 5.353 0 0 1-2.427 4.359Z"/>
  <path fill="url(#g)" d="M291.714 225.871a159.373 159.373 0 0 1-2.427 4.359 5.354 5.354 0 0 1 2.427-4.359Z"/>
  <path fill="url(#h)" d="M267.215 259.954a5.356 5.356 0 1 0-7.261 7.261 161.427 161.427 0 0 0 7.261-7.261Z"/>
  <path fill="url(#i)" d="M230.23 289.287a5.354 5.354 0 0 0-4.359 2.427c1.467-.787 2.92-1.596 4.359-2.427Z"/>
  <path fill="url(#j)" d="M74.129 291.714a5.354 5.354 0 0 0-4.359-2.427c1.44.831 2.892 1.64 4.359 2.427Z"/>
  <path fill="url(#k)" d="M40.046 267.215a5.357 5.357 0 1 0-7.26-7.261 161.626 161.626 0 0 0 7.26 7.261Z"/>
  <path fill="url(#l)" d="M10.713 230.23a5.353 5.353 0 0 0-2.427-4.359c.787 1.467 1.596 2.92 2.427 4.359Z"/>
  <path fill="url(#m)" d="M107.143 5.357a5.357 5.357 0 1 1-10.715 0 5.357 5.357 0 0 1 10.715 0Z"/>
  <path fill="url(#n)" d="M139.286 5.357a5.357 5.357 0 1 1-10.715 0 5.357 5.357 0 0 1 10.715 0Z"/>
  <path fill="url(#o)" d="M171.429 5.357a5.358 5.358 0 1 1-10.715 0 5.358 5.358 0 0 1 10.715 0Z"/>
  <path fill="url(#p)" d="M203.571 5.357a5.357 5.357 0 1 1-10.714 0 5.357 5.357 0 0 1 10.714 0Z"/>
  <path fill="url(#q)" d="M75 37.5a5.357 5.357 0 1 1-10.714 0A5.357 5.357 0 0 1 75 37.5Z"/>
  <path fill="url(#r)" d="M107.143 37.5a5.357 5.357 0 1 1-10.715 0 5.357 5.357 0 0 1 10.715 0Z"/>
  <path fill="url(#s)" d="M139.286 37.5a5.357 5.357 0 1 1-10.715 0 5.357 5.357 0 0 1 10.715 0Z"/>
  <path fill="url(#t)" d="M171.429 37.5a5.358 5.358 0 1 1-10.715-.001 5.358 5.358 0 0 1 10.715.001Z"/>
  <path fill="url(#u)" d="M203.571 37.5a5.357 5.357 0 1 1-10.714 0 5.357 5.357 0 0 1 10.714 0Z"/>
  <path fill="url(#v)" d="M235.714 37.5a5.357 5.357 0 1 1-10.714 0 5.357 5.357 0 0 1 10.714 0Z"/>
  <path fill="url(#w)" d="M42.857 69.643a5.357 5.357 0 1 1-10.714 0 5.357 5.357 0 0 1 10.714 0Z"/>
  <path fill="url(#x)" d="M75 69.643a5.357 5.357 0 1 1-10.714 0 5.357 5.357 0 0 1 10.714 0Z"/>
  <path fill="url(#y)" d="M107.143 69.643a5.357 5.357 0 1 1-10.715 0 5.357 5.357 0 0 1 10.715 0Z"/>
  <path fill="url(#z)" d="M139.286 69.643a5.357 5.357 0 1 1-10.715 0 5.357 5.357 0 0 1 10.715 0Z"/>
  <path fill="url(#A)" d="M171.429 69.643a5.358 5.358 0 1 1-10.715-.001 5.358 5.358 0 0 1 10.715 0Z"/>
  <path fill="url(#B)" d="M203.571 69.643a5.357 5.357 0 1 1-10.714 0 5.357 5.357 0 0 1 10.714 0Z"/>
  <path fill="url(#C)" d="M235.714 69.643a5.357 5.357 0 1 1-10.714 0 5.357 5.357 0 0 1 10.714 0Z"/>
  <path fill="url(#D)" d="M267.857 69.643a5.357 5.357 0 1 1-10.714 0 5.357 5.357 0 0 1 10.714 0Z"/>
  <path fill="url(#E)" d="M10.714 101.786a5.357 5.357 0 1 1-10.715 0 5.357 5.357 0 0 1 10.715 0Z"/>
  <path fill="url(#F)" d="M42.857 101.786a5.357 5.357 0 1 1-10.715 0 5.357 5.357 0 0 1 10.715 0Z"/>
  <path fill="url(#G)" d="M75 101.786a5.357 5.357 0 1 1-10.715 0 5.357 5.357 0 0 1 10.715 0Z"/>
  <path fill="url(#H)" d="M107.143 101.786a5.358 5.358 0 1 1-10.716-.002 5.358 5.358 0 0 1 10.716.002Z"/>
  <path fill="url(#I)" d="M139.286 101.786a5.358 5.358 0 1 1-10.716-.002 5.358 5.358 0 0 1 10.716.002Z"/>
  <path fill="url(#J)" d="M171.429 101.786a5.358 5.358 0 1 1-10.716-.002 5.358 5.358 0 0 1 10.716.002Z"/>
  <path fill="url(#K)" d="M203.571 101.786a5.357 5.357 0 1 1-10.714 0 5.357 5.357 0 0 1 10.714 0Z"/>
  <path fill="url(#L)" d="M235.714 101.786a5.357 5.357 0 1 1-10.714 0 5.357 5.357 0 0 1 10.714 0Z"/>
  <path fill="url(#M)" d="M267.857 101.786a5.357 5.357 0 1 1-10.714 0 5.357 5.357 0 0 1 10.714 0Z"/>
  <path fill="url(#N)" d="M300 101.786a5.357 5.357 0 1 1-10.714 0 5.357 5.357 0 0 1 10.714 0Z"/>
  <path fill="url(#O)" d="M10.714 133.929a5.357 5.357 0 1 1-10.715 0 5.357 5.357 0 0 1 10.715 0Z"/>
  <path fill="url(#P)" d="M42.857 133.929a5.357 5.357 0 1 1-10.715 0 5.357 5.357 0 0 1 10.715 0Z"/>
  <path fill="url(#Q)" d="M75 133.929a5.357 5.357 0 1 1-10.715 0 5.357 5.357 0 0 1 10.715 0Z"/>
  <path fill="url(#R)" d="M107.143 133.929a5.358 5.358 0 1 1-10.716-.002 5.358 5.358 0 0 1 10.716.002Z"/>
  <path fill="url(#S)" d="M139.286 133.929a5.358 5.358 0 1 1-10.716-.002 5.358 5.358 0 0 1 10.716.002Z"/>
  <path fill="url(#T)" d="M171.429 133.929a5.358 5.358 0 1 1-10.716-.002 5.358 5.358 0 0 1 10.716.002Z"/>
  <path fill="url(#U)" d="M203.571 133.929a5.357 5.357 0 1 1-10.714 0 5.357 5.357 0 0 1 10.714 0Z"/>
  <path fill="url(#V)" d="M235.714 133.929a5.357 5.357 0 1 1-10.714 0 5.357 5.357 0 0 1 10.714 0Z"/>
  <path fill="url(#W)" d="M267.857 133.929a5.357 5.357 0 1 1-10.714 0 5.357 5.357 0 0 1 10.714 0Z"/>
  <path fill="url(#X)" d="M300 133.929a5.357 5.357 0 1 1-10.714 0 5.357 5.357 0 0 1 10.714 0Z"/>
  <path fill="url(#Y)" d="M10.714 166.071a5.358 5.358 0 1 1-10.715 0 5.358 5.358 0 0 1 10.715 0Z"/>
  <path fill="url(#Z)" d="M42.857 166.071a5.358 5.358 0 1 1-10.715 0 5.358 5.358 0 0 1 10.715 0Z"/>
  <path fill="url(#aa)" d="M75 166.071a5.358 5.358 0 1 1-10.715 0 5.358 5.358 0 0 1 10.715 0Z"/>
  <path fill="url(#ab)" d="M107.143 166.071a5.358 5.358 0 1 1-10.716 0 5.358 5.358 0 0 1 10.716 0Z"/>
  <path fill="url(#ac)" d="M139.286 166.071a5.358 5.358 0 1 1-10.716 0 5.358 5.358 0 0 1 10.716 0Z"/>
  <path fill="url(#ad)" d="M171.429 166.071a5.358 5.358 0 1 1-10.716 0 5.358 5.358 0 0 1 10.716 0Z"/>
  <path fill="url(#ae)" d="M203.571 166.071a5.357 5.357 0 1 1-10.715.001 5.357 5.357 0 0 1 10.715-.001Z"/>
  <path fill="url(#af)" d="M235.714 166.071a5.357 5.357 0 1 1-10.715.001 5.357 5.357 0 0 1 10.715-.001Z"/>
  <path fill="url(#ag)" d="M267.857 166.071a5.357 5.357 0 1 1-10.715.001 5.357 5.357 0 0 1 10.715-.001Z"/>
  <path fill="url(#ah)" d="M300 166.071a5.357 5.357 0 1 1-10.715.001 5.357 5.357 0 0 1 10.715-.001Z"/>
  <path fill="url(#ai)" d="M10.714 198.214a5.357 5.357 0 1 1-10.713 0 5.357 5.357 0 0 1 10.713 0Z"/>
  <path fill="url(#aj)" d="M42.857 198.214a5.357 5.357 0 1 1-10.713 0 5.357 5.357 0 0 1 10.713 0Z"/>
  <path fill="url(#ak)" d="M75 198.214a5.357 5.357 0 1 1-10.714 0 5.357 5.357 0 0 1 10.714 0Z"/>
  <path fill="url(#al)" d="M107.143 198.214a5.357 5.357 0 1 1-10.714 0 5.357 5.357 0 0 1 10.714 0Z"/>
  <path fill="url(#am)" d="M139.286 198.214a5.357 5.357 0 1 1-10.714 0 5.357 5.357 0 0 1 10.714 0Z"/>
  <path fill="url(#an)" d="M171.429 198.214a5.357 5.357 0 1 1-10.715 0 5.357 5.357 0 0 1 10.715 0Z"/>
  <path fill="url(#ao)" d="M203.571 198.214a5.356 5.356 0 1 1-10.713.001 5.356 5.356 0 0 1 10.713-.001Z"/>
  <path fill="url(#ap)" d="M235.714 198.214a5.356 5.356 0 1 1-10.714 0 5.357 5.357 0 0 1 10.714 0Z"/>
  <path fill="url(#aq)" d="M267.857 198.214a5.356 5.356 0 1 1-10.714 0 5.357 5.357 0 0 1 10.714 0Z"/>
  <path fill="url(#ar)" d="M300 198.214a5.356 5.356 0 1 1-10.714 0 5.357 5.357 0 0 1 10.714 0Z"/>
  <path fill="url(#as)" d="M42.857 230.357a5.357 5.357 0 1 1-10.713 0 5.357 5.357 0 0 1 10.713 0Z"/>
  <path fill="url(#at)" d="M75 230.357a5.357 5.357 0 1 1-10.714 0 5.357 5.357 0 0 1 10.714 0Z"/>
  <path fill="url(#au)" d="M107.143 230.357a5.357 5.357 0 1 1-10.714 0 5.357 5.357 0 0 1 10.714 0Z"/>
  <path fill="url(#av)" d="M139.286 230.357a5.357 5.357 0 1 1-10.714 0 5.357 5.357 0 0 1 10.714 0Z"/>
  <path fill="url(#aw)" d="M171.429 230.357a5.357 5.357 0 1 1-10.715 0 5.357 5.357 0 0 1 10.715 0Z"/>
  <path fill="url(#ax)" d="M203.571 230.357a5.356 5.356 0 1 1-10.714 0 5.357 5.357 0 0 1 10.714 0Z"/>
  <path fill="url(#ay)" d="M235.714 230.357a5.356 5.356 0 1 1-10.714 0 5.356 5.356 0 1 1 10.714 0Z"/>
  <path fill="url(#az)" d="M267.857 230.357a5.356 5.356 0 1 1-10.714 0 5.356 5.356 0 1 1 10.714 0Z"/>
  <path fill="url(#aA)" d="M75 262.5a5.357 5.357 0 1 1-10.714 0 5.357 5.357 0 0 1 10.714 0Z"/>
  <path fill="url(#aB)" d="M107.143 262.5a5.357 5.357 0 1 1-10.714 0 5.357 5.357 0 0 1 10.714 0Z"/>
  <path fill="url(#aC)" d="M139.286 262.5a5.357 5.357 0 1 1-10.714 0 5.357 5.357 0 0 1 10.714 0Z"/>
  <path fill="url(#aD)" d="M171.429 262.5a5.357 5.357 0 1 1-10.715 0 5.357 5.357 0 0 1 10.715 0Z"/>
  <path fill="url(#aE)" d="M203.571 262.5a5.356 5.356 0 1 1-10.714 0 5.357 5.357 0 0 1 10.714 0Z"/>
  <path fill="url(#aF)" d="M235.714 262.5a5.356 5.356 0 1 1-10.714 0 5.356 5.356 0 1 1 10.714 0Z"/>
  <path fill="url(#aG)" d="M107.143 294.643a5.357 5.357 0 1 1-10.714 0 5.357 5.357 0 0 1 10.714 0Z"/>
  <path fill="url(#aH)" d="M139.286 294.643a5.357 5.357 0 1 1-10.714 0 5.357 5.357 0 0 1 10.714 0Z"/>
  <path fill="url(#aI)" d="M171.429 294.643a5.357 5.357 0 1 1-10.715 0 5.357 5.357 0 0 1 10.715 0Z"/>
  <path fill="url(#aJ)" d="M203.571 294.643a5.356 5.356 0 1 1-10.714 0 5.357 5.357 0 0 1 10.714 0Z"/>
  <defs>
    <linearGradient id="a" x1="242.5" x2="-82.5" y1="300" y2="-177" gradientUnits="userSpaceOnUse">
      <stop stop-color="#969696"/>
      <stop offset="1" stop-color="#969696" stop-opacity="0"/>
    </linearGradient>
    <linearGradient id="b" x1="242.5" x2="-82.5" y1="300" y2="-177" gradientUnits="userSpaceOnUse">
      <stop stop-color="#969696"/>
      <stop offset="1" stop-color="#969696" stop-opacity="0"/>
    </linearGradient>
    <linearGradient id="c" x1="242.5" x2="-82.5" y1="300" y2="-177" gradientUnits="userSpaceOnUse">
      <stop stop-color="#969696"/>
      <stop offset="1" stop-color="#969696" stop-opacity="0"/>
    </linearGradient>
    <linearGradient id="d" x1="242.5" x2="-82.5" y1="300" y2="-177" gradientUnits="userSpaceOnUse">
      <stop stop-color="#969696"/>
      <stop offset="1" stop-color="#969696" stop-opacity="0"/>
    </linearGradient>
    <linearGradient id="e" x1="242.5" x2="-82.5" y1="300" y2="-177" gradientUnits="userSpaceOnUse">
      <stop stop-color="#969696"/>
      <stop offset="1" stop-color="#969696" stop-opacity="0"/>
    </linearGradient>
    <linearGradient id="f" x1="242.5" x2="-82.5" y1="300" y2="-177" gradientUnits="userSpaceOnUse">
      <stop stop-color="#969696"/>
      <stop offset="1" stop-color="#969696" stop-opacity="0"/>
    </linearGradient>
    <linearGradient id="g" x1="242.5" x2="-82.5" y1="300" y2="-177" gradientUnits="userSpaceOnUse">
      <stop stop-color="#969696"/>
      <stop offset="1" stop-color="#969696" stop-opacity="0"/>
    </linearGradient>
    <linearGradient id="h" x1="242.5" x2="-82.5" y1="300" y2="-177" gradientUnits="userSpaceOnUse">
      <stop stop-color="#969696"/>
      <stop offset="1" stop-color="#969696" stop-opacity="0"/>
    </linearGradient>
    <linearGradient id="i" x1="242.5" x2="-82.5" y1="300" y2="-177" gradientUnits="userSpaceOnUse">
      <stop stop-color="#969696"/>
      <stop offset="1" stop-color="#969696" stop-opacity="0"/>
    </linearGradient>
    <linearGradient id="j" x1="242.5" x2="-82.5" y1="300" y2="-177" gradientUnits="userSpaceOnUse">
      <stop stop-color="#969696"/>
      <stop offset="1" stop-color="#969696" stop-opacity="0"/>
    </linearGradient>
    <linearGradient id="k" x1="242.5" x2="-82.5" y1="300" y2="-177" gradientUnits="userSpaceOnUse">
      <stop stop-color="#969696"/>
      <stop offset="1" stop-color="#969696" stop-opacity="0"/>
    </linearGradient>
    <linearGradient id="l" x1="242.5" x2="-82.5" y1="300" y2="-177" gradientUnits="userSpaceOnUse">
      <stop stop-color="#969696"/>
      <stop offset="1" stop-color="#969696" stop-opacity="0"/>
    </linearGradient>
    <linearGradient id="m" x1="242.5" x2="-82.5" y1="300" y2="-177" gradientUnits="userSpaceOnUse">
      <stop stop-color="#969696"/>
      <stop offset="1" stop-color="#969696" stop-opacity="0"/>
    </linearGradient>
    <linearGradient id="n" x1="242.5" x2="-82.5" y1="300" y2="-177" gradientUnits="userSpaceOnUse">
      <stop stop-color="#969696"/>
      <stop offset="1" stop-color="#969696" stop-opacity="0"/>
    </linearGradient>
    <linearGradient id="o" x1="242.5" x2="-82.5" y1="300" y2="-177" gradientUnits="userSpaceOnUse">
      <stop stop-color="#969696"/>
      <stop offset="1" stop-color="#969696" stop-opacity="0"/>
    </linearGradient>
    <linearGradient id="p" x1="242.5" x2="-82.5" y1="300" y2="-177" gradientUnits="userSpaceOnUse">
      <stop stop-color="#969696"/>
      <stop offset="1" stop-color="#969696" stop-opacity="0"/>
    </linearGradient>
    <linearGradient id="q" x1="242.5" x2="-82.5" y1="300" y2="-177" gradientUnits="userSpaceOnUse">
      <stop stop-color="#969696"/>
      <stop offset="1" stop-color="#969696" stop-opacity="0"/>
    </linearGradient>
    <linearGradient id="r" x1="242.5" x2="-82.5" y1="300" y2="-177" gradientUnits="userSpaceOnUse">
      <stop stop-color="#969696"/>
      <stop offset="1" stop-color="#969696" stop-opacity="0"/>
    </linearGradient>
    <linearGradient id="s" x1="242.5" x2="-82.5" y1="300" y2="-177" gradientUnits="userSpaceOnUse">
      <stop stop-color="#969696"/>
      <stop offset="1" stop-color="#969696" stop-opacity="0"/>
    </linearGradient>
    <linearGradient id="t" x1="242.5" x2="-82.5" y1="300" y2="-177" gradientUnits="userSpaceOnUse">
      <stop stop-color="#969696"/>
      <stop offset="1" stop-color="#969696" stop-opacity="0"/>
    </linearGradient>
    <linearGradient id="u" x1="242.5" x2="-82.5" y1="300" y2="-177" gradientUnits="userSpaceOnUse">
      <stop stop-color="#969696"/>
      <stop offset="1" stop-color="#969696" stop-opacity="0"/>
    </linearGradient>
    <linearGradient id="v" x1="242.5" x2="-82.5" y1="300" y2="-177" gradientUnits="userSpaceOnUse">
      <stop stop-color="#969696"/>
      <stop offset="1" stop-color="#969696" stop-opacity="0"/>
    </linearGradient>
    <linearGradient id="w" x1="242.5" x2="-82.5" y1="300" y2="-177" gradientUnits="userSpaceOnUse">
      <stop stop-color="#969696"/>
      <stop offset="1" stop-color="#969696" stop-opacity="0"/>
    </linearGradient>
    <linearGradient id="x" x1="242.5" x2="-82.5" y1="300" y2="-177" gradientUnits="userSpaceOnUse">
      <stop stop-color="#969696"/>
      <stop offset="1" stop-color="#969696" stop-opacity="0"/>
    </linearGradient>
    <linearGradient id="y" x1="242.5" x2="-82.5" y1="300" y2="-177" gradientUnits="userSpaceOnUse">
      <stop stop-color="#969696"/>
      <stop offset="1" stop-color="#969696" stop-opacity="0"/>
    </linearGradient>
    <linearGradient id="z" x1="242.5" x2="-82.5" y1="300" y2="-177" gradientUnits="userSpaceOnUse">
      <stop stop-color="#969696"/>
      <stop offset="1" stop-color="#969696" stop-opacity="0"/>
    </linearGradient>
    <linearGradient id="A" x1="242.5" x2="-82.5" y1="300" y2="-177" gradientUnits="userSpaceOnUse">
      <stop stop-color="#969696"/>
      <stop offset="1" stop-color="#969696" stop-opacity="0"/>
    </linearGradient>
    <linearGradient id="B" x1="242.5" x2="-82.5" y1="300" y2="-177" gradientUnits="userSpaceOnUse">
      <stop stop-color="#969696"/>
      <stop offset="1" stop-color="#969696" stop-opacity="0"/>
    </linearGradient>
    <linearGradient id="C" x1="242.5" x2="-82.5" y1="300" y2="-177" gradientUnits="userSpaceOnUse">
      <stop stop-color="#969696"/>
      <stop offset="1" stop-color="#969696" stop-opacity="0"/>
    </linearGradient>
    <linearGradient id="D" x1="242.5" x2="-82.5" y1="300" y2="-177" gradientUnits="userSpaceOnUse">
      <stop stop-color="#969696"/>
      <stop offset="1" stop-color="#969696" stop-opacity="0"/>
    </linearGradient>
    <linearGradient id="E" x1="242.5" x2="-82.5" y1="300" y2="-177" gradientUnits="userSpaceOnUse">
      <stop stop-color="#969696"/>
      <stop offset="1" stop-color="#969696" stop-opacity="0"/>
    </linearGradient>
    <linearGradient id="F" x1="242.5" x2="-82.5" y1="300" y2="-177" gradientUnits="userSpaceOnUse">
      <stop stop-color="#969696"/>
      <stop offset="1" stop-color="#969696" stop-opacity="0"/>
    </linearGradient>
    <linearGradient id="G" x1="242.5" x2="-82.5" y1="300" y2="-177" gradientUnits="userSpaceOnUse">
      <stop stop-color="#969696"/>
      <stop offset="1" stop-color="#969696" stop-opacity="0"/>
    </linearGradient>
    <linearGradient id="H" x1="242.5" x2="-82.5" y1="300" y2="-177" gradientUnits="userSpaceOnUse">
      <stop stop-color="#969696"/>
      <stop offset="1" stop-color="#969696" stop-opacity="0"/>
    </linearGradient>
    <linearGradient id="I" x1="242.5" x2="-82.5" y1="300" y2="-177" gradientUnits="userSpaceOnUse">
      <stop stop-color="#969696"/>
      <stop offset="1" stop-color="#969696" stop-opacity="0"/>
    </linearGradient>
    <linearGradient id="J" x1="242.5" x2="-82.5" y1="300" y2="-177" gradientUnits="userSpaceOnUse">
      <stop stop-color="#969696"/>
      <stop offset="1" stop-color="#969696" stop-opacity="0"/>
    </linearGradient>
    <linearGradient id="K" x1="242.5" x2="-82.5" y1="300" y2="-177" gradientUnits="userSpaceOnUse">
      <stop stop-color="#969696"/>
      <stop offset="1" stop-color="#969696" stop-opacity="0"/>
    </linearGradient>
    <linearGradient id="L" x1="242.5" x2="-82.5" y1="300" y2="-177" gradientUnits="userSpaceOnUse">
      <stop stop-color="#969696"/>
      <stop offset="1" stop-color="#969696" stop-opacity="0"/>
    </linearGradient>
    <linearGradient id="M" x1="242.5" x2="-82.5" y1="300" y2="-177" gradientUnits="userSpaceOnUse">
      <stop stop-color="#969696"/>
      <stop offset="1" stop-color="#969696" stop-opacity="0"/>
    </linearGradient>
    <linearGradient id="N" x1="242.5" x2="-82.5" y1="300" y2="-177" gradientUnits="userSpaceOnUse">
      <stop stop-color="#969696"/>
      <stop offset="1" stop-color="#969696" stop-opacity="0"/>
    </linearGradient>
    <linearGradient id="O" x1="242.5" x2="-82.5" y1="300" y2="-177" gradientUnits="userSpaceOnUse">
      <stop stop-color="#969696"/>
      <stop offset="1" stop-color="#969696" stop-opacity="0"/>
    </linearGradient>
    <linearGradient id="P" x1="242.5" x2="-82.5" y1="300" y2="-177" gradientUnits="userSpaceOnUse">
      <stop stop-color="#969696"/>
      <stop offset="1" stop-color="#969696" stop-opacity="0"/>
    </linearGradient>
    <linearGradient id="Q" x1="242.5" x2="-82.5" y1="300" y2="-177" gradientUnits="userSpaceOnUse">
      <stop stop-color="#969696"/>
      <stop offset="1" stop-color="#969696" stop-opacity="0"/>
    </linearGradient>
    <linearGradient id="R" x1="242.5" x2="-82.5" y1="300" y2="-177" gradientUnits="userSpaceOnUse">
      <stop stop-color="#969696"/>
      <stop offset="1" stop-color="#969696" stop-opacity="0"/>
    </linearGradient>
    <linearGradient id="S" x1="242.5" x2="-82.5" y1="300" y2="-177" gradientUnits="userSpaceOnUse">
      <stop stop-color="#969696"/>
      <stop offset="1" stop-color="#969696" stop-opacity="0"/>
    </linearGradient>
    <linearGradient id="T" x1="242.5" x2="-82.5" y1="300" y2="-177" gradientUnits="userSpaceOnUse">
      <stop stop-color="#969696"/>
      <stop offset="1" stop-color="#969696" stop-opacity="0"/>
    </linearGradient>
    <linearGradient id="U" x1="242.5" x2="-82.5" y1="300" y2="-177" gradientUnits="userSpaceOnUse">
      <stop stop-color="#969696"/>
      <stop offset="1" stop-color="#969696" stop-opacity="0"/>
    </linearGradient>
    <linearGradient id="V" x1="242.5" x2="-82.5" y1="300" y2="-177" gradientUnits="userSpaceOnUse">
      <stop stop-color="#969696"/>
      <stop offset="1" stop-color="#969696" stop-opacity="0"/>
    </linearGradient>
    <linearGradient id="W" x1="242.5" x2="-82.5" y1="300" y2="-177" gradientUnits="userSpaceOnUse">
      <stop stop-color="#969696"/>
      <stop offset="1" stop-color="#969696" stop-opacity="0"/>
    </linearGradient>
    <linearGradient id="X" x1="242.5" x2="-82.5" y1="300" y2="-177" gradientUnits="userSpaceOnUse">
      <stop stop-color="#969696"/>
      <stop offset="1" stop-color="#969696" stop-opacity="0"/>
    </linearGradient>
    <linearGradient id="Y" x1="242.5" x2="-82.5" y1="300" y2="-177" gradientUnits="userSpaceOnUse">
      <stop stop-color="#969696"/>
      <stop offset="1" stop-color="#969696" stop-opacity="0"/>
    </linearGradient>
    <linearGradient id="Z" x1="242.5" x2="-82.5" y1="300" y2="-177" gradientUnits="userSpaceOnUse">
      <stop stop-color="#969696"/>
      <stop offset="1" stop-color="#969696" stop-opacity="0"/>
    </linearGradient>
    <linearGradient id="aa" x1="242.5" x2="-82.5" y1="300" y2="-177" gradientUnits="userSpaceOnUse">
      <stop stop-color="#969696"/>
      <stop offset="1" stop-color="#969696" stop-opacity="0"/>
    </linearGradient>
    <linearGradient id="ab" x1="242.5" x2="-82.5" y1="300" y2="-177" gradientUnits="userSpaceOnUse">
      <stop stop-color="#969696"/>
      <stop offset="1" stop-color="#969696" stop-opacity="0"/>
    </linearGradient>
    <linearGradient id="ac" x1="242.5" x2="-82.5" y1="300" y2="-177" gradientUnits="userSpaceOnUse">
      <stop stop-color="#969696"/>
      <stop offset="1" stop-color="#969696" stop-opacity="0"/>
    </linearGradient>
    <linearGradient id="ad" x1="242.5" x2="-82.5" y1="300" y2="-177" gradientUnits="userSpaceOnUse">
      <stop stop-color="#969696"/>
      <stop offset="1" stop-color="#969696" stop-opacity="0"/>
    </linearGradient>
    <linearGradient id="ae" x1="242.5" x2="-82.5" y1="300" y2="-177" gradientUnits="userSpaceOnUse">
      <stop stop-color="#969696"/>
      <stop offset="1" stop-color="#969696" stop-opacity="0"/>
    </linearGradient>
    <linearGradient id="af" x1="242.5" x2="-82.5" y1="300" y2="-177" gradientUnits="userSpaceOnUse">
      <stop stop-color="#969696"/>
      <stop offset="1" stop-color="#969696" stop-opacity="0"/>
    </linearGradient>
    <linearGradient id="ag" x1="242.5" x2="-82.5" y1="300" y2="-177" gradientUnits="userSpaceOnUse">
      <stop stop-color="#969696"/>
      <stop offset="1" stop-color="#969696" stop-opacity="0"/>
    </linearGradient>
    <linearGradient id="ah" x1="242.5" x2="-82.5" y1="300" y2="-177" gradientUnits="userSpaceOnUse">
      <stop stop-color="#969696"/>
      <stop offset="1" stop-color="#969696" stop-opacity="0"/>
    </linearGradient>
    <linearGradient id="ai" x1="242.5" x2="-82.5" y1="300" y2="-177" gradientUnits="userSpaceOnUse">
      <stop stop-color="#969696"/>
      <stop offset="1" stop-color="#969696" stop-opacity="0"/>
    </linearGradient>
    <linearGradient id="aj" x1="242.5" x2="-82.5" y1="300" y2="-177" gradientUnits="userSpaceOnUse">
      <stop stop-color="#969696"/>
      <stop offset="1" stop-color="#969696" stop-opacity="0"/>
    </linearGradient>
    <linearGradient id="ak" x1="242.5" x2="-82.5" y1="300" y2="-177" gradientUnits="userSpaceOnUse">
      <stop stop-color="#969696"/>
      <stop offset="1" stop-color="#969696" stop-opacity="0"/>
    </linearGradient>
    <linearGradient id="al" x1="242.5" x2="-82.5" y1="300" y2="-177" gradientUnits="userSpaceOnUse">
      <stop stop-color="#969696"/>
      <stop offset="1" stop-color="#969696" stop-opacity="0"/>
    </linearGradient>
    <linearGradient id="am" x1="242.5" x2="-82.5" y1="300" y2="-177" gradientUnits="userSpaceOnUse">
      <stop stop-color="#969696"/>
      <stop offset="1" stop-color="#969696" stop-opacity="0"/>
    </linearGradient>
    <linearGradient id="an" x1="242.5" x2="-82.5" y1="300" y2="-177" gradientUnits="userSpaceOnUse">
      <stop stop-color="#969696"/>
      <stop offset="1" stop-color="#969696" stop-opacity="0"/>
    </linearGradient>
    <linearGradient id="ao" x1="242.5" x2="-82.5" y1="300" y2="-177" gradientUnits="userSpaceOnUse">
      <stop stop-color="#969696"/>
      <stop offset="1" stop-color="#969696" stop-opacity="0"/>
    </linearGradient>
    <linearGradient id="ap" x1="242.5" x2="-82.5" y1="300" y2="-177" gradientUnits="userSpaceOnUse">
      <stop stop-color="#969696"/>
      <stop offset="1" stop-color="#969696" stop-opacity="0"/>
    </linearGradient>
    <linearGradient id="aq" x1="242.5" x2="-82.5" y1="300" y2="-177" gradientUnits="userSpaceOnUse">
      <stop stop-color="#969696"/>
      <stop offset="1" stop-color="#969696" stop-opacity="0"/>
    </linearGradient>
    <linearGradient id="ar" x1="242.5" x2="-82.5" y1="300" y2="-177" gradientUnits="userSpaceOnUse">
      <stop stop-color="#969696"/>
      <stop offset="1" stop-color="#969696" stop-opacity="0"/>
    </linearGradient>
    <linearGradient id="as" x1="242.5" x2="-82.5" y1="300" y2="-177" gradientUnits="userSpaceOnUse">
      <stop stop-color="#969696"/>
      <stop offset="1" stop-color="#969696" stop-opacity="0"/>
    </linearGradient>
    <linearGradient id="at" x1="242.5" x2="-82.5" y1="300" y2="-177" gradientUnits="userSpaceOnUse">
      <stop stop-color="#969696"/>
      <stop offset="1" stop-color="#969696" stop-opacity="0"/>
    </linearGradient>
    <linearGradient id="au" x1="242.5" x2="-82.5" y1="300" y2="-177" gradientUnits="userSpaceOnUse">
      <stop stop-color="#969696"/>
      <stop offset="1" stop-color="#969696" stop-opacity="0"/>
    </linearGradient>
    <linearGradient id="av" x1="242.5" x2="-82.5" y1="300" y2="-177" gradientUnits="userSpaceOnUse">
      <stop stop-color="#969696"/>
      <stop offset="1" stop-color="#969696" stop-opacity="0"/>
    </linearGradient>
    <linearGradient id="aw" x1="242.5" x2="-82.5" y1="300" y2="-177" gradientUnits="userSpaceOnUse">
      <stop stop-color="#969696"/>
      <stop offset="1" stop-color="#969696" stop-opacity="0"/>
    </linearGradient>
    <linearGradient id="ax" x1="242.5" x2="-82.5" y1="300" y2="-177" gradientUnits="userSpaceOnUse">
      <stop stop-color="#969696"/>
      <stop offset="1" stop-color="#969696" stop-opacity="0"/>
    </linearGradient>
    <linearGradient id="ay" x1="242.5" x2="-82.5" y1="300" y2="-177" gradientUnits="userSpaceOnUse">
      <stop stop-color="#969696"/>
      <stop offset="1" stop-color="#969696" stop-opacity="0"/>
    </linearGradient>
    <linearGradient id="az" x1="242.5" x2="-82.5" y1="300" y2="-177" gradientUnits="userSpaceOnUse">
      <stop stop-color="#969696"/>
      <stop offset="1" stop-color="#969696" stop-opacity="0"/>
    </linearGradient>
    <linearGradient id="aA" x1="242.5" x2="-82.5" y1="300" y2="-177" gradientUnits="userSpaceOnUse">
      <stop stop-color="#969696"/>
      <stop offset="1" stop-color="#969696" stop-opacity="0"/>
    </linearGradient>
    <linearGradient id="aB" x1="242.5" x2="-82.5" y1="300" y2="-177" gradientUnits="userSpaceOnUse">
      <stop stop-color="#969696"/>
      <stop offset="1" stop-color="#969696" stop-opacity="0"/>
    </linearGradient>
    <linearGradient id="aC" x1="242.5" x2="-82.5" y1="300" y2="-177" gradientUnits="userSpaceOnUse">
      <stop stop-color="#969696"/>
      <stop offset="1" stop-color="#969696" stop-opacity="0"/>
    </linearGradient>
    <linearGradient id="aD" x1="242.5" x2="-82.5" y1="300" y2="-177" gradientUnits="userSpaceOnUse">
      <stop stop-color="#969696"/>
      <stop offset="1" stop-color="#969696" stop-opacity="0"/>
    </linearGradient>
    <linearGradient id="aE" x1="242.5" x2="-82.5" y1="300" y2="-177" gradientUnits="userSpaceOnUse">
      <stop stop-color="#969696"/>
      <stop offset="1" stop-color="#969696" stop-opacity="0"/>
    </linearGradient>
    <linearGradient id="aF" x1="242.5" x2="-82.5" y1="300" y2="-177" gradientUnits="userSpaceOnUse">
      <stop stop-color="#969696"/>
      <stop offset="1" stop-color="#969696" stop-opacity="0"/>
    </linearGradient>
    <linearGradient id="aG" x1="242.5" x2="-82.5" y1="300" y2="-177" gradientUnits="userSpaceOnUse">
      <stop stop-color="#969696"/>
      <stop offset="1" stop-color="#969696" stop-opacity="0"/>
    </linearGradient>
    <linearGradient id="aH" x1="242.5" x2="-82.5" y1="300" y2="-177" gradientUnits="userSpaceOnUse">
      <stop stop-color="#969696"/>
      <stop offset="1" stop-color="#969696" stop-opacity="0"/>
    </linearGradient>
    <linearGradient id="aI" x1="242.5" x2="-82.5" y1="300" y2="-177" gradientUnits="userSpaceOnUse">
      <stop stop-color="#969696"/>
      <stop offset="1" stop-color="#969696" stop-opacity="0"/>
    </linearGradient>
    <linearGradient id="aJ" x1="242.5" x2="-82.5" y1="300" y2="-177" gradientUnits="userSpaceOnUse">
      <stop stop-color="#969696"/>
      <stop offset="1" stop-color="#969696" stop-opacity="0"/>
    </linearGradient>
  </defs>
</svg>
