<svg xmlns="http://www.w3.org/2000/svg" width="623" height="1173" fill="none" viewBox="0 0 623 1173">
  <mask id="a" width="623" height="1173" x="0" y="0" maskUnits="userSpaceOnUse" style="mask-type:alpha">
    <path fill="#D9D9D9" d="M0 0h623v1173H0z"/>
  </mask>
  <g mask="url(#a)">
    <path fill="#B7B7B7" d="M990.825 228.008a435.36 435.36 0 0 1 6.609 11.87c-3.892-2.546-6.493-6.901-6.609-11.87Zm-79.883-100.723a439.982 439.982 0 0 1 19.773 19.773c-2.467 4.559-7.292 7.656-12.84 7.656-8.057 0-14.589-6.532-14.589-14.589 0-5.548 3.097-10.373 7.656-12.84Zm-92.82-66.719a437.775 437.775 0 0 1 11.87 6.608 14.578 14.578 0 0 1-11.87-6.608Zm-425.114 6.608a437.775 437.775 0 0 1 11.87-6.608 14.578 14.578 0 0 1-11.87 6.608Zm-100.723 79.884a439.982 439.982 0 0 1 19.773-19.773c4.559 2.467 7.656 7.292 7.656 12.84 0 8.057-6.532 14.589-14.589 14.589-5.548 0-10.373-3.097-12.84-7.656Zm-66.719 92.82a435.36 435.36 0 0 1 6.609-11.87c-.116 4.969-2.717 9.324-6.609 11.87Zm771.868 413.244a435.36 435.36 0 0 1-6.609 11.87c.116-4.969 2.717-9.324 6.609-11.87Zm-66.719 92.82c-2.467-4.559-7.292-7.656-12.84-7.656-8.057 0-14.589 6.532-14.589 14.589 0 5.548 3.097 10.373 7.656 12.84a439.982 439.982 0 0 0 19.773-19.773Zm-100.723 79.883c-4.969.116-9.324 2.717-11.87 6.609a435.36 435.36 0 0 0 11.87-6.609Zm-425.114 6.609c-2.546-3.892-6.901-6.493-11.87-6.609a435.36 435.36 0 0 0 11.87 6.609Zm-92.82-66.719c4.559-2.467 7.656-7.292 7.656-12.84 0-8.057-6.532-14.589-14.589-14.589-5.548 0-10.373 3.097-12.84 7.656a439.982 439.982 0 0 0 19.773 19.773Zm-79.883-100.723c-.116-4.969-2.717-9.324-6.609-11.87a435.36 435.36 0 0 0 6.609 11.87ZM494.786 52.59c0 8.057-6.532 14.589-14.59 14.589-8.057 0-14.589-6.532-14.589-14.59 0-8.057 6.532-14.589 14.589-14.589 8.058 0 14.59 6.532 14.59 14.59Zm87.535 0c0 8.057-6.531 14.589-14.589 14.589-8.057 0-14.589-6.532-14.589-14.59 0-8.057 6.532-14.589 14.589-14.589 8.058 0 14.589 6.532 14.589 14.59Zm87.536 0c0 8.057-6.532 14.589-14.589 14.589-8.058 0-14.589-6.532-14.589-14.59 0-8.057 6.531-14.589 14.589-14.589 8.057 0 14.589 6.532 14.589 14.59Zm87.536 0c0 8.057-6.532 14.589-14.589 14.589-8.058 0-14.59-6.532-14.59-14.59 0-8.057 6.532-14.589 14.59-14.589 8.057 0 14.589 6.532 14.589 14.59ZM407.25 140.125c0 8.057-6.532 14.589-14.589 14.589-8.058 0-14.59-6.532-14.59-14.589s6.532-14.589 14.59-14.589c8.057 0 14.589 6.532 14.589 14.589Zm87.536 0c0 8.057-6.532 14.589-14.59 14.589-8.057 0-14.589-6.532-14.589-14.589s6.532-14.589 14.589-14.589c8.058 0 14.59 6.532 14.59 14.589Zm87.535 0c0 8.057-6.531 14.589-14.589 14.589-8.057 0-14.589-6.532-14.589-14.589s6.532-14.589 14.589-14.589c8.058 0 14.589 6.532 14.589 14.589Zm87.536 0c0 8.057-6.532 14.589-14.589 14.589-8.058 0-14.589-6.532-14.589-14.589s6.531-14.589 14.589-14.589c8.057 0 14.589 6.532 14.589 14.589Zm87.536 0c0 8.057-6.532 14.589-14.589 14.589-8.058 0-14.59-6.532-14.59-14.589s6.532-14.589 14.59-14.589c8.057 0 14.589 6.532 14.589 14.589Zm87.536 0c0 8.057-6.532 14.589-14.59 14.589-8.057 0-14.589-6.532-14.589-14.589s6.532-14.589 14.589-14.589c8.058 0 14.59 6.532 14.59 14.589Zm-525.215 87.536c0 8.057-6.532 14.589-14.589 14.589s-14.589-6.532-14.589-14.589c0-8.058 6.532-14.59 14.589-14.59s14.589 6.532 14.589 14.59Zm87.536 0c0 8.057-6.532 14.589-14.589 14.589-8.058 0-14.59-6.532-14.59-14.589 0-8.058 6.532-14.59 14.59-14.59 8.057 0 14.589 6.532 14.589 14.59Zm87.536 0c0 8.057-6.532 14.589-14.59 14.589-8.057 0-14.589-6.532-14.589-14.589 0-8.058 6.532-14.59 14.589-14.59 8.058 0 14.59 6.532 14.59 14.59Zm87.535 0c0 8.057-6.531 14.589-14.589 14.589-8.057 0-14.589-6.532-14.589-14.589 0-8.058 6.532-14.59 14.589-14.59 8.058 0 14.589 6.532 14.589 14.59Zm87.536 0c0 8.057-6.532 14.589-14.589 14.589-8.058 0-14.589-6.532-14.589-14.589 0-8.058 6.531-14.59 14.589-14.59 8.057 0 14.589 6.532 14.589 14.59Zm87.536 0c0 8.057-6.532 14.589-14.589 14.589-8.058 0-14.59-6.532-14.59-14.589 0-8.058 6.532-14.59 14.59-14.59 8.057 0 14.589 6.532 14.589 14.59Zm87.536 0c0 8.057-6.532 14.589-14.59 14.589-8.057 0-14.589-6.532-14.589-14.589 0-8.058 6.532-14.59 14.589-14.59 8.058 0 14.59 6.532 14.59 14.59Zm87.535 0c0 8.057-6.532 14.589-14.589 14.589s-14.589-6.532-14.589-14.589c0-8.058 6.532-14.59 14.589-14.59s14.589 6.532 14.589 14.59Zm-700.285 87.535c0 8.058-6.532 14.59-14.59 14.59-8.057 0-14.589-6.532-14.589-14.59 0-8.057 6.532-14.589 14.589-14.589 8.058 0 14.59 6.532 14.59 14.589Zm87.535 0c0 8.058-6.532 14.59-14.589 14.59s-14.589-6.532-14.589-14.59c0-8.057 6.532-14.589 14.589-14.589s14.589 6.532 14.589 14.589Zm87.536 0c0 8.058-6.532 14.59-14.589 14.59-8.058 0-14.59-6.532-14.59-14.59 0-8.057 6.532-14.589 14.59-14.589 8.057 0 14.589 6.532 14.589 14.589Zm87.536 0c0 8.058-6.532 14.59-14.59 14.59-8.057 0-14.589-6.532-14.589-14.59 0-8.057 6.532-14.589 14.589-14.589 8.058 0 14.59 6.532 14.59 14.589Zm87.535 0c0 8.058-6.531 14.59-14.589 14.59-8.057 0-14.589-6.532-14.589-14.59 0-8.057 6.532-14.589 14.589-14.589 8.058 0 14.589 6.532 14.589 14.589Zm87.536 0c0 8.058-6.532 14.59-14.589 14.59-8.058 0-14.589-6.532-14.589-14.59 0-8.057 6.531-14.589 14.589-14.589 8.057 0 14.589 6.532 14.589 14.589Zm87.536 0c0 8.058-6.532 14.59-14.589 14.59-8.058 0-14.59-6.532-14.59-14.59 0-8.057 6.532-14.589 14.59-14.589 8.057 0 14.589 6.532 14.589 14.589Zm87.536 0c0 8.058-6.532 14.59-14.59 14.59-8.057 0-14.589-6.532-14.589-14.59 0-8.057 6.532-14.589 14.589-14.589 8.058 0 14.59 6.532 14.59 14.589Zm87.535 0c0 8.058-6.532 14.59-14.589 14.59s-14.589-6.532-14.589-14.59c0-8.057 6.532-14.589 14.589-14.589s14.589 6.532 14.589 14.589Zm87.536 0c0 8.058-6.53 14.59-14.59 14.59-8.057 0-14.589-6.532-14.589-14.59 0-8.057 6.532-14.589 14.589-14.589 8.06 0 14.59 6.532 14.59 14.589Zm-787.821 87.536c0 8.058-6.532 14.589-14.59 14.589-8.057 0-14.589-6.531-14.589-14.589 0-8.057 6.532-14.589 14.589-14.589 8.058 0 14.59 6.532 14.59 14.589Zm87.535 0c0 8.058-6.532 14.589-14.589 14.589s-14.589-6.531-14.589-14.589c0-8.057 6.532-14.589 14.589-14.589s14.589 6.532 14.589 14.589Zm87.536 0c0 8.058-6.532 14.589-14.589 14.589-8.058 0-14.59-6.531-14.59-14.589 0-8.057 6.532-14.589 14.59-14.589 8.057 0 14.589 6.532 14.589 14.589Zm87.536 0c0 8.058-6.532 14.589-14.59 14.589-8.057 0-14.589-6.531-14.589-14.589 0-8.057 6.532-14.589 14.589-14.589 8.058 0 14.59 6.532 14.59 14.589Zm87.535 0c0 8.058-6.531 14.589-14.589 14.589-8.057 0-14.589-6.531-14.589-14.589 0-8.057 6.532-14.589 14.589-14.589 8.058 0 14.589 6.532 14.589 14.589Zm87.536 0c0 8.058-6.532 14.589-14.589 14.589-8.058 0-14.589-6.531-14.589-14.589 0-8.057 6.531-14.589 14.589-14.589 8.057 0 14.589 6.532 14.589 14.589Zm87.536 0c0 8.058-6.532 14.589-14.589 14.589-8.058 0-14.59-6.531-14.59-14.589 0-8.057 6.532-14.589 14.59-14.589 8.057 0 14.589 6.532 14.589 14.589Zm87.536 0c0 8.058-6.532 14.589-14.59 14.589-8.057 0-14.589-6.531-14.589-14.589 0-8.057 6.532-14.589 14.589-14.589 8.058 0 14.59 6.532 14.59 14.589Zm87.535 0c0 8.058-6.532 14.589-14.589 14.589s-14.589-6.531-14.589-14.589c0-8.057 6.532-14.589 14.589-14.589s14.589 6.532 14.589 14.589Zm87.536 0c0 8.058-6.53 14.589-14.59 14.589-8.057 0-14.589-6.531-14.589-14.589 0-8.057 6.532-14.589 14.589-14.589 8.06 0 14.59 6.532 14.59 14.589Zm-787.821 87.536c0 8.057-6.532 14.589-14.59 14.589-8.057 0-14.589-6.532-14.589-14.589 0-8.058 6.532-14.589 14.589-14.589 8.058 0 14.59 6.531 14.59 14.589Zm87.535 0c0 8.057-6.532 14.589-14.589 14.589s-14.589-6.532-14.589-14.589c0-8.058 6.532-14.589 14.589-14.589s14.589 6.531 14.589 14.589Zm87.536 0c0 8.057-6.532 14.589-14.589 14.589-8.058 0-14.59-6.532-14.59-14.589 0-8.058 6.532-14.589 14.59-14.589 8.057 0 14.589 6.531 14.589 14.589Zm87.536 0c0 8.057-6.532 14.589-14.59 14.589-8.057 0-14.589-6.532-14.589-14.589 0-8.058 6.532-14.589 14.589-14.589 8.058 0 14.59 6.531 14.59 14.589Zm87.535 0c0 8.057-6.531 14.589-14.589 14.589-8.057 0-14.589-6.532-14.589-14.589 0-8.058 6.532-14.589 14.589-14.589 8.058 0 14.589 6.531 14.589 14.589Zm87.536 0c0 8.057-6.532 14.589-14.589 14.589-8.058 0-14.589-6.532-14.589-14.589 0-8.058 6.531-14.589 14.589-14.589 8.057 0 14.589 6.531 14.589 14.589Zm87.536 0c0 8.057-6.532 14.589-14.589 14.589-8.058 0-14.59-6.532-14.59-14.589 0-8.058 6.532-14.589 14.59-14.589 8.057 0 14.589 6.531 14.589 14.589Zm87.536 0c0 8.057-6.532 14.589-14.59 14.589-8.057 0-14.589-6.532-14.589-14.589 0-8.058 6.532-14.589 14.589-14.589 8.058 0 14.59 6.531 14.59 14.589Zm87.535 0c0 8.057-6.532 14.589-14.589 14.589s-14.589-6.532-14.589-14.589c0-8.058 6.532-14.589 14.589-14.589s14.589 6.531 14.589 14.589Zm87.536 0c0 8.057-6.53 14.589-14.59 14.589-8.057 0-14.589-6.532-14.589-14.589 0-8.058 6.532-14.589 14.589-14.589 8.06 0 14.59 6.531 14.59 14.589Zm-787.821 87.536c0 8.057-6.532 14.589-14.59 14.589-8.057 0-14.589-6.532-14.589-14.589 0-8.058 6.532-14.59 14.589-14.59 8.058 0 14.59 6.532 14.59 14.59Zm87.535 0c0 8.057-6.532 14.589-14.589 14.589s-14.589-6.532-14.589-14.589c0-8.058 6.532-14.59 14.589-14.59s14.589 6.532 14.589 14.59Zm87.536 0c0 8.057-6.532 14.589-14.589 14.589-8.058 0-14.59-6.532-14.59-14.589 0-8.058 6.532-14.59 14.59-14.59 8.057 0 14.589 6.532 14.589 14.59Zm87.536 0c0 8.057-6.532 14.589-14.59 14.589-8.057 0-14.589-6.532-14.589-14.589 0-8.058 6.532-14.59 14.589-14.59 8.058 0 14.59 6.532 14.59 14.59Zm87.535 0c0 8.057-6.531 14.589-14.589 14.589-8.057 0-14.589-6.532-14.589-14.589 0-8.058 6.532-14.59 14.589-14.59 8.058 0 14.589 6.532 14.589 14.59Zm87.536 0c0 8.057-6.532 14.589-14.589 14.589-8.058 0-14.589-6.532-14.589-14.589 0-8.058 6.531-14.59 14.589-14.59 8.057 0 14.589 6.532 14.589 14.59Zm87.536 0c0 8.057-6.532 14.589-14.589 14.589-8.058 0-14.59-6.532-14.59-14.589 0-8.058 6.532-14.59 14.59-14.59 8.057 0 14.589 6.532 14.589 14.59Zm87.536 0c0 8.057-6.532 14.589-14.59 14.589-8.057 0-14.589-6.532-14.589-14.589 0-8.058 6.532-14.59 14.589-14.59 8.058 0 14.59 6.532 14.59 14.59Zm87.535 0c0 8.057-6.532 14.589-14.589 14.589s-14.589-6.532-14.589-14.589c0-8.058 6.532-14.59 14.589-14.59s14.589 6.532 14.589 14.59Zm87.536 0c0 8.057-6.53 14.589-14.59 14.589-8.057 0-14.589-6.532-14.589-14.589 0-8.058 6.532-14.59 14.589-14.59 8.06 0 14.59 6.532 14.59 14.59Zm-700.286 87.535c0 8.058-6.532 14.59-14.589 14.59s-14.589-6.532-14.589-14.59c0-8.057 6.532-14.589 14.589-14.589s14.589 6.532 14.589 14.589Zm87.536 0c0 8.058-6.532 14.59-14.589 14.59-8.058 0-14.59-6.532-14.59-14.59 0-8.057 6.532-14.589 14.59-14.589 8.057 0 14.589 6.532 14.589 14.589Zm87.536 0c0 8.058-6.532 14.59-14.59 14.59-8.057 0-14.589-6.532-14.589-14.59 0-8.057 6.532-14.589 14.589-14.589 8.058 0 14.59 6.532 14.59 14.589Zm87.535 0c0 8.058-6.531 14.59-14.589 14.59-8.057 0-14.589-6.532-14.589-14.59 0-8.057 6.532-14.589 14.589-14.589 8.058 0 14.589 6.532 14.589 14.589Zm87.536 0c0 8.058-6.532 14.59-14.589 14.59-8.058 0-14.589-6.532-14.589-14.59 0-8.057 6.531-14.589 14.589-14.589 8.057 0 14.589 6.532 14.589 14.589Zm87.536 0c0 8.058-6.532 14.59-14.589 14.59-8.058 0-14.59-6.532-14.59-14.59 0-8.057 6.532-14.589 14.59-14.589 8.057 0 14.589 6.532 14.589 14.589Zm87.536 0c0 8.058-6.532 14.59-14.59 14.59-8.057 0-14.589-6.532-14.589-14.59 0-8.057 6.532-14.589 14.589-14.589 8.058 0 14.59 6.532 14.59 14.589Zm87.535 0c0 8.058-6.532 14.59-14.589 14.59s-14.589-6.532-14.589-14.59c0-8.057 6.532-14.589 14.589-14.589s14.589 6.532 14.589 14.589ZM407.25 752.875c0 8.057-6.532 14.589-14.589 14.589-8.058 0-14.59-6.532-14.59-14.589s6.532-14.589 14.59-14.589c8.057 0 14.589 6.532 14.589 14.589Zm87.536 0c0 8.057-6.532 14.589-14.59 14.589-8.057 0-14.589-6.532-14.589-14.589s6.532-14.589 14.589-14.589c8.058 0 14.59 6.532 14.59 14.589Zm87.535 0c0 8.057-6.531 14.589-14.589 14.589-8.057 0-14.589-6.532-14.589-14.589s6.532-14.589 14.589-14.589c8.058 0 14.589 6.532 14.589 14.589Zm87.536 0c0 8.057-6.532 14.589-14.589 14.589-8.058 0-14.589-6.532-14.589-14.589s6.531-14.589 14.589-14.589c8.057 0 14.589 6.532 14.589 14.589Zm87.536 0c0 8.057-6.532 14.589-14.589 14.589-8.058 0-14.59-6.532-14.59-14.589s6.532-14.589 14.59-14.589c8.057 0 14.589 6.532 14.589 14.589Zm87.536 0c0 8.057-6.532 14.589-14.59 14.589-8.057 0-14.589-6.532-14.589-14.589s6.532-14.589 14.589-14.589c8.058 0 14.59 6.532 14.59 14.589Zm-350.143 87.536c0 8.057-6.532 14.589-14.59 14.589-8.057 0-14.589-6.532-14.589-14.589 0-8.058 6.532-14.59 14.589-14.59 8.058 0 14.59 6.532 14.59 14.59Zm87.535 0c0 8.057-6.531 14.589-14.589 14.589-8.057 0-14.589-6.532-14.589-14.589 0-8.058 6.532-14.59 14.589-14.59 8.058 0 14.589 6.532 14.589 14.59Zm87.536 0c0 8.057-6.532 14.589-14.589 14.589-8.058 0-14.589-6.532-14.589-14.589 0-8.058 6.531-14.59 14.589-14.59 8.057 0 14.589 6.532 14.589 14.59Zm87.536 0c0 8.057-6.532 14.589-14.589 14.589-8.058 0-14.59-6.532-14.59-14.589 0-8.058 6.532-14.59 14.59-14.59 8.057 0 14.589 6.532 14.589 14.59Z"/>
  </g>
</svg>
