<svg xmlns="http://www.w3.org/2000/svg" width="194" height="204" fill="none" viewBox="0 0 194 204">
  <g filter="url(#a)">
    <rect width="190" height="200" x="2" fill="#fff" rx="20"/>
  </g>
  <path fill="#000" d="M40.838 174v-18.909h6.38c1.231 0 2.256.215 3.075.646.824.431 1.443 1.019 1.855 1.764.413.745.619 1.591.619 2.539 0 .788-.132 1.462-.397 2.022a3.593 3.593 0 0 1-1.08 1.357 4.454 4.454 0 0 1-1.524.748v.148c.61.043 1.2.258 1.773.646.572.382 1.043.917 1.413 1.606.369.69.554 1.515.554 2.475 0 .954-.213 1.806-.637 2.557-.425.745-1.078 1.333-1.958 1.764-.874.425-1.988.637-3.342.637h-6.731Zm1.727-1.551h5.004c1.459 0 2.536-.323 3.231-.97.702-.646 1.053-1.458 1.053-2.437 0-.72-.175-1.373-.526-1.957a3.712 3.712 0 0 0-1.468-1.404c-.628-.345-1.367-.517-2.216-.517h-5.078v7.285Zm0-8.818h4.81c.745 0 1.397-.153 1.957-.461.56-.308.998-.733 1.311-1.274.314-.542.471-1.161.471-1.856 0-1.004-.326-1.819-.978-2.447-.653-.634-1.625-.951-2.918-.951h-4.653v6.989Zm20.278 10.664c-1.225 0-2.309-.31-3.25-.932-.936-.622-1.669-1.48-2.198-2.576-.53-1.102-.794-2.373-.794-3.813 0-1.453.265-2.73.794-3.832.53-1.108 1.262-1.97 2.197-2.585.942-.622 2.026-.933 3.25-.933 1.225 0 2.306.311 3.241.933.936.622 1.668 1.483 2.198 2.585.535 1.102.803 2.379.803 3.832 0 1.44-.265 2.711-.794 3.813-.53 1.096-1.265 1.954-2.207 2.576-.935.622-2.016.932-3.24.932Zm0-1.505c.984 0 1.818-.264 2.502-.794.683-.529 1.2-1.234 1.55-2.114.358-.88.536-1.85.536-2.908 0-1.059-.178-2.032-.535-2.918-.351-.886-.868-1.597-1.551-2.133-.684-.535-1.518-.803-2.502-.803-.98 0-1.813.268-2.503.803-.683.536-1.203 1.247-1.56 2.133-.35.886-.526 1.859-.526 2.918 0 1.058.175 2.028.526 2.908.357.88.877 1.585 1.56 2.114.684.53 1.518.794 2.502.794Zm15.36 1.505c-1.224 0-2.307-.31-3.25-.932-.935-.622-1.667-1.48-2.197-2.576-.529-1.102-.794-2.373-.794-3.813 0-1.453.265-2.73.794-3.832.53-1.108 1.262-1.97 2.198-2.585.942-.622 2.025-.933 3.25-.933s2.305.311 3.24.933c.936.622 1.669 1.483 2.198 2.585.535 1.102.803 2.379.803 3.832 0 1.44-.264 2.711-.794 3.813-.53 1.096-1.265 1.954-2.206 2.576-.936.622-2.016.932-3.241.932Zm0-1.505c.986 0 1.82-.264 2.503-.794.683-.529 1.2-1.234 1.551-2.114.357-.88.536-1.85.536-2.908 0-1.059-.179-2.032-.536-2.918-.35-.886-.868-1.597-1.551-2.133-.683-.535-1.517-.803-2.502-.803-.979 0-1.813.268-2.502.803-.684.536-1.204 1.247-1.56 2.133-.352.886-.527 1.859-.527 2.918 0 1.058.175 2.028.526 2.908.357.88.877 1.585 1.56 2.114.684.53 1.518.794 2.503.794Zm15.436-12.972v1.431h-6.768v-1.431h6.768Zm-4.653-3.398h1.652v13.878c0 .59.102 1.055.305 1.394.203.332.468.569.794.711a2.7 2.7 0 0 0 1.043.203c.216 0 .4-.012.554-.037a8 8 0 0 0 .406-.092l.351 1.486c-.16.062-.357.117-.59.166a3.804 3.804 0 0 1-.868.083 4.034 4.034 0 0 1-1.745-.397 3.409 3.409 0 0 1-1.367-1.181c-.357-.524-.535-1.173-.535-1.949V156.42Zm17.66 6.51-1.505.424a3.973 3.973 0 0 0-.628-1.154 2.857 2.857 0 0 0-1.062-.821c-.431-.204-.966-.305-1.606-.305-.96 0-1.748.228-2.364.683-.615.456-.923 1.043-.923 1.764 0 .609.21 1.104.628 1.486.424.376 1.077.674 1.957.896l2.142.526c1.188.289 2.078.748 2.668 1.376.598.628.896 1.415.896 2.363 0 .801-.222 1.511-.665 2.133-.443.622-1.062 1.111-1.856 1.468-.787.351-1.702.526-2.742.526-1.385 0-2.526-.31-3.425-.932-.899-.628-1.474-1.533-1.727-2.715l1.58-.387c.202.843.6 1.48 1.19 1.911.597.431 1.382.646 2.355.646 1.089 0 1.96-.243 2.612-.729.653-.493.979-1.108.979-1.847 0-.572-.191-1.052-.572-1.44-.382-.394-.961-.683-1.736-.868l-2.318-.554c-1.23-.295-2.142-.763-2.733-1.403-.59-.641-.886-1.435-.886-2.383 0-.781.213-1.468.637-2.058.425-.598 1.01-1.065 1.754-1.404.745-.338 1.595-.508 2.549-.508 1.299 0 2.336.296 3.111.887.782.584 1.345 1.391 1.69 2.419Zm9.388-3.112v1.431h-6.768v-1.431h6.768Zm-4.654-3.398h1.653v13.878c0 .59.101 1.055.304 1.394.204.332.468.569.795.711a2.7 2.7 0 0 0 1.043.203c.215 0 .4-.012.554-.037.154-.031.289-.062.406-.092l.351 1.486c-.16.062-.357.117-.591.166a3.803 3.803 0 0 1-.868.083 4.034 4.034 0 0 1-1.745-.397 3.407 3.407 0 0 1-1.366-1.181c-.357-.524-.536-1.173-.536-1.949V156.42Zm8.386 17.58v-14.182h1.597v2.179h.12c.283-.714.776-1.289 1.478-1.726.707-.444 1.508-.665 2.4-.665a16.21 16.21 0 0 1 .868.028v1.671a12.287 12.287 0 0 0-.388-.056 4.645 4.645 0 0 0-.6-.037c-.739 0-1.397.157-1.976.471a3.492 3.492 0 0 0-1.357 1.284c-.332.547-.499 1.172-.499 1.874V174h-1.643Zm13.228.323c-.855 0-1.637-.166-2.345-.498a4.1 4.1 0 0 1-1.689-1.459c-.419-.64-.628-1.416-.628-2.327 0-.702.132-1.293.397-1.773a3.23 3.23 0 0 1 1.126-1.181c.487-.308 1.062-.551 1.727-.73a16.068 16.068 0 0 1 2.197-.415c.794-.099 1.465-.185 2.013-.259.554-.074.976-.191 1.265-.351.289-.16.434-.418.434-.775v-.333c0-.966-.289-1.726-.868-2.28-.572-.56-1.397-.84-2.474-.84-1.022 0-1.856.224-2.503.674-.64.449-1.089.978-1.348 1.588l-1.56-.564c.32-.775.763-1.394 1.33-1.855a5.24 5.24 0 0 1 1.902-1.007 7.427 7.427 0 0 1 2.132-.314c.542 0 1.105.071 1.69.213a4.815 4.815 0 0 1 1.644.738c.504.345.914.828 1.227 1.45.314.615.471 1.397.471 2.345V174h-1.643v-2.244h-.102a4.454 4.454 0 0 1-.877 1.219c-.388.394-.874.717-1.459.97-.584.252-1.271.378-2.059.378Zm.222-1.505c.874 0 1.631-.194 2.271-.581a3.991 3.991 0 0 0 1.478-1.542c.35-.647.526-1.358.526-2.133v-2.05c-.123.117-.329.222-.619.314a8.585 8.585 0 0 1-.988.249c-.369.068-.738.126-1.108.176-.369.049-.701.092-.997.129-.8.098-1.483.252-2.049.462-.567.209-1.001.498-1.302.868-.302.363-.453.83-.453 1.403 0 .862.308 1.53.924 2.003.615.468 1.388.702 2.317.702Zm10.29 6.5v-19.5h1.597v2.705h.194c.197-.424.468-.858.813-1.301.345-.45.8-.828 1.366-1.136.573-.308 1.293-.462 2.161-.462 1.169 0 2.191.308 3.065.924.88.609 1.564 1.465 2.05 2.566.492 1.096.739 2.373.739 3.832 0 1.465-.247 2.748-.739 3.85-.486 1.102-1.17 1.961-2.05 2.576-.874.616-1.889.923-3.047.923-.855 0-1.572-.153-2.151-.461a4.439 4.439 0 0 1-1.394-1.136 6.56 6.56 0 0 1-.813-1.329h-.147v7.949h-1.644Zm1.625-12.4c0 1.145.169 2.161.508 3.047.345.88.837 1.573 1.477 2.078.647.498 1.428.747 2.345.747.942 0 1.736-.258 2.383-.775.652-.523 1.147-1.228 1.486-2.114.345-.887.517-1.881.517-2.983 0-1.089-.169-2.071-.508-2.945-.332-.874-.825-1.567-1.477-2.077-.652-.517-1.453-.776-2.401-.776-.923 0-1.708.249-2.354.748-.646.492-1.139 1.176-1.477 2.05-.333.868-.499 1.868-.499 3Z"/>
  <path fill="#7E13F8" d="M60.079 36c-7.164 0-12.466 6.27-12.228 13.068.228 6.532-.068 14.992-2.198 21.89-2.137 6.92-5.75 11.302-11.653 11.865v6.354c5.902.563 9.516 4.945 11.653 11.865 2.13 6.899 2.426 15.358 2.198 21.89C47.613 129.73 52.915 136 60.08 136h73.409c7.165 0 12.465-6.269 12.228-13.068-.228-6.532.068-14.991 2.198-21.89 2.138-6.92 5.742-11.303 11.644-11.865v-6.354c-5.902-.563-9.506-4.945-11.644-11.864-2.13-6.898-2.426-15.359-2.198-21.89C145.954 42.27 140.654 36 133.489 36h-73.41Zm59.046 61.556c0 9.362-6.984 15.04-18.575 15.04H80.819a2.133 2.133 0 0 1-2.128-2.128V61.532a2.127 2.127 0 0 1 2.128-2.128h19.618c9.665 0 16.008 5.234 16.008 13.27 0 5.641-4.267 10.69-9.703 11.575v.295c7.401.811 12.383 5.935 12.383 13.012ZM98.398 66.15h-11.25v15.887h9.476c7.325 0 11.364-2.949 11.364-8.22 0-4.94-3.474-7.667-9.59-7.667Zm-11.25 22.19v17.508h11.665c7.625 0 11.666-3.06 11.666-8.81s-4.153-8.7-12.157-8.7l-11.174.002Z"/>
  <defs>
    <filter id="a" width="194" height="204" x="0" y="0" color-interpolation-filters="sRGB" filterUnits="userSpaceOnUse">
      <feFlood flood-opacity="0" result="BackgroundImageFix"/>
      <feColorMatrix in="SourceAlpha" result="hardAlpha" values="0 0 0 0 0 0 0 0 0 0 0 0 0 0 0 0 0 0 127 0"/>
      <feOffset dy="2"/>
      <feGaussianBlur stdDeviation="1"/>
      <feComposite in2="hardAlpha" operator="out"/>
      <feColorMatrix values="0 0 0 0 0 0 0 0 0 0 0 0 0 0 0 0 0 0 0.25 0"/>
      <feBlend in2="BackgroundImageFix" result="effect1_dropShadow_264_529"/>
      <feBlend in="SourceGraphic" in2="effect1_dropShadow_264_529" result="shape"/>
    </filter>
  </defs>
</svg>
