<svg xmlns="http://www.w3.org/2000/svg" width="194" height="204" fill="none" viewBox="0 0 194 204">
  <g filter="url(#a)">
    <rect width="190" height="200" x="2" fill="#fff" rx="20"/>
  </g>
  <path fill="#000" d="M83.447 174h-5.54v-18.909h5.873c1.803 0 3.345.375 4.625 1.126 1.287.751 2.272 1.828 2.955 3.232.683 1.403 1.025 3.087 1.025 5.05 0 1.982-.351 3.684-1.053 5.106-.695 1.416-1.711 2.502-3.047 3.259-1.33.757-2.942 1.136-4.838 1.136Zm-3.813-1.551h3.712c1.625 0 2.985-.32 4.08-.96 1.096-.641 1.918-1.555 2.466-2.743.548-1.188.822-2.603.822-4.247-.007-1.631-.278-3.034-.813-4.21-.53-1.176-1.317-2.077-2.364-2.705-1.04-.628-2.326-.942-3.859-.942h-4.044v15.807Zm20.555 1.874c-.856 0-1.637-.166-2.345-.498a4.105 4.105 0 0 1-1.69-1.459c-.419-.64-.628-1.416-.628-2.327 0-.702.133-1.293.397-1.773.265-.48.64-.874 1.127-1.181.486-.308 1.061-.551 1.726-.73a16.048 16.048 0 0 1 2.198-.415c.794-.099 1.465-.185 2.012-.259.554-.074.976-.191 1.265-.351.29-.16.434-.418.434-.775v-.333c0-.966-.289-1.726-.868-2.28-.572-.56-1.397-.84-2.474-.84-1.022 0-1.856.224-2.502.674-.64.449-1.09.978-1.348 1.588l-1.56-.564c.32-.775.763-1.394 1.329-1.855a5.244 5.244 0 0 1 1.902-1.007 7.438 7.438 0 0 1 2.133-.314 7.15 7.15 0 0 1 1.689.213 4.815 4.815 0 0 1 1.644.738c.505.345.914.828 1.228 1.45.314.615.471 1.397.471 2.345V174h-1.644v-2.244h-.101c-.197.419-.49.825-.877 1.219-.388.394-.875.717-1.459.97-.585.252-1.271.378-2.059.378Zm.221-1.505c.874 0 1.632-.194 2.272-.581a3.996 3.996 0 0 0 1.477-1.542 4.4 4.4 0 0 0 .526-2.133v-2.05c-.123.117-.329.222-.618.314a8.692 8.692 0 0 1-.988.249c-.37.068-.739.126-1.108.176-.37.049-.702.092-.997.129-.801.098-1.484.252-2.05.462-.566.209-1 .498-1.302.868-.302.363-.452.83-.452 1.403 0 .862.307 1.53.923 2.003.615.468 1.388.702 2.317.702ZM110.701 174v-14.182h1.597v2.179h.12c.283-.714.775-1.289 1.477-1.726.708-.444 1.508-.665 2.401-.665a16.316 16.316 0 0 1 .868.028v1.671a12.755 12.755 0 0 0-.388-.056 4.668 4.668 0 0 0-.6-.037c-.739 0-1.398.157-1.976.471a3.486 3.486 0 0 0-1.357 1.284c-.333.547-.499 1.172-.499 1.874V174h-1.643Zm15.742-14.182v1.431h-6.768v-1.431h6.768Zm-4.654-3.398h1.653v13.878c0 .59.102 1.055.305 1.394.203.332.467.569.794.711a2.7 2.7 0 0 0 1.043.203c.215 0 .4-.012.554-.037.154-.031.289-.062.406-.092l.351 1.486c-.16.062-.357.117-.591.166a3.803 3.803 0 0 1-.868.083 4.034 4.034 0 0 1-1.745-.397 3.407 3.407 0 0 1-1.366-1.181c-.357-.524-.536-1.173-.536-1.949V156.42Z"/>
  <g clip-path="url(#b)">
    <path fill="#01579B" d="M69.183 114.606 53.09 97.498c-1.908-2.08-3.09-5.021-3.09-7.896 0-1.33.705-3.41 1.238-4.602L66.09 52.108l3.092 62.498Z"/>
    <path fill="#40C4FF" d="M124.262 55.394 108.17 38.286c-1.404-1.5-4.329-3.286-6.805-3.286-2.13 0-4.218.456-5.566 1.316l-29.7 15.792 58.163 3.286ZM88.365 135h38.988v-17.762l-29.085-9.874-26.61 9.874L88.365 135Z"/>
    <path fill="#29B6F6" d="M66.091 105.394c0 5.279.623 6.573 3.091 9.212l2.476 2.632h55.694l-27.224-32.892-34.037-32.239v53.288-.001Z"/>
    <path fill="#01579B" d="M115.597 52.1H66.091l61.261 65.13h16.707V76.442l-19.805-21.055c-2.78-2.963-5.248-3.287-8.657-3.287Z"/>
    <path fill="#fff" d="M69.805 115.26c-2.476-2.639-3.091-5.242-3.091-9.866V52.762l-.616-.655v53.287c-.007 4.624-.007 5.903 3.707 9.866l1.853 1.97-1.853-1.97Z" opacity=".2"/>
    <path fill="#263238" d="M143.444 75.788v40.788h-16.707l.615.662h16.707V76.443l-.615-.655Z" opacity=".2"/>
    <path fill="#fff" d="M124.262 55.394c-3.071-3.264-5.581-3.286-9.28-3.286H66.099l.615.654h48.268c1.846 0 6.507-.33 9.28 2.632Z" opacity=".2"/>
    <path fill="url(#c)" d="m143.444 75.788-19.182-20.394-16.092-17.107c-1.403-1.5-4.329-3.287-6.805-3.287-2.13 0-4.218.456-5.566 1.316L66.1 52.108 51.245 85c-.533 1.198-1.238 3.279-1.238 4.602 0 2.875 1.19 5.808 3.091 7.896l14.826 15.652a18.7 18.7 0 0 0 1.259 1.456l.615.654 1.853 1.97 16.092 17.108.616.655h38.979v-17.762h16.707V76.442l-.601-.654Z" opacity=".2"/>
  </g>
  <defs>
    <radialGradient id="c" cx="0" cy="0" r="1" gradientTransform="matrix(47.023 0 0 49.9928 97.026 84.99)" gradientUnits="userSpaceOnUse">
      <stop stop-color="#fff" stop-opacity=".1"/>
      <stop offset="1" stop-color="#fff" stop-opacity="0"/>
    </radialGradient>
    <clipPath id="b">
      <path fill="#fff" d="M0 0h94.059v100H0z" transform="translate(50 35)"/>
    </clipPath>
    <filter id="a" width="194" height="204" x="0" y="0" color-interpolation-filters="sRGB" filterUnits="userSpaceOnUse">
      <feFlood flood-opacity="0" result="BackgroundImageFix"/>
      <feColorMatrix in="SourceAlpha" result="hardAlpha" values="0 0 0 0 0 0 0 0 0 0 0 0 0 0 0 0 0 0 127 0"/>
      <feOffset dy="2"/>
      <feGaussianBlur stdDeviation="1"/>
      <feComposite in2="hardAlpha" operator="out"/>
      <feColorMatrix values="0 0 0 0 0 0 0 0 0 0 0 0 0 0 0 0 0 0 0.25 0"/>
      <feBlend in2="BackgroundImageFix" result="effect1_dropShadow_147_1632"/>
      <feBlend in="SourceGraphic" in2="effect1_dropShadow_147_1632" result="shape"/>
    </filter>
  </defs>
</svg>
