<svg xmlns="http://www.w3.org/2000/svg" width="194" height="204" fill="none" viewBox="0 0 194 204">
  <g filter="url(#a)">
    <rect width="190" height="200" x="2" fill="#fff" rx="20"/>
  </g>
  <path fill="#000" d="M66.511 174v-18.909h10.941v1.551h-9.214v7.119h8.356v1.551h-8.356V174H66.51Zm14.912 0v-14.182h1.652V174h-1.652Zm.84-16.619c-.339 0-.628-.114-.868-.342a1.132 1.132 0 0 1-.36-.84c0-.326.12-.603.36-.831a1.2 1.2 0 0 1 .868-.351 1.2 1.2 0 0 1 .868.351c.24.228.36.505.36.831 0 .326-.12.606-.36.84-.24.228-.53.342-.868.342Zm10.57 22.233c-.967 0-1.814-.127-2.54-.379-.726-.246-1.339-.585-1.837-1.016a4.868 4.868 0 0 1-1.164-1.449l1.348-.886c.204.357.474.707.813 1.052.345.345.79.631 1.339.859.554.227 1.234.341 2.04.341 1.256 0 2.268-.314 3.038-.941.775-.628 1.163-1.604 1.163-2.927v-3.195h-.148a5.59 5.59 0 0 1-.821 1.293c-.357.424-.825.778-1.404 1.062-.572.283-1.283.424-2.132.424-1.133 0-2.14-.28-3.02-.84-.874-.56-1.563-1.36-2.068-2.4-.498-1.047-.748-2.293-.748-3.74 0-1.434.243-2.696.73-3.785.492-1.09 1.178-1.939 2.059-2.549.88-.609 1.905-.914 3.074-.914.868 0 1.588.154 2.16.462.573.302 1.032.677 1.376 1.126.351.45.625.887.822 1.311h.166v-2.705h1.607v14.551c0 1.201-.256 2.189-.766 2.964a4.537 4.537 0 0 1-2.087 1.717c-.88.376-1.88.564-3 .564Zm-.112-7.267c.911 0 1.69-.218 2.336-.655.647-.443 1.142-1.077 1.487-1.902.345-.825.517-1.807.517-2.946 0-1.107-.17-2.089-.508-2.945-.338-.862-.83-1.539-1.477-2.031-.64-.499-1.425-.748-2.355-.748-.948 0-1.748.255-2.4.766-.653.511-1.145 1.201-1.477 2.069-.333.861-.499 1.825-.499 2.889 0 1.084.17 2.041.508 2.872.338.825.834 1.471 1.486 1.939.653.461 1.447.692 2.382.692ZM103.037 174v-14.182h1.597v2.179h.148a3.478 3.478 0 0 1 1.413-1.726c.664-.425 1.461-.637 2.391-.637.979 0 1.782.23 2.41.692.634.455 1.108 1.083 1.422 1.884h.12a3.94 3.94 0 0 1 1.56-1.875c.726-.468 1.607-.701 2.641-.701 1.317 0 2.357.415 3.12 1.246.764.825 1.145 2.031 1.145 3.619V174h-1.643v-9.501c0-1.12-.286-1.96-.859-2.52-.572-.56-1.326-.841-2.262-.841-1.083 0-1.917.333-2.502.998-.585.664-.877 1.508-.877 2.529V174h-1.681v-9.648c0-.961-.267-1.736-.803-2.327-.535-.591-1.289-.887-2.262-.887-.652 0-1.24.161-1.763.481-.517.32-.927.766-1.228 1.338-.296.567-.444 1.219-.444 1.958V174h-1.643Zm26.279.323c-.855 0-1.637-.166-2.345-.498a4.108 4.108 0 0 1-1.69-1.459c-.418-.64-.627-1.416-.627-2.327 0-.702.132-1.293.397-1.773.264-.48.64-.874 1.126-1.181.486-.308 1.062-.551 1.727-.73a16.04 16.04 0 0 1 2.197-.415c.794-.099 1.465-.185 2.013-.259.554-.074.975-.191 1.265-.351.289-.16.434-.418.434-.775v-.333c0-.966-.29-1.726-.868-2.28-.573-.56-1.397-.84-2.475-.84-1.021 0-1.855.224-2.502.674-.64.449-1.089.978-1.348 1.588l-1.56-.564c.32-.775.763-1.394 1.329-1.855a5.256 5.256 0 0 1 1.902-1.007 7.439 7.439 0 0 1 2.133-.314c.542 0 1.105.071 1.69.213a4.802 4.802 0 0 1 1.643.738c.505.345.914.828 1.228 1.45.314.615.471 1.397.471 2.345V174h-1.643v-2.244h-.102a4.454 4.454 0 0 1-.877 1.219c-.388.394-.874.717-1.459.97-.585.252-1.271.378-2.059.378Zm.222-1.505c.874 0 1.631-.194 2.271-.581a3.989 3.989 0 0 0 1.477-1.542 4.4 4.4 0 0 0 .527-2.133v-2.05c-.123.117-.33.222-.619.314a8.585 8.585 0 0 1-.988.249c-.369.068-.738.126-1.108.176-.369.049-.702.092-.997.129-.8.098-1.483.252-2.05.462-.566.209-1 .498-1.302.868-.301.363-.452.83-.452 1.403 0 .862.308 1.53.923 2.003.616.468 1.388.702 2.318.702Z"/>
  <g clip-path="url(#b)">
    <path fill="#0ACF83" d="M80.658 135c9.195 0 16.658-7.467 16.658-16.667v-16.666H80.658c-9.195 0-16.658 7.466-16.658 16.666S71.463 135 80.658 135Z"/>
    <path fill="#A259FF" d="M64 85c0-9.2 7.463-16.667 16.658-16.667h16.658v33.334H80.658C71.463 101.667 64 94.2 64 85Z"/>
    <path fill="#F24E1E" d="M64 51.667C64 42.467 71.463 35 80.658 35h16.658v33.333H80.658C71.463 68.333 64 60.867 64 51.667Z"/>
    <path fill="#FF7262" d="M97.316 35h16.658c9.195 0 16.658 7.467 16.658 16.667 0 9.2-7.463 16.666-16.658 16.666H97.316V35Z"/>
    <path fill="#1ABCFE" d="M130.632 85c0 9.2-7.463 16.667-16.658 16.667S97.316 94.2 97.316 85c0-9.2 7.463-16.667 16.658-16.667S130.632 75.8 130.632 85Z"/>
  </g>
  <defs>
    <clipPath id="b">
      <path fill="#fff" d="M0 0h66.632v100H0z" transform="translate(64 35)"/>
    </clipPath>
    <filter id="a" width="194" height="204" x="0" y="0" color-interpolation-filters="sRGB" filterUnits="userSpaceOnUse">
      <feFlood flood-opacity="0" result="BackgroundImageFix"/>
      <feColorMatrix in="SourceAlpha" result="hardAlpha" values="0 0 0 0 0 0 0 0 0 0 0 0 0 0 0 0 0 0 127 0"/>
      <feOffset dy="2"/>
      <feGaussianBlur stdDeviation="1"/>
      <feComposite in2="hardAlpha" operator="out"/>
      <feColorMatrix values="0 0 0 0 0 0 0 0 0 0 0 0 0 0 0 0 0 0 0.25 0"/>
      <feBlend in2="BackgroundImageFix" result="effect1_dropShadow_264_532"/>
      <feBlend in="SourceGraphic" in2="effect1_dropShadow_264_532" result="shape"/>
    </filter>
  </defs>
</svg>
