<svg xmlns="http://www.w3.org/2000/svg" width="194" height="204" fill="none" viewBox="0 0 194 204">
  <g filter="url(#a)">
    <rect width="190" height="200" x="2" fill="#fff" rx="20"/>
  </g>
  <path fill="#000" d="M61.888 174v-18.909h10.94v1.551h-9.214v7.119h8.356v1.551h-8.356V174h-1.726Zm16.536-18.909V174h-1.643v-18.909h1.643Zm13.36 13.489v-8.762h1.644V174h-1.644v-2.354h-.13c-.331.726-.858 1.332-1.578 1.818-.72.481-1.6.721-2.64.721-.905 0-1.709-.197-2.41-.591-.702-.4-1.253-.985-1.653-1.755-.4-.769-.6-1.714-.6-2.834v-9.187h1.643v9.085c0 1.108.327 2.001.979 2.678.652.671 1.49 1.006 2.511 1.006.64 0 1.256-.154 1.847-.461a3.823 3.823 0 0 0 1.459-1.348c.381-.597.572-1.33.572-2.198Zm11.581-8.762v1.431h-6.768v-1.431h6.768Zm-4.654-3.398h1.653v13.878c0 .59.101 1.055.305 1.394.203.332.467.569.794.711a2.7 2.7 0 0 0 1.043.203c.215 0 .4-.012.554-.037.154-.031.289-.062.406-.092l.351 1.486c-.16.062-.357.117-.591.166a3.803 3.803 0 0 1-.868.083 4.034 4.034 0 0 1-1.745-.397 3.408 3.408 0 0 1-1.366-1.181c-.357-.524-.536-1.173-.536-1.949V156.42Zm13.972 3.398v1.431h-6.768v-1.431h6.768Zm-4.653-3.398h1.652v13.878c0 .59.102 1.055.305 1.394.203.332.468.569.794.711a2.7 2.7 0 0 0 1.043.203c.216 0 .4-.012.554-.037.154-.031.29-.062.406-.092l.351 1.486c-.16.062-.357.117-.591.166a3.794 3.794 0 0 1-.867.083 4.031 4.031 0 0 1-1.745-.397 3.41 3.41 0 0 1-1.367-1.181c-.357-.524-.535-1.173-.535-1.949V156.42Zm13.967 17.875c-1.324 0-2.469-.307-3.435-.923-.966-.622-1.714-1.48-2.244-2.576-.523-1.102-.784-2.37-.784-3.804 0-1.428.261-2.696.784-3.804.53-1.114 1.259-1.985 2.189-2.613.935-.634 2.015-.951 3.24-.951.77 0 1.512.142 2.226.425a5.407 5.407 0 0 1 1.92 1.283c.572.573 1.025 1.296 1.357 2.17.333.868.499 1.896.499 3.084v.812h-11.08v-1.449h9.399c0-.911-.184-1.73-.554-2.456a4.307 4.307 0 0 0-1.523-1.736c-.646-.425-1.394-.637-2.244-.637-.898 0-1.689.24-2.372.72a4.943 4.943 0 0 0-1.607 1.902 5.937 5.937 0 0 0-.582 2.585v.868c0 1.127.194 2.112.582 2.955.394.837.951 1.486 1.671 1.948.72.462 1.573.692 2.558.692.671 0 1.258-.104 1.763-.313.511-.21.939-.49 1.284-.841a3.76 3.76 0 0 0 .794-1.172l1.56.508a4.575 4.575 0 0 1-1.062 1.652c-.486.505-1.095.911-1.828 1.219-.726.302-1.563.452-2.511.452Zm9.373-.295v-14.182h1.598v2.179h.12c.283-.714.775-1.289 1.477-1.726.708-.444 1.508-.665 2.401-.665a15.995 15.995 0 0 1 .867.028v1.671a12.098 12.098 0 0 0-.387-.056 4.668 4.668 0 0 0-.6-.037c-.739 0-1.398.157-1.976.471a3.495 3.495 0 0 0-1.358 1.284c-.332.547-.498 1.172-.498 1.874V174h-1.644Z"/>
  <g clip-path="url(#b)">
    <path fill="#47C5FB" d="M95.625 35 49.03 84.738l14.422 15.394 61.018-65.13H95.625ZM95.3 80.868l-24.948 26.63 14.476 15.683 14.396-15.366 25.246-26.947H95.3Z"/>
    <path fill="#00569E" d="m84.829 123.18 10.959 11.698h28.682l-25.246-27.064-14.395 15.366Z"/>
    <path fill="#00B5F8" d="m70.19 107.67 14.422-15.395 14.612 15.539-14.395 15.366-14.64-15.51Z"/>
    <path fill="url(#c)" fill-opacity=".8" d="m84.829 123.18 11.986-4.246 1.191-9.82L84.83 123.18Z"/>
  </g>
  <defs>
    <linearGradient id="c" x1="85.349" x2="94.965" y1="112.911" y2="116.157" gradientUnits="userSpaceOnUse">
      <stop/>
      <stop offset="1" stop-opacity="0"/>
    </linearGradient>
    <clipPath id="b">
      <path fill="#fff" d="M0 0h75.656v100H0z" transform="translate(49.03 35)"/>
    </clipPath>
    <filter id="a" width="194" height="204" x="0" y="0" color-interpolation-filters="sRGB" filterUnits="userSpaceOnUse">
      <feFlood flood-opacity="0" result="BackgroundImageFix"/>
      <feColorMatrix in="SourceAlpha" result="hardAlpha" values="0 0 0 0 0 0 0 0 0 0 0 0 0 0 0 0 0 0 127 0"/>
      <feOffset dy="2"/>
      <feGaussianBlur stdDeviation="1"/>
      <feComposite in2="hardAlpha" operator="out"/>
      <feColorMatrix values="0 0 0 0 0 0 0 0 0 0 0 0 0 0 0 0 0 0 0.25 0"/>
      <feBlend in2="BackgroundImageFix" result="effect1_dropShadow_147_1649"/>
      <feBlend in="SourceGraphic" in2="effect1_dropShadow_147_1649" result="shape"/>
    </filter>
  </defs>
</svg>
