<svg xmlns="http://www.w3.org/2000/svg" width="194" height="204" fill="none" viewBox="0 0 194 204">
  <g filter="url(#a)">
    <rect width="190" height="200" x="2" fill="#fff" rx="20"/>
  </g>
  <path fill="#000" d="M55.511 174v-18.909h10.941v1.551h-9.214v7.119h8.356v1.551h-8.356V174H55.51Zm14.74 0v-14.182h1.598v2.179h.12c.283-.714.776-1.289 1.477-1.726.708-.444 1.508-.665 2.4-.665a16.166 16.166 0 0 1 .868.028v1.671a12.32 12.32 0 0 0-.387-.056 4.662 4.662 0 0 0-.6-.037c-.739 0-1.397.157-1.976.471a3.493 3.493 0 0 0-1.357 1.284c-.333.547-.499 1.172-.499 1.874V174h-1.643Zm13.23.323c-.856 0-1.638-.166-2.346-.498a4.106 4.106 0 0 1-1.69-1.459c-.418-.64-.627-1.416-.627-2.327 0-.702.132-1.293.397-1.773.264-.48.64-.874 1.126-1.181.486-.308 1.062-.551 1.727-.73a16.065 16.065 0 0 1 2.197-.415 205.47 205.47 0 0 0 2.013-.259c.554-.074.975-.191 1.265-.351.29-.16.434-.418.434-.775v-.333c0-.966-.29-1.726-.868-2.28-.573-.56-1.397-.84-2.475-.84-1.021 0-1.855.224-2.502.674-.64.449-1.09.978-1.348 1.588l-1.56-.564c.32-.775.763-1.394 1.33-1.855a5.244 5.244 0 0 1 1.901-1.007 7.435 7.435 0 0 1 2.133-.314c.542 0 1.105.071 1.69.213a4.81 4.81 0 0 1 1.643.738c.505.345.914.828 1.228 1.45.314.615.471 1.397.471 2.345V174h-1.643v-2.244h-.102c-.197.419-.49.825-.877 1.219-.388.394-.874.717-1.459.97-.585.252-1.27.378-2.059.378Zm.22-1.505c.875 0 1.632-.194 2.272-.581a3.994 3.994 0 0 0 1.478-1.542c.35-.647.526-1.358.526-2.133v-2.05c-.123.117-.33.222-.619.314a8.615 8.615 0 0 1-.988.249 23.6 23.6 0 0 1-1.108.176c-.37.049-.701.092-.997.129-.8.098-1.483.252-2.05.462-.566.209-1 .498-1.302.868-.301.363-.452.83-.452 1.403 0 .862.308 1.53.923 2.003.616.468 1.388.702 2.318.702ZM93.993 174v-14.182h1.597v2.179h.148a3.48 3.48 0 0 1 1.413-1.726c.664-.425 1.462-.637 2.391-.637.979 0 1.782.23 2.41.692.634.455 1.108 1.083 1.422 1.884h.12a3.94 3.94 0 0 1 1.56-1.875c.726-.468 1.607-.701 2.641-.701 1.317 0 2.357.415 3.12 1.246.764.825 1.145 2.031 1.145 3.619V174h-1.643v-9.501c0-1.12-.286-1.96-.859-2.52-.572-.56-1.326-.841-2.262-.841-1.083 0-1.917.333-2.502.998-.585.664-.877 1.508-.877 2.529V174h-1.681v-9.648c0-.961-.267-1.736-.803-2.327-.535-.591-1.289-.887-2.262-.887-.652 0-1.24.161-1.763.481-.517.32-.927.766-1.228 1.338-.296.567-.444 1.219-.444 1.958V174h-1.643Zm28.052.295c-1.323 0-2.468-.307-3.435-.923-.966-.622-1.714-1.48-2.243-2.576-.523-1.102-.785-2.37-.785-3.804 0-1.428.262-2.696.785-3.804.529-1.114 1.259-1.985 2.188-2.613.936-.634 2.016-.951 3.241-.951.769 0 1.511.142 2.225.425a5.407 5.407 0 0 1 1.92 1.283c.573.573 1.025 1.296 1.358 2.17.332.868.498 1.896.498 3.084v.812h-11.079v-1.449h9.399c0-.911-.185-1.73-.554-2.456a4.302 4.302 0 0 0-1.524-1.736c-.646-.425-1.394-.637-2.243-.637-.899 0-1.69.24-2.373.72a4.952 4.952 0 0 0-1.607 1.902 5.95 5.95 0 0 0-.581 2.585v.868c0 1.127.194 2.112.581 2.955.394.837.951 1.486 1.672 1.948.72.462 1.572.692 2.557.692.671 0 1.259-.104 1.764-.313a3.744 3.744 0 0 0 2.077-2.013l1.56.508a4.585 4.585 0 0 1-1.061 1.652c-.487.505-1.096.911-1.829 1.219-.726.302-1.563.452-2.511.452Zm9.374-.295v-14.182h1.597v2.179h.12c.283-.714.776-1.289 1.477-1.726.708-.444 1.508-.665 2.401-.665a16.1 16.1 0 0 1 .868.028v1.671a12.287 12.287 0 0 0-.388-.056 4.668 4.668 0 0 0-.6-.037c-.739 0-1.397.157-1.976.471a3.492 3.492 0 0 0-1.357 1.284c-.333.547-.499 1.172-.499 1.874V174h-1.643Z"/>
  <path fill="#000" fill-opacity=".5" d="M97.333 136V69.333H64v33.334L97.333 136Z"/>
  <path fill="#000" d="M130.667 69.333V36H64l33.333 33.333H64v33.334h66.667L97.333 69.333h33.334Z"/>
  <defs>
    <filter id="a" width="194" height="204" x="0" y="0" color-interpolation-filters="sRGB" filterUnits="userSpaceOnUse">
      <feFlood flood-opacity="0" result="BackgroundImageFix"/>
      <feColorMatrix in="SourceAlpha" result="hardAlpha" values="0 0 0 0 0 0 0 0 0 0 0 0 0 0 0 0 0 0 127 0"/>
      <feOffset dy="2"/>
      <feGaussianBlur stdDeviation="1"/>
      <feComposite in2="hardAlpha" operator="out"/>
      <feColorMatrix values="0 0 0 0 0 0 0 0 0 0 0 0 0 0 0 0 0 0 0.25 0"/>
      <feBlend in2="BackgroundImageFix" result="effect1_dropShadow_147_1623"/>
      <feBlend in="SourceGraphic" in2="effect1_dropShadow_147_1623" result="shape"/>
    </filter>
  </defs>
</svg>
