<svg xmlns="http://www.w3.org/2000/svg" width="194" height="204" fill="none" viewBox="0 0 194 204">
  <g filter="url(#a)">
    <rect width="190" height="200" x="2" fill="#fff" rx="20"/>
  </g>
  <path fill="#000" d="M50.511 174v-18.909h1.727v8.67h10.729v-8.67h1.726V174h-1.726v-8.688h-10.73V174h-1.726Zm18.05-17.358v-1.551h13.712v1.551H76.28V174h-1.727v-17.358h-5.992Zm17.599-1.551h1.994l6.86 16.471h.166l6.86-16.471h1.995V174h-1.625v-15.262h-.148L95.882 174h-1.57l-6.38-15.262h-.147V174H86.16v-18.909ZM109.062 174v-18.909h1.727v17.358h9.011V174h-10.738Zm19.749.259c-1.052 0-1.994-.213-2.825-.638a5.184 5.184 0 0 1-1.976-1.772c-.486-.751-.744-1.61-.775-2.576h1.671c.055 1.003.449 1.828 1.182 2.474.732.64 1.64.96 2.723.96.844 0 1.595-.2 2.253-.6a4.217 4.217 0 0 0 1.542-1.662c.376-.708.563-1.505.563-2.391-.006-.923-.206-1.736-.6-2.438a4.347 4.347 0 0 0-1.606-1.661c-.671-.401-1.425-.601-2.262-.601a5.41 5.41 0 0 0-1.865.314c-.61.216-1.118.493-1.524.831l-1.726-.221 1.135-9.187h9.344v1.551h-7.894l-.757 6.325h.092a5.13 5.13 0 0 1 1.523-.859 5.496 5.496 0 0 1 1.912-.332c1.114 0 2.114.267 3 .803a5.76 5.76 0 0 1 2.115 2.216c.523.935.785 2.013.785 3.231 0 1.194-.262 2.262-.785 3.204a5.788 5.788 0 0 1-2.142 2.216c-.905.542-1.939.813-3.103.813Z"/>
  <path fill="#E44F26" d="M63.444 121.003 56.422 42.25h77.156l-7.031 78.741-31.594 8.759-31.51-8.747Z"/>
  <path fill="#F1662A" d="m95 123.056 25.531-7.078 6.006-67.287H95v74.365Z"/>
  <path fill="#EBEBEB" d="M95 77.897H82.219l-.881-9.89H95v-9.66H70.781l.231 2.594 2.372 26.615H95v-9.66Zm0 25.084-.044.013-10.756-2.903-.688-7.703h-9.696l1.353 15.162 19.787 5.494.044-.013v-10.05Z"/>
  <path fill="#fff" d="M94.966 77.897v9.66h11.893l-1.118 12.527-10.775 2.907v10.05l19.803-5.491.143-1.631 2.269-25.428.238-2.594H94.966Zm0-19.55v9.66h23.331l.194-2.17.44-4.896.231-2.594H94.966Z"/>
  <defs>
    <filter id="a" width="194" height="204" x="0" y="0" color-interpolation-filters="sRGB" filterUnits="userSpaceOnUse">
      <feFlood flood-opacity="0" result="BackgroundImageFix"/>
      <feColorMatrix in="SourceAlpha" result="hardAlpha" values="0 0 0 0 0 0 0 0 0 0 0 0 0 0 0 0 0 0 127 0"/>
      <feOffset dy="2"/>
      <feGaussianBlur stdDeviation="1"/>
      <feComposite in2="hardAlpha" operator="out"/>
      <feColorMatrix values="0 0 0 0 0 0 0 0 0 0 0 0 0 0 0 0 0 0 0.25 0"/>
      <feBlend in2="BackgroundImageFix" result="effect1_dropShadow_264_520"/>
      <feBlend in="SourceGraphic" in2="effect1_dropShadow_264_520" result="shape"/>
    </filter>
  </defs>
</svg>
