<svg xmlns="http://www.w3.org/2000/svg" width="194" height="204" fill="none" viewBox="0 0 194 204">
  <g filter="url(#a)">
    <rect width="190" height="200" x="2" fill="#fff" rx="20"/>
  </g>
  <path fill="#000" d="M44.676 155.091h1.727v13.637c-.006 1.231-.228 2.259-.665 3.084-.437.818-1.04 1.431-1.81 1.837-.77.406-1.652.61-2.65.61-.978 0-1.852-.182-2.622-.545-.77-.363-1.375-.874-1.819-1.533-.437-.659-.655-1.431-.655-2.317h1.699c0 .56.147 1.055.443 1.486.295.425.699.757 1.21.997.516.24 1.098.36 1.744.36.671 0 1.26-.141 1.764-.424.51-.283.91-.717 1.2-1.302.29-.591.434-1.342.434-2.253v-13.637Zm10.369 19.232c-.856 0-1.638-.166-2.345-.498a4.106 4.106 0 0 1-1.69-1.459c-.419-.64-.628-1.416-.628-2.327 0-.702.132-1.293.397-1.773s.64-.874 1.127-1.181c.486-.308 1.061-.551 1.726-.73a16.066 16.066 0 0 1 2.198-.415c.794-.099 1.465-.185 2.012-.259.554-.074.976-.191 1.265-.351.29-.16.434-.418.434-.775v-.333c0-.966-.29-1.726-.868-2.28-.572-.56-1.397-.84-2.474-.84-1.022 0-1.856.224-2.502.674-.64.449-1.09.978-1.348 1.588l-1.56-.564c.32-.775.763-1.394 1.329-1.855a5.244 5.244 0 0 1 1.902-1.007 7.435 7.435 0 0 1 2.133-.314c.541 0 1.105.071 1.69.213.59.141 1.138.387 1.643.738.505.345.914.828 1.228 1.45.314.615.47 1.397.47 2.345V174h-1.643v-2.244h-.101c-.197.419-.49.825-.877 1.219-.388.394-.875.717-1.46.97-.584.252-1.27.378-2.058.378Zm.221-1.505c.874 0 1.632-.194 2.272-.581a3.993 3.993 0 0 0 1.477-1.542c.35-.647.526-1.358.526-2.133v-2.05c-.123.117-.33.222-.618.314a8.626 8.626 0 0 1-.988.249c-.37.068-.739.126-1.108.176-.37.049-.702.092-.997.129-.8.098-1.484.252-2.05.462-.566.209-1 .498-1.302.868-.302.363-.452.83-.452 1.403 0 .862.307 1.53.923 2.003.615.468 1.388.702 2.317.702Zm20.76-13L70.847 174h-1.753l-5.18-14.182h1.782l4.21 12.012h.13l4.21-12.012h1.782Zm6.745 14.505c-.855 0-1.637-.166-2.345-.498a4.106 4.106 0 0 1-1.69-1.459c-.418-.64-.627-1.416-.627-2.327 0-.702.132-1.293.397-1.773.264-.48.64-.874 1.126-1.181.486-.308 1.062-.551 1.727-.73a16.06 16.06 0 0 1 2.197-.415 205.47 205.47 0 0 0 2.013-.259c.554-.074.975-.191 1.265-.351.29-.16.434-.418.434-.775v-.333c0-.966-.29-1.726-.868-2.28-.573-.56-1.397-.84-2.475-.84-1.021 0-1.855.224-2.502.674-.64.449-1.09.978-1.348 1.588l-1.56-.564c.32-.775.763-1.394 1.33-1.855a5.243 5.243 0 0 1 1.901-1.007 7.436 7.436 0 0 1 2.133-.314c.542 0 1.105.071 1.69.213a4.81 4.81 0 0 1 1.643.738c.505.345.914.828 1.228 1.45.314.615.471 1.397.471 2.345V174h-1.643v-2.244h-.102a4.46 4.46 0 0 1-.877 1.219c-.388.394-.874.717-1.459.97-.584.252-1.27.378-2.059.378Zm.222-1.505c.874 0 1.631-.194 2.271-.581a3.993 3.993 0 0 0 1.478-1.542c.35-.647.526-1.358.526-2.133v-2.05c-.123.117-.33.222-.619.314a8.615 8.615 0 0 1-.988.249 23.6 23.6 0 0 1-1.108.176c-.37.049-.701.092-.997.129-.8.098-1.483.252-2.05.462-.566.209-1 .498-1.302.868-.301.363-.452.83-.452 1.403 0 .862.308 1.53.923 2.003.616.468 1.388.702 2.318.702Zm19.818-9.888-1.505.424a3.97 3.97 0 0 0-.627-1.154 2.856 2.856 0 0 0-1.062-.821c-.431-.204-.967-.305-1.607-.305-.96 0-1.748.228-2.363.683-.616.456-.924 1.043-.924 1.764 0 .609.21 1.104.628 1.486.425.376 1.077.674 1.958.896l2.142.526c1.188.289 2.077.748 2.668 1.376.597.628.896 1.415.896 2.363 0 .801-.222 1.511-.665 2.133-.443.622-1.062 1.111-1.856 1.468-.788.351-1.702.526-2.742.526-1.385 0-2.527-.31-3.426-.932-.898-.628-1.474-1.533-1.726-2.715l1.579-.387c.203.843.6 1.48 1.19 1.911.598.431 1.382.646 2.355.646 1.09 0 1.96-.243 2.613-.729.652-.493.979-1.108.979-1.847 0-.572-.191-1.052-.573-1.44-.381-.394-.96-.683-1.736-.868l-2.317-.554c-1.231-.295-2.142-.763-2.733-1.403-.59-.641-.886-1.435-.886-2.383 0-.781.212-1.468.637-2.058.424-.598 1.01-1.065 1.754-1.404.745-.338 1.594-.508 2.548-.508 1.3 0 2.336.296 3.112.887.782.584 1.345 1.391 1.689 2.419Zm9.342 11.365c-1.268 0-2.373-.317-3.315-.951-.935-.634-1.662-1.501-2.179-2.603-.517-1.102-.775-2.358-.775-3.767 0-1.422.261-2.687.785-3.795.529-1.108 1.261-1.976 2.197-2.604.936-.634 2.022-.951 3.259-.951.948 0 1.807.185 2.576.554a5 5 0 0 1 1.902 1.542c.505.659.822 1.428.951 2.308h-1.662c-.172-.8-.588-1.483-1.246-2.049-.653-.573-1.484-.859-2.493-.859-.905 0-1.705.246-2.401.739-.695.486-1.24 1.166-1.634 2.04-.388.868-.582 1.874-.582 3.019 0 1.151.191 2.17.573 3.056.381.881.917 1.57 1.606 2.069.696.498 1.508.747 2.438.747.628 0 1.2-.116 1.717-.35a3.561 3.561 0 0 0 2.031-2.576h1.662a5.06 5.06 0 0 1-.914 2.289 5.024 5.024 0 0 1-1.874 1.57c-.763.382-1.637.572-2.622.572Zm8.933-.295v-14.182h1.597v2.179h.12c.283-.714.776-1.289 1.477-1.726.708-.444 1.508-.665 2.401-.665a16.1 16.1 0 0 1 .868.028v1.671a12.287 12.287 0 0 0-.388-.056 4.668 4.668 0 0 0-.6-.037c-.739 0-1.397.157-1.976.471a3.492 3.492 0 0 0-1.357 1.284c-.333.547-.499 1.172-.499 1.874V174h-1.643Zm9.286 0v-14.182h1.653V174h-1.653Zm.84-16.619c-.339 0-.628-.114-.868-.342a1.132 1.132 0 0 1-.36-.84c0-.326.12-.603.36-.831.24-.234.529-.351.868-.351.339 0 .628.117.868.351.24.228.36.505.36.831 0 .326-.12.606-.36.84-.24.228-.529.342-.868.342Zm5.159 21.937v-19.5h1.597v2.705h.194c.197-.424.468-.858.813-1.301.344-.45.8-.828 1.366-1.136.573-.308 1.293-.462 2.161-.462 1.169 0 2.191.308 3.065.924.88.609 1.563 1.465 2.05 2.566.492 1.096.738 2.373.738 3.832 0 1.465-.246 2.748-.738 3.85-.487 1.102-1.17 1.961-2.05 2.576-.874.616-1.89.923-3.047.923-.856 0-1.573-.153-2.151-.461a4.428 4.428 0 0 1-1.394-1.136 6.56 6.56 0 0 1-.813-1.329h-.148v7.949h-1.643Zm1.625-12.4c0 1.145.169 2.161.508 3.047.344.88.837 1.573 1.477 2.078.646.498 1.428.747 2.345.747.942 0 1.736-.258 2.382-.775.653-.523 1.148-1.228 1.487-2.114.344-.887.517-1.881.517-2.983 0-1.089-.169-2.071-.508-2.945-.332-.874-.825-1.567-1.477-2.077-.653-.517-1.453-.776-2.401-.776-.923 0-1.708.249-2.354.748-.647.492-1.139 1.176-1.478 2.05-.332.868-.498 1.868-.498 3Zm19.551-7.1v1.431h-6.768v-1.431h6.768Zm-4.654-3.398h1.653v13.878c0 .59.102 1.055.305 1.394.203.332.467.569.794.711a2.7 2.7 0 0 0 1.043.203c.215 0 .4-.012.554-.037.154-.031.289-.062.406-.092l.351 1.486c-.16.062-.357.117-.591.166a3.803 3.803 0 0 1-.868.083 4.034 4.034 0 0 1-1.745-.397 3.407 3.407 0 0 1-1.366-1.181c-.357-.524-.536-1.173-.536-1.949V156.42Z"/>
  <path fill="#F5DE19" d="M52.25 36.25h87.5v87.5h-87.5v-87.5Z"/>
  <path fill="#000" d="M111.028 104.609a8.957 8.957 0 0 0 8.125 5c3.406 0 5.585-1.703 5.585-4.062 0-2.813-2.238-3.819-5.988-5.46l-2.056-.88c-5.938-2.529-9.875-5.695-9.875-12.388 0-6.166 4.687-10.863 12.04-10.863a12.156 12.156 0 0 1 11.694 6.584l-6.428 4.11a5.595 5.595 0 0 0-5.278-3.525 3.574 3.574 0 0 0-3.616 2.085 3.578 3.578 0 0 0-.318 1.44c0 2.465 1.528 3.465 5.056 5l2.056.881c6.988 2.997 10.938 6.05 10.938 12.916 0 7.403-5.816 11.459-13.625 11.459a15.799 15.799 0 0 1-14.985-8.409l6.675-3.888Zm-29.047.713c1.291 2.29 2.466 4.228 5.291 4.228 2.7 0 4.406-1.056 4.406-5.166v-27.96H99.9v28.07c0 8.512-5 12.387-12.278 12.387a12.76 12.76 0 0 1-12.334-7.5l6.693-4.059Z"/>
  <defs>
    <filter id="a" width="194" height="204" x="0" y="0" color-interpolation-filters="sRGB" filterUnits="userSpaceOnUse">
      <feFlood flood-opacity="0" result="BackgroundImageFix"/>
      <feColorMatrix in="SourceAlpha" result="hardAlpha" values="0 0 0 0 0 0 0 0 0 0 0 0 0 0 0 0 0 0 127 0"/>
      <feOffset dy="2"/>
      <feGaussianBlur stdDeviation="1"/>
      <feComposite in2="hardAlpha" operator="out"/>
      <feColorMatrix values="0 0 0 0 0 0 0 0 0 0 0 0 0 0 0 0 0 0 0.25 0"/>
      <feBlend in2="BackgroundImageFix" result="effect1_dropShadow_264_519"/>
      <feBlend in="SourceGraphic" in2="effect1_dropShadow_264_519" result="shape"/>
    </filter>
  </defs>
</svg>
