<svg xmlns="http://www.w3.org/2000/svg" width="194" height="204" fill="none" viewBox="0 0 194 204">
  <g filter="url(#a)">
    <rect width="190" height="200" x="2" fill="#fff" rx="20"/>
  </g>
  <path fill="#000" d="M72.511 162.091h1.995l6.86 16.471h.166l6.86-16.471h1.994V181h-1.625v-15.262h-.147L82.234 181h-1.57l-6.38-15.262h-.148V181h-1.625v-18.909Zm35.506 0h1.726v12.52c0 1.286-.301 2.437-.905 3.453-.603 1.009-1.443 1.807-2.52 2.391-1.071.579-2.318.868-3.74.868-1.415 0-2.662-.292-3.739-.877s-1.917-1.382-2.52-2.391c-.604-1.01-.905-2.158-.905-3.444v-12.52h1.726v12.4c0 1.003.225 1.899.674 2.687a4.835 4.835 0 0 0 1.893 1.846c.819.449 1.776.674 2.871.674 1.096 0 2.053-.225 2.872-.674a4.752 4.752 0 0 0 1.893-1.846c.449-.788.674-1.684.674-2.687v-12.4Zm8.471 0V181h-1.727v-18.909h1.727Z"/>
  <path fill="#007FFF" d="M136.332 109.281a3.215 3.215 0 0 0 1.611-2.776L138 87.909a3.214 3.214 0 0 1 1.611-2.777l10.063-5.79a3.2 3.2 0 0 1 3.204.005 3.21 3.21 0 0 1 1.601 2.78v33.809a3.212 3.212 0 0 1-1.61 2.786l-37.978 21.851a3.206 3.206 0 0 1-3.189.003L81.899 123.5a3.216 3.216 0 0 1-1.617-2.789v-17.047c0-.019.022-.032.041-.023.016.01.039 0 .039-.022v-.019c0-.013.006-.026.02-.032l24.546-14.126c.022-.013.012-.048-.013-.048a.023.023 0 0 1-.018-.008.025.025 0 0 1-.008-.018l.048-16.713a3.207 3.207 0 0 0-1.598-2.793 3.202 3.202 0 0 0-3.214-.003L81.882 80.39a3.204 3.204 0 0 1-3.2 0L60.38 69.834a3.203 3.203 0 0 0-4.378 1.178 3.218 3.218 0 0 0-.43 1.605v30.206a3.216 3.216 0 0 1-1.597 2.78 3.201 3.201 0 0 1-3.202.012l-10.156-5.817A3.21 3.21 0 0 1 39 97.003l.09-52.797a3.22 3.22 0 0 1 1.604-2.774 3.204 3.204 0 0 1 3.2-.004l34.79 20.015a3.204 3.204 0 0 0 3.195 0l34.779-20.016a3.204 3.204 0 0 1 4.378 1.183 3.22 3.22 0 0 1 .428 1.606v52.809a3.222 3.222 0 0 1-1.607 2.786l-18.214 10.508a3.208 3.208 0 0 0-1.606 2.791 3.217 3.217 0 0 0 1.619 2.784l10.047 5.73a3.212 3.212 0 0 0 3.185-.007l21.444-12.336Zm2.108-47.372a3.213 3.213 0 0 0 3.248 3.211 3.205 3.205 0 0 0 1.609-.457l9.623-5.784a3.21 3.21 0 0 0 1.559-2.754V44.338a3.219 3.219 0 0 0-1.629-2.791 3.203 3.203 0 0 0-3.228.04l-9.623 5.785a3.218 3.218 0 0 0-1.559 2.754v11.787-.004Z"/>
  <defs>
    <filter id="a" width="194" height="204" x="0" y="0" color-interpolation-filters="sRGB" filterUnits="userSpaceOnUse">
      <feFlood flood-opacity="0" result="BackgroundImageFix"/>
      <feColorMatrix in="SourceAlpha" result="hardAlpha" values="0 0 0 0 0 0 0 0 0 0 0 0 0 0 0 0 0 0 127 0"/>
      <feOffset dy="2"/>
      <feGaussianBlur stdDeviation="1"/>
      <feComposite in2="hardAlpha" operator="out"/>
      <feColorMatrix values="0 0 0 0 0 0 0 0 0 0 0 0 0 0 0 0 0 0 0.25 0"/>
      <feBlend in2="BackgroundImageFix" result="effect1_dropShadow_264_521"/>
      <feBlend in="SourceGraphic" in2="effect1_dropShadow_264_521" result="shape"/>
    </filter>
  </defs>
</svg>
