<svg xmlns="http://www.w3.org/2000/svg" width="194" height="204" fill="none" viewBox="0 0 194 204">
  <g filter="url(#a)">
    <rect width="190" height="200" x="2" fill="#fff" rx="20"/>
  </g>
  <path fill="#000" d="M68.733 155.091V174h-1.68L55.88 158.165h-.148V174h-1.726v-18.909h1.67l11.21 15.853h.147v-15.853h1.699Zm10.42 19.204c-1.324 0-2.469-.307-3.435-.923-.967-.622-1.715-1.48-2.244-2.576-.523-1.102-.785-2.37-.785-3.804 0-1.428.262-2.696.785-3.804.53-1.114 1.259-1.985 2.188-2.613.936-.634 2.016-.951 3.241-.951.77 0 1.511.142 2.225.425a5.41 5.41 0 0 1 1.92 1.283c.573.573 1.026 1.296 1.358 2.17.332.868.499 1.896.499 3.084v.812h-11.08v-1.449h9.4c0-.911-.185-1.73-.555-2.456a4.307 4.307 0 0 0-1.523-1.736c-.647-.425-1.394-.637-2.244-.637-.899 0-1.69.24-2.373.72a4.946 4.946 0 0 0-1.606 1.902 5.944 5.944 0 0 0-.582 2.585v.868c0 1.127.194 2.112.582 2.955.394.837.95 1.486 1.67 1.948.721.462 1.574.692 2.558.692.671 0 1.26-.104 1.764-.313.51-.21.939-.49 1.283-.841.351-.357.616-.748.794-1.172l1.56.508a4.587 4.587 0 0 1-1.061 1.652c-.486.505-1.096.911-1.828 1.219-.727.302-1.564.452-2.512.452Zm10.008-14.477 3.656 6.048 3.657-6.048h1.91l-4.56 7.091 4.56 7.091h-1.91l-3.657-5.854L89.161 174h-1.902l4.506-7.091-4.506-7.091h1.902Zm18.256 0v1.431h-6.768v-1.431h6.768Zm-4.654-3.398h1.653v13.878c0 .59.102 1.055.305 1.394.203.332.468.569.794.711a2.7 2.7 0 0 0 1.043.203c.216 0 .4-.012.554-.037.154-.031.289-.062.406-.092l.351 1.486c-.16.062-.357.117-.591.166a3.803 3.803 0 0 1-.868.083 4.038 4.038 0 0 1-1.745-.397 3.407 3.407 0 0 1-1.366-1.181c-.357-.524-.536-1.173-.536-1.949V156.42Zm23.205-1.329h1.727v13.637c-.006 1.231-.228 2.259-.665 3.084-.437.818-1.04 1.431-1.81 1.837-.769.406-1.652.61-2.65.61-.978 0-1.852-.182-2.622-.545-.769-.363-1.375-.874-1.819-1.533-.437-.659-.655-1.431-.655-2.317h1.699c0 .56.147 1.055.443 1.486.295.425.698.757 1.209.997.517.24 1.099.36 1.745.36.671 0 1.259-.141 1.764-.424.511-.283.911-.717 1.2-1.302.289-.591.434-1.342.434-2.253v-13.637Zm15.936 7.839-1.505.424a3.95 3.95 0 0 0-.628-1.154 2.845 2.845 0 0 0-1.061-.821c-.431-.204-.967-.305-1.607-.305-.96 0-1.748.228-2.364.683-.615.456-.923 1.043-.923 1.764 0 .609.209 1.104.628 1.486.425.376 1.077.674 1.957.896l2.142.526c1.188.289 2.078.748 2.669 1.376.597.628.895 1.415.895 2.363 0 .801-.221 1.511-.664 2.133-.444.622-1.062 1.111-1.856 1.468-.788.351-1.702.526-2.742.526-1.385 0-2.527-.31-3.426-.932-.899-.628-1.474-1.533-1.726-2.715l1.578-.387c.204.843.601 1.48 1.191 1.911.598.431 1.382.646 2.355.646 1.089 0 1.96-.243 2.613-.729.652-.493.978-1.108.978-1.847 0-.572-.19-1.052-.572-1.44-.382-.394-.96-.683-1.736-.868l-2.317-.554c-1.231-.295-2.142-.763-2.733-1.403-.591-.641-.887-1.435-.887-2.383 0-.781.213-1.468.638-2.058.424-.598 1.009-1.065 1.754-1.404.745-.338 1.594-.508 2.548-.508 1.299 0 2.336.296 3.112.887.781.584 1.345 1.391 1.689 2.419Zm-20.687-40.174c-.372.197-.341.26.016.078a.978.978 0 0 0 .297-.19c0-.066 0-.066-.313.112Zm.75-.406c-.178.147-.178.147.035.05a.797.797 0 0 0 .212-.147c0-.084-.05-.066-.247.097Zm.488-.294c-.178.147-.178.147.034.05a.754.754 0 0 0 .213-.15c0-.078-.05-.062-.247.1Zm.493-.291c-.178.147-.178.147.029.047.115-.062.212-.128.212-.147 0-.078-.05-.062-.241.1Zm.666-.44c-.341.228-.459.375-.147.212.21-.128.566-.409.503-.409-.134.05-.247.134-.359.197h.003ZM93.729 29.023c-.228.016-.912.078-1.513.128-14.212 1.288-27.51 8.938-35.938 20.722a49.463 49.463 0 0 0-8.825 21.842c-.403 2.75-.453 3.562-.453 7.29 0 3.725.05 4.525.453 7.275 2.722 18.785 16.085 34.554 34.198 40.398 3.26 1.041 6.675 1.759 10.566 2.2 1.512.163 8.053.163 9.565 0 6.725-.75 12.404-2.409 18.023-5.275.862-.438 1.025-.553.909-.65a1056.67 1056.67 0 0 1-8.153-10.922l-7.991-10.791-10.01-14.828c-3.33-4.965-6.693-9.907-10.09-14.826-.035 0-.079 6.591-.097 14.629-.035 14.078-.035 14.65-.213 14.975-.17.393-.477.711-.862.897-.31.147-.588.178-2.066.178h-1.69l-.441-.275a1.858 1.858 0 0 1-.65-.716l-.213-.44.016-19.597.034-19.598.31-.39c.197-.24.44-.44.715-.585.41-.197.572-.228 2.263-.228 1.984 0 2.312.078 2.834.65A1883.524 1883.524 0 0 1 96.47 79.25a46572.19 46572.19 0 0 0 19.725 29.885l7.928 11.997.391-.259a51.108 51.108 0 0 0 10.266-9.016 49.793 49.793 0 0 0 11.772-25.554c.403-2.75.453-3.565.453-7.29 0-3.729-.05-4.526-.453-7.276-2.722-18.784-16.085-34.554-34.198-40.4a53.076 53.076 0 0 0-10.4-2.179c-.947-.096-7.41-.212-8.222-.128l-.003-.006Zm20.46 30.241a1.952 1.952 0 0 1 .991 1.138c.084.262.1 5.697.084 17.938l-.034 17.575-3.091-4.75-3.11-4.753v-12.76c0-8.272.035-12.91.079-13.138.152-.523.503-.966.978-1.234.387-.197.537-.213 2.084-.213 1.447 0 1.691.016 2.016.197h.003Z"/>
  <defs>
    <filter id="a" width="194" height="204" x="0" y="0" color-interpolation-filters="sRGB" filterUnits="userSpaceOnUse">
      <feFlood flood-opacity="0" result="BackgroundImageFix"/>
      <feColorMatrix in="SourceAlpha" result="hardAlpha" values="0 0 0 0 0 0 0 0 0 0 0 0 0 0 0 0 0 0 127 0"/>
      <feOffset dy="2"/>
      <feGaussianBlur stdDeviation="1"/>
      <feComposite in2="hardAlpha" operator="out"/>
      <feColorMatrix values="0 0 0 0 0 0 0 0 0 0 0 0 0 0 0 0 0 0 0.25 0"/>
      <feBlend in2="BackgroundImageFix" result="effect1_dropShadow_264_517"/>
      <feBlend in="SourceGraphic" in2="effect1_dropShadow_264_517" result="shape"/>
    </filter>
  </defs>
</svg>
