<svg xmlns="http://www.w3.org/2000/svg" width="194" height="204" fill="none" viewBox="0 0 194 204">
  <g filter="url(#a)">
    <rect width="190" height="200" x="2" fill="#fff" rx="20"/>
  </g>
  <path fill="#000" d="M49.511 174v-18.909h6.103c1.342 0 2.463.243 3.361.729.905.48 1.585 1.148 2.04 2.004.462.849.693 1.825.693 2.927s-.23 2.074-.692 2.917c-.456.844-1.133 1.502-2.032 1.976-.898.474-2.012.711-3.342.711h-5.198v-1.579h5.152c.985 0 1.803-.163 2.456-.489.659-.326 1.148-.791 1.468-1.394.326-.603.49-1.317.49-2.142s-.164-1.545-.49-2.161a3.345 3.345 0 0 0-1.477-1.44c-.653-.339-1.478-.508-2.475-.508h-4.33V174H49.51Zm8.338-8.531L62.502 174h-1.994l-4.607-8.531h1.948Zm13.304 8.826c-1.323 0-2.468-.307-3.434-.923-.967-.622-1.715-1.48-2.244-2.576-.523-1.102-.785-2.37-.785-3.804 0-1.428.262-2.696.785-3.804.53-1.114 1.259-1.985 2.188-2.613.936-.634 2.016-.951 3.241-.951.77 0 1.511.142 2.225.425a5.411 5.411 0 0 1 1.92 1.283c.573.573 1.026 1.296 1.358 2.17.332.868.499 1.896.499 3.084v.812h-11.08v-1.449h9.4c0-.911-.186-1.73-.555-2.456a4.306 4.306 0 0 0-1.523-1.736c-.647-.425-1.394-.637-2.244-.637-.899 0-1.69.24-2.373.72a4.947 4.947 0 0 0-1.606 1.902 5.945 5.945 0 0 0-.582 2.585v.868c0 1.127.194 2.112.582 2.955.394.837.95 1.486 1.67 1.948.721.462 1.574.692 2.558.692.671 0 1.26-.104 1.764-.313.51-.21.939-.49 1.283-.841.351-.357.616-.748.794-1.172l1.56.508a4.587 4.587 0 0 1-1.061 1.652c-.486.505-1.096.911-1.828 1.219-.727.302-1.564.452-2.512.452Zm13.335.028c-.856 0-1.637-.166-2.345-.498a4.106 4.106 0 0 1-1.69-1.459c-.418-.64-.627-1.416-.627-2.327 0-.702.132-1.293.397-1.773.264-.48.64-.874 1.126-1.181.486-.308 1.062-.551 1.727-.73a16.06 16.06 0 0 1 2.197-.415 205.47 205.47 0 0 0 2.013-.259c.554-.074.975-.191 1.265-.351.289-.16.434-.418.434-.775v-.333c0-.966-.29-1.726-.868-2.28-.573-.56-1.398-.84-2.475-.84-1.022 0-1.856.224-2.502.674-.64.449-1.09.978-1.348 1.588l-1.56-.564c.32-.775.763-1.394 1.33-1.855a5.243 5.243 0 0 1 1.901-1.007 7.436 7.436 0 0 1 2.133-.314c.542 0 1.105.071 1.69.213.59.141 1.138.387 1.643.738.505.345.914.828 1.228 1.45.314.615.471 1.397.471 2.345V174h-1.643v-2.244h-.102a4.46 4.46 0 0 1-.877 1.219c-.388.394-.874.717-1.459.97-.585.252-1.271.378-2.059.378Zm.222-1.505c.874 0 1.63-.194 2.271-.581a3.993 3.993 0 0 0 1.477-1.542 4.4 4.4 0 0 0 .527-2.133v-2.05c-.124.117-.33.222-.62.314a8.615 8.615 0 0 1-.987.249 23.6 23.6 0 0 1-1.108.176c-.37.049-.702.092-.997.129-.8.098-1.483.252-2.05.462-.566.209-1 .498-1.302.868-.301.363-.452.83-.452 1.403 0 .862.308 1.53.923 2.003.616.468 1.388.702 2.318.702Zm15.83 1.477c-1.268 0-2.373-.317-3.315-.951-.936-.634-1.662-1.501-2.179-2.603-.517-1.102-.776-2.358-.776-3.767 0-1.422.262-2.687.785-3.795.53-1.108 1.262-1.976 2.198-2.604.935-.634 2.022-.951 3.259-.951.948 0 1.806.185 2.576.554a5.015 5.015 0 0 1 1.902 1.542c.505.659.822 1.428.951 2.308h-1.662c-.172-.8-.588-1.483-1.247-2.049-.652-.573-1.483-.859-2.492-.859-.905 0-1.705.246-2.401.739-.695.486-1.24 1.166-1.634 2.04-.388.868-.582 1.874-.582 3.019 0 1.151.19 2.17.573 3.056.381.881.917 1.57 1.606 2.069.696.498 1.508.747 2.438.747.627 0 1.2-.116 1.717-.35a3.561 3.561 0 0 0 2.031-2.576h1.662a5.071 5.071 0 0 1-.914 2.289 5.024 5.024 0 0 1-1.874 1.57c-.764.382-1.638.572-2.622.572Zm14.518-14.477v1.431h-6.767v-1.431h6.767Zm-4.653-3.398h1.653v13.878c0 .59.101 1.055.304 1.394.204.332.468.569.794.711.327.135.674.203 1.044.203.215 0 .4-.012.554-.037.154-.031.289-.062.406-.092l.351 1.486c-.16.062-.357.117-.591.166a3.803 3.803 0 0 1-.868.083 4.034 4.034 0 0 1-1.745-.397 3.407 3.407 0 0 1-1.366-1.181c-.357-.524-.536-1.173-.536-1.949V156.42Zm23.205-1.329h1.726v13.637c-.006 1.231-.227 2.259-.664 3.084-.438.818-1.041 1.431-1.81 1.837-.77.406-1.653.61-2.65.61-.979 0-1.853-.182-2.622-.545-.77-.363-1.376-.874-1.819-1.533-.437-.659-.656-1.431-.656-2.317h1.699c0 .56.148 1.055.443 1.486.296.425.699.757 1.21.997.517.24 1.099.36 1.745.36.671 0 1.259-.141 1.763-.424.511-.283.911-.717 1.201-1.302.289-.591.434-1.342.434-2.253v-13.637Zm15.936 7.839-1.505.424a3.973 3.973 0 0 0-.628-1.154 2.857 2.857 0 0 0-1.062-.821c-.431-.204-.966-.305-1.606-.305-.961 0-1.748.228-2.364.683-.615.456-.923 1.043-.923 1.764 0 .609.209 1.104.628 1.486.424.376 1.077.674 1.957.896l2.142.526c1.188.289 2.077.748 2.668 1.376.597.628.896 1.415.896 2.363 0 .801-.222 1.511-.665 2.133-.443.622-1.062 1.111-1.856 1.468-.788.351-1.702.526-2.742.526-1.385 0-2.527-.31-3.425-.932-.899-.628-1.474-1.533-1.727-2.715l1.579-.387c.203.843.6 1.48 1.191 1.911.597.431 1.382.646 2.354.646 1.09 0 1.961-.243 2.613-.729.653-.493.979-1.108.979-1.847 0-.572-.191-1.052-.572-1.44-.382-.394-.961-.683-1.736-.868l-2.318-.554c-1.231-.295-2.142-.763-2.733-1.403-.591-.641-.886-1.435-.886-2.383 0-.781.212-1.468.637-2.058.425-.598 1.01-1.065 1.754-1.404.745-.338 1.595-.508 2.549-.508 1.298 0 2.336.296 3.111.887.782.584 1.345 1.391 1.69 2.419Z"/>
  <g clip-path="url(#b)">
    <path fill="#00D8FF" d="M134.749 61.38a82.23 82.23 0 0 0-3.815-1.14c.216-.833.414-1.657.59-2.465 2.888-13.281 1-23.981-5.449-27.504-6.183-3.377-16.294.145-26.507 8.564a77.776 77.776 0 0 0-2.95 2.565 70.774 70.774 0 0 0-1.964-1.718C83.95 30.68 73.224 26.885 66.78 30.418c-6.177 3.388-8.006 13.446-5.406 26.033.259 1.247.55 2.487.876 3.72a81.83 81.83 0 0 0-4.386 1.306c-12.548 4.145-20.562 10.64-20.562 17.378 0 6.958 8.603 13.937 21.672 18.17a70.2 70.2 0 0 0 3.205.949 70.13 70.13 0 0 0-.93 4.008c-2.48 12.368-.544 22.189 5.617 25.555 6.363 3.476 17.042-.096 27.44-8.708a65.21 65.21 0 0 0 2.474-2.16 75.987 75.987 0 0 0 3.204 2.77c10.073 8.211 20.021 11.527 26.176 8.152 6.357-3.487 8.423-14.037 5.74-26.872a60.713 60.713 0 0 0-.71-3.001c.75-.21 1.486-.428 2.203-.653 13.587-4.264 22.428-11.16 22.428-18.21 0-6.762-8.272-13.301-21.073-17.476Zm-2.947 31.133c-.648.203-1.313.399-1.99.59-1.5-4.5-3.525-9.283-6.002-14.225 2.364-4.825 4.31-9.547 5.768-14.016 1.213.332 2.389.683 3.523 1.052 10.968 3.577 17.658 8.866 17.658 12.94 0 4.34-7.225 9.976-18.957 13.659Zm-4.867 9.137c1.186 5.676 1.355 10.807.569 14.819-.705 3.605-2.125 6.008-3.88 6.971-3.735 2.048-11.723-.614-20.337-7.637a71.787 71.787 0 0 1-2.98-2.575c3.34-3.46 6.677-7.482 9.935-11.95 5.729-.481 11.142-1.269 16.051-2.344.237.9.45 1.806.642 2.716Zm-49.226 21.436c-3.65 1.22-6.556 1.255-8.313.296-3.738-2.043-5.292-9.928-3.172-20.506a65.71 65.71 0 0 1 .865-3.727c4.855 1.017 10.228 1.749 15.971 2.19 3.28 4.372 6.714 8.39 10.174 11.908a61.349 61.349 0 0 1-2.258 1.97c-4.598 3.808-9.206 6.51-13.267 7.869Zm-17.096-30.6c-5.779-1.872-10.551-4.304-13.823-6.958-2.94-2.384-4.423-4.752-4.423-6.673 0-4.089 6.433-9.304 17.165-12.848a76.382 76.382 0 0 1 4.08-1.217c1.482 4.57 3.428 9.35 5.776 14.181-2.379 4.904-4.352 9.759-5.85 14.383a64.937 64.937 0 0 1-2.925-.868Zm5.731-36.956c-2.227-10.784-.748-18.919 2.975-20.96 3.964-2.175 12.732.925 21.973 8.699a65.521 65.521 0 0 1 1.778 1.555c-3.443 3.503-6.845 7.491-10.096 11.837-5.574.49-10.91 1.275-15.815 2.328a67.109 67.109 0 0 1-.815-3.459Zm51.124 11.96a151.39 151.39 0 0 0-3.605-5.616c3.782.453 7.405 1.054 10.807 1.79-1.021 3.101-2.294 6.344-3.793 9.668a164.932 164.932 0 0 0-3.409-5.843ZM96.619 48.251c2.336 2.397 4.675 5.073 6.975 7.976-4.667-.209-9.341-.21-14.008-.002a107.458 107.458 0 0 1 7.033-7.974Zm-20.981 19.27a139.736 139.736 0 0 0-3.346 5.806 102.383 102.383 0 0 1-3.766-9.716 120.173 120.173 0 0 1 10.745-1.747 139.78 139.78 0 0 0-3.633 5.657Zm3.74 28.663c-3.881-.41-7.541-.966-10.922-1.663a103.799 103.799 0 0 1 3.842-9.913 138.81 138.81 0 0 0 7.08 11.576Zm17.381 13.61a109.105 109.105 0 0 1-7.13-8.085c2.269.084 4.582.127 6.933.127 2.416 0 4.804-.051 7.155-.15-2.308 2.971-4.638 5.689-6.958 8.108Zm24.166-25.358c1.584 3.42 2.919 6.73 3.98 9.877-3.437.743-7.147 1.341-11.056 1.785a164.676 164.676 0 0 0 3.638-5.713 149.055 149.055 0 0 0 3.438-5.95Zm-7.823 3.553a156.005 156.005 0 0 1-5.686 8.69 160.9 160.9 0 0 1-10.853.361c-3.689 0-7.276-.108-10.731-.32a135.193 135.193 0 0 1-5.793-8.705 132.546 132.546 0 0 1-5.057-9.047 133.78 133.78 0 0 1 5.042-9.051 134.152 134.152 0 0 1 5.746-8.667 151.08 151.08 0 0 1 21.605.003 143.746 143.746 0 0 1 5.71 8.638c1.806 2.95 3.51 5.954 5.109 9.009a141.934 141.934 0 0 1-5.092 9.089Zm10.444-53.563c3.969 2.168 5.512 10.912 3.019 22.38a59.69 59.69 0 0 1-.533 2.232c-4.917-1.076-10.257-1.875-15.847-2.372-3.256-4.394-6.631-8.388-10.018-11.846a72.56 72.56 0 0 1 2.726-2.368c8.75-7.214 16.927-10.062 20.653-8.027ZM96.562 68.828c5.845 0 10.584 4.49 10.584 10.027 0 5.537-4.739 10.026-10.584 10.026-5.844 0-10.583-4.49-10.583-10.026 0-5.538 4.739-10.027 10.584-10.027Z"/>
  </g>
  <defs>
    <clipPath id="b">
      <path fill="#fff" d="M0 0h118.519v100H0z" transform="translate(37.303 29)"/>
    </clipPath>
    <filter id="a" width="194" height="204" x="0" y="0" color-interpolation-filters="sRGB" filterUnits="userSpaceOnUse">
      <feFlood flood-opacity="0" result="BackgroundImageFix"/>
      <feColorMatrix in="SourceAlpha" result="hardAlpha" values="0 0 0 0 0 0 0 0 0 0 0 0 0 0 0 0 0 0 127 0"/>
      <feOffset dy="2"/>
      <feGaussianBlur stdDeviation="1"/>
      <feComposite in2="hardAlpha" operator="out"/>
      <feColorMatrix values="0 0 0 0 0 0 0 0 0 0 0 0 0 0 0 0 0 0 0.25 0"/>
      <feBlend in2="BackgroundImageFix" result="effect1_dropShadow_147_1581"/>
      <feBlend in="SourceGraphic" in2="effect1_dropShadow_147_1581" result="shape"/>
    </filter>
  </defs>
</svg>
