<svg xmlns="http://www.w3.org/2000/svg" width="194" height="204" fill="none" viewBox="0 0 194 204">
  <g filter="url(#a)">
    <rect width="190" height="200" x="2" fill="#fff" rx="20"/>
  </g>
  <path fill="#000" d="M20.366 156.642v-1.551h13.711v1.551h-5.992V174H26.36v-17.358h-5.993Zm19.288 17.681c-.856 0-1.637-.166-2.345-.498a4.106 4.106 0 0 1-1.69-1.459c-.418-.64-.627-1.416-.627-2.327 0-.702.132-1.293.397-1.773.264-.48.64-.874 1.126-1.181.486-.308 1.062-.551 1.727-.73a16.063 16.063 0 0 1 2.197-.415c.794-.099 1.465-.185 2.013-.259.554-.074.975-.191 1.265-.351.289-.16.434-.418.434-.775v-.333c0-.966-.29-1.726-.868-2.28-.573-.56-1.398-.84-2.475-.84-1.022 0-1.856.224-2.502.674-.64.449-1.09.978-1.348 1.588l-1.56-.564c.32-.775.763-1.394 1.33-1.855a5.244 5.244 0 0 1 1.901-1.007 7.435 7.435 0 0 1 2.133-.314c.542 0 1.105.071 1.69.213.59.141 1.138.387 1.643.738.505.345.914.828 1.228 1.45.314.615.471 1.397.471 2.345V174h-1.643v-2.244h-.102c-.197.419-.49.825-.877 1.219-.388.394-.874.717-1.459.97-.585.252-1.271.378-2.059.378Zm.222-1.505c.874 0 1.63-.194 2.271-.581a3.993 3.993 0 0 0 1.477-1.542 4.4 4.4 0 0 0 .527-2.133v-2.05c-.123.117-.33.222-.619.314a8.623 8.623 0 0 1-.988.249 23.6 23.6 0 0 1-1.108.176c-.37.049-.702.092-.997.129-.8.098-1.483.252-2.05.462-.566.209-1 .498-1.302.868-.301.363-.452.83-.452 1.403 0 .862.308 1.53.923 2.003.616.468 1.388.702 2.318.702ZM50.184 174v-14.182h1.653V174h-1.653Zm.84-16.619c-.338 0-.627-.114-.867-.342a1.132 1.132 0 0 1-.36-.84c0-.326.12-.603.36-.831.24-.234.529-.351.868-.351.338 0 .627.117.867.351.24.228.36.505.36.831 0 .326-.12.606-.36.84-.24.228-.529.342-.867.342Zm6.803-2.29V174h-1.644v-18.909h1.644ZM65.324 174l-4.284-14.182h1.736l3.36 11.698h.12l3.352-11.698h1.745l3.324 11.671h.13l3.36-11.671h1.736L75.619 174h-1.7l-3.36-11.624h-.175L67.023 174h-1.699Zm17.792 0v-14.182h1.653V174h-1.653Zm.84-16.619c-.338 0-.628-.114-.868-.342a1.132 1.132 0 0 1-.36-.84c0-.326.12-.603.36-.831a1.2 1.2 0 0 1 .868-.351c.339 0 .628.117.868.351.24.228.36.505.36.831 0 .326-.12.606-.36.84-.24.228-.53.342-.868.342Zm6.802 7.755V174h-1.643v-14.182h1.597v2.225h.148a3.97 3.97 0 0 1 1.551-1.745c.708-.443 1.582-.664 2.622-.664.954 0 1.792.2 2.512.6a4.06 4.06 0 0 1 1.69 1.745c.406.769.609 1.714.609 2.834V174H98.2v-9.085c0-1.164-.326-2.084-.978-2.761-.647-.677-1.515-1.016-2.604-1.016-.745 0-1.407.161-1.985.481a3.498 3.498 0 0 0-1.376 1.385c-.332.597-.499 1.308-.499 2.132Zm18.52 9.159c-1.164 0-2.183-.307-3.057-.923-.874-.615-1.557-1.474-2.049-2.576-.487-1.102-.73-2.385-.73-3.85 0-1.459.243-2.736.73-3.832.492-1.101 1.178-1.957 2.059-2.566.88-.616 1.905-.924 3.074-.924.862 0 1.579.154 2.151.462.573.302 1.032.677 1.376 1.126.345.45.613.887.803 1.311h.148v-7.432h1.653V174h-1.607v-2.631h-.194c-.19.43-.461.874-.812 1.329-.351.449-.816.828-1.394 1.136-.573.308-1.29.461-2.151.461Zm.193-1.505c.918 0 1.699-.249 2.346-.747.646-.505 1.138-1.198 1.477-2.078.345-.886.517-1.902.517-3.047 0-1.132-.169-2.132-.508-3-.338-.874-.831-1.558-1.477-2.05-.646-.499-1.431-.748-2.355-.748-.948 0-1.748.259-2.4.776-.646.51-1.139 1.203-1.477 2.077-.333.874-.499 1.856-.499 2.945 0 1.102.169 2.096.508 2.983.338.886.831 1.591 1.477 2.114.653.517 1.45.775 2.391.775Zm33.11-11.79h-1.736a5.377 5.377 0 0 0-.702-1.791 5.555 5.555 0 0 0-1.255-1.45 5.742 5.742 0 0 0-1.718-.96 6.144 6.144 0 0 0-2.077-.342 6 6 0 0 0-3.269.933c-.978.622-1.763 1.536-2.354 2.742-.585 1.2-.877 2.672-.877 4.413 0 1.755.292 3.232.877 4.432.591 1.201 1.376 2.112 2.354 2.733a6.043 6.043 0 0 0 3.269.924c.745 0 1.437-.114 2.077-.342a5.854 5.854 0 0 0 1.718-.951 5.54 5.54 0 0 0 1.255-1.45 5.475 5.475 0 0 0 .702-1.8h1.736a7.579 7.579 0 0 1-.868 2.428 7.242 7.242 0 0 1-1.607 1.958 7.228 7.228 0 0 1-2.234 1.311c-.843.314-1.77.471-2.779.471-1.588 0-2.998-.397-4.229-1.192-1.231-.8-2.197-1.926-2.899-3.379-.696-1.452-1.043-3.167-1.043-5.143 0-1.975.347-3.69 1.043-5.142.702-1.453 1.668-2.576 2.899-3.37 1.231-.801 2.641-1.201 4.229-1.201 1.009 0 1.936.157 2.779.471a7 7 0 0 1 2.234 1.311 7.227 7.227 0 0 1 1.607 1.958c.425.745.714 1.554.868 2.428Zm14.322-1.182c-.104-1.052-.569-1.889-1.394-2.511-.825-.622-1.862-.933-3.111-.933-.88 0-1.656.151-2.327.453-.665.301-1.188.72-1.57 1.255a3.056 3.056 0 0 0-.563 1.81c0 .499.108.936.323 1.311.216.376.505.699.868.97.37.264.776.492 1.219.683.449.191.902.351 1.357.48l1.995.572c.603.167 1.206.379 1.809.637a7.304 7.304 0 0 1 1.653.979c.505.388.908.865 1.209 1.431.308.56.462 1.234.462 2.022 0 1.01-.262 1.918-.785 2.724-.523.806-1.274 1.446-2.253 1.92-.978.468-2.151.702-3.517.702-1.287 0-2.404-.212-3.352-.637-.948-.431-1.693-1.025-2.234-1.782-.542-.757-.847-1.634-.914-2.631h1.772c.062.745.308 1.375.739 1.892.431.518.991.911 1.68 1.182.69.265 1.459.397 2.309.397.941 0 1.779-.157 2.511-.471.739-.32 1.317-.763 1.736-1.329.425-.573.637-1.237.637-1.994 0-.641-.166-1.176-.499-1.607-.332-.437-.797-.803-1.394-1.099a12.294 12.294 0 0 0-2.059-.784l-2.262-.665c-1.483-.443-2.634-1.056-3.453-1.838-.819-.781-1.228-1.778-1.228-2.991 0-1.016.271-1.908.813-2.678.547-.775 1.286-1.378 2.215-1.809.936-.437 1.986-.656 3.149-.656 1.176 0 2.216.216 3.121.646.904.431 1.622 1.025 2.151 1.782.535.751.822 1.607.859 2.567h-1.672Zm16.352 0c-.105-1.052-.569-1.889-1.394-2.511-.825-.622-1.862-.933-3.112-.933-.88 0-1.655.151-2.326.453-.665.301-1.188.72-1.57 1.255a3.056 3.056 0 0 0-.563 1.81c0 .499.107.936.323 1.311.215.376.505.699.868.97.369.264.775.492 1.219.683.449.191.901.351 1.357.48l1.994.572c.603.167 1.207.379 1.81.637a7.276 7.276 0 0 1 1.652.979c.505.388.908.865 1.21 1.431.308.56.462 1.234.462 2.022 0 1.01-.262 1.918-.785 2.724-.523.806-1.274 1.446-2.253 1.92-.979.468-2.151.702-3.518.702-1.286 0-2.403-.212-3.351-.637-.948-.431-1.693-1.025-2.235-1.782-.541-.757-.846-1.634-.914-2.631h1.773c.062.745.308 1.375.739 1.892.43.518.991.911 1.68 1.182.689.265 1.459.397 2.308.397.942 0 1.779-.157 2.512-.471.738-.32 1.317-.763 1.735-1.329.425-.573.637-1.237.637-1.994 0-.641-.166-1.176-.498-1.607-.332-.437-.797-.803-1.394-1.099a12.294 12.294 0 0 0-2.059-.784l-2.262-.665c-1.484-.443-2.635-1.056-3.453-1.838-.819-.781-1.228-1.778-1.228-2.991 0-1.016.27-1.908.812-2.678.548-.775 1.287-1.378 2.216-1.809.936-.437 1.985-.656 3.148-.656 1.176 0 2.216.216 3.121.646.905.431 1.622 1.025 2.151 1.782.536.751.822 1.607.859 2.567h-1.671Z"/>
  <path fill="#44A8B3" d="M59.5 65C64.5 45 77 35 97 35c30 0 33.75 22.5 48.75 26.25C155.75 63.75 164.5 60 172 50c-5 20-17.5 30-37.5 30-30 0-33.75-22.5-48.75-26.25C75.75 51.25 67 55 59.5 65ZM22 110c5-20 17.5-30 37.5-30 30 0 33.75 22.5 48.75 26.25 10 2.5 18.75-1.25 26.25-11.25-5 20-17.5 30-37.5 30-30 0-33.75-22.5-48.75-26.25C38.25 96.25 29.5 100 22 110Z"/>
  <defs>
    <filter id="a" width="194" height="204" x="0" y="0" color-interpolation-filters="sRGB" filterUnits="userSpaceOnUse">
      <feFlood flood-opacity="0" result="BackgroundImageFix"/>
      <feColorMatrix in="SourceAlpha" result="hardAlpha" values="0 0 0 0 0 0 0 0 0 0 0 0 0 0 0 0 0 0 127 0"/>
      <feOffset dy="2"/>
      <feGaussianBlur stdDeviation="1"/>
      <feComposite in2="hardAlpha" operator="out"/>
      <feColorMatrix values="0 0 0 0 0 0 0 0 0 0 0 0 0 0 0 0 0 0 0.25 0"/>
      <feBlend in2="BackgroundImageFix" result="effect1_dropShadow_264_531"/>
      <feBlend in="SourceGraphic" in2="effect1_dropShadow_264_531" result="shape"/>
    </filter>
  </defs>
</svg>
