<svg xmlns="http://www.w3.org/2000/svg" width="100" height="100" fill="none" viewBox="0 0 100 100">
  <path fill="#1C0A00" d="M9.903 10.99H90.11v78.02H9.903V10.99Z"/>
  <path fill="#FF7F18" d="M9.903 10.99H90.11v78.02H9.903V10.99ZM6.25 92.657h87.5V7.344H6.25v85.312ZM63.563 37.75c0-.29.109-.438.437-.438h5.725c.29 0 .438.11.438.438v28.766c0 .29-.072.437-.438.437h-5.647c-.366 0-.475-.181-.475-.475V37.75h-.041Zm-.4-8.275a3.719 3.719 0 1 1 7.437 0 3.485 3.485 0 0 1-3.79 3.719 3.437 3.437 0 0 1-3.641-3.719h-.006ZM46.755 49.747c-1.022-4.063-3.437-12.869-4.337-17.135h-.072c-.766 4.266-2.697 11.485-4.228 17.135h8.637Zm-10.134 5.906L33.74 66.591c-.072.29-.182.365-.547.365H27.84c-.366 0-.438-.11-.366-.547l10.353-36.25c.252-.988.375-2.005.366-3.025 0-.256.11-.365.29-.365h7.657c.256 0 .365.072.437.365l11.594 39.338c.072.29 0 .475-.29.475h-6.054c-.29 0-.475-.072-.547-.313l-2.99-10.975H36.625l-.003-.006Z"/>
</svg>
