<svg xmlns="http://www.w3.org/2000/svg" width="100" height="100" fill="none" viewBox="0 0 100 100">
  <path fill="#000" d="M86.083 29.167a6.29 6.29 0 0 0-2.291-2.375L53.208 9.125a6.958 6.958 0 0 0-6.416 0L16.208 26.792A7 7 0 0 0 13 32.333v35.334a6.541 6.541 0 0 0 .917 3.166 6.29 6.29 0 0 0 2.291 2.375l30.584 17.667a6.959 6.959 0 0 0 6.416 0l30.584-17.667a6.29 6.29 0 0 0 2.291-2.375c.571-.96.887-2.05.917-3.166V32.333a6.541 6.541 0 0 0-.917-3.166ZM50 74.667A24.667 24.667 0 1 1 71.375 37.5l-4.708 2.958-1.5.834L61 43.833A12.5 12.5 0 0 0 37.5 50a12 12 0 0 0 1.667 6.167 12.5 12.5 0 0 0 21.375 0L71.375 62.5A24.75 24.75 0 0 1 50 74.667Zm24.667-23.292h-2.75v2.792h-2.709v-2.75h-2.541v-2.75h2.75v-2.834h2.708v2.75h2.75l-.208 2.792Zm10.291 0h-2.75v2.792h-2.75v-2.75H76.75v-2.75h2.708v-2.834h2.75v2.75h2.75v2.792Z"/>
  <path fill="#000" d="M86.083 29.167a6.29 6.29 0 0 0-2.291-2.375L53.208 9.125a6.958 6.958 0 0 0-6.416 0L16.208 26.792A7 7 0 0 0 13 32.333v35.334a6.541 6.541 0 0 0 .917 3.166 6.29 6.29 0 0 0 2.291 2.375l30.584 17.667a6.959 6.959 0 0 0 6.416 0l30.584-17.667a6.29 6.29 0 0 0 2.291-2.375c.571-.96.887-2.05.917-3.166V32.333a6.541 6.541 0 0 0-.917-3.166ZM50 74.667A24.667 24.667 0 1 1 71.375 37.5l-4.708 2.958-1.5.834L61 43.833A12.5 12.5 0 0 0 37.5 50a12 12 0 0 0 1.667 6.167 12.5 12.5 0 0 0 21.375 0L71.375 62.5A24.75 24.75 0 0 1 50 74.667Zm24.667-23.292h-2.75v2.792h-2.709v-2.75h-2.541v-2.75h2.75v-2.834h2.708v2.75h2.75l-.208 2.792Zm10.291 0h-2.75v2.792h-2.75v-2.75H76.75v-2.75h2.708v-2.834h2.75v2.75h2.75v2.792Z"/>
</svg>
