<svg xmlns="http://www.w3.org/2000/svg" width="73" height="100" fill="none" viewBox="0 0 73 100">
  <g clip-path="url(#a)">
    <path fill="#FFC24A" d="m0 80.626.605-.846L29.21 25.502l.06-.574L16.661 1.242c-1.057-1.984-4.031-1.483-4.378.739L0 80.626Z"/>
    <path fill="#F4BD62" d="m38.463 42.843 9.39-9.615-9.393-17.929c-.891-1.697-3.38-1.702-4.262 0l-5.018 9.57v.814l9.283 17.16Z"/>
    <path fill="#F6820C" d="m0 80.626.274-.276.996-.404 36.603-36.467.464-1.263-9.131-17.4L0 80.626Z"/>
    <path fill="#FDE068" d="m39.636 99.017 33.126-18.475-9.46-58.26c-.295-1.823-2.532-2.544-3.837-1.237L0 80.626l32.937 18.39a6.875 6.875 0 0 0 6.699.001Z"/>
    <path fill="#FCCA3F" d="m72.466 80.388-9.388-57.819c-.294-1.809-2.154-2.557-3.449-1.26L.368 80.513 32.943 98.72a6.82 6.82 0 0 0 6.648.002l32.875-18.335Z"/>
    <path fill="#EEAB37" d="M39.636 98.473a6.874 6.874 0 0 1-6.699-.002L.265 80.346l-.265.28 32.937 18.39a6.875 6.875 0 0 0 6.699.001l33.127-18.475-.082-.499-33.045 18.43Z"/>
  </g>
  <defs>
    <clipPath id="a">
      <path fill="#fff" d="M0 0h72.934v100H0z"/>
    </clipPath>
  </defs>
</svg>
