<svg xmlns="http://www.w3.org/2000/svg" width="78" height="77" fill="none" viewBox="0 0 78 77">
  <path fill="#21609B" fill-rule="evenodd" d="m75.627 56.938-.347.897c-5.905 11.5-16.37 18.556-31.295 18.867-6.978.144-13.626-1.646-17.97-3.593-9.372-4.21-17.255-12.02-21.56-20.364-6.176-11.962-7.29-28.601 5.551-41.029.198 0-1.558 2.695-1.36 2.695l-.353 1.15C-.96 44.533 27.55 69.36 55.263 66.52c6.66-.682 15.154-4.33 20.364-9.582Z" clip-rule="evenodd"/>
  <path fill="#21609B" fill-rule="evenodd" d="M58.856 44.958c6.972.048 14.255-3.21 18.568-7.786-3.773 9.577-14.698 15.734-29.348 13.776-12.267-1.642-23.953-13.986-25.156-26.354-.88-9.003 2.257-14.375 7.426-20.891-1.796 3.407-2.468 6.037-2.635 7.713-1.964 19.473 15.555 33.44 31.145 33.542" clip-rule="evenodd"/>
  <path fill="#21609B" fill-rule="evenodd" d="M76.724 20.772c-1.084 2.487-7.325 7.181-10.08 7.768-10.914 2.325-17.902-2.85-21.564-8.738-.543-.88-1.55-3.282-1.73-3.893C41.93 11.08 42.583 3.779 46.818 0c-1.275 3.595-1.462 7.768-.79 10.482.407 1.641 1.647 4.505 2.887 6.307 2.257 3.283 3.688 4.08 6.588 5.822 1.306.785 2.707 1.414 3.312 1.587 2.75.809 8.553 2.942 17.91-3.426" clip-rule="evenodd"/>
</svg>
