<svg xmlns="http://www.w3.org/2000/svg" width="47" height="100" fill="none" viewBox="0 0 47 100">
  <path fill="#01EC64" d="M32.032 11.146C27.837 6.166 24.221 1.109 23.483.058a.187.187 0 0 0-.272 0c-.738 1.051-4.353 6.108-8.55 11.088-36.024 45.944 5.674 76.95 5.674 76.95l.35.233c.31 4.785 1.088 11.671 1.088 11.671h3.109s.777-6.847 1.088-11.67l.35-.273c.039.038 41.736-30.967 5.712-76.911Zm-8.705 76.25s-1.865-1.596-2.37-2.412v-.078l2.254-50.03c0-.155.233-.155.233 0l2.254 50.03v.078c-.506.816-2.37 2.412-2.37 2.412Z"/>
</svg>
