<svg xmlns="http://www.w3.org/2000/svg" width="148" height="100" fill="none" viewBox="0 0 148 100">
  <path fill="#000" d="M100.644 10.136a6.4 6.4 0 0 0-1.679.216v.074h.074c.335.621.888 1.104 1.316 1.68.335.648.621 1.315.934 1.964l.096-.097c.575-.41.865-1.053.865-2.038-.239-.29-.29-.598-.501-.865-.24-.41-.769-.621-1.105-.934ZM35.392 91.083h-5.678a323.086 323.086 0 0 0-1.652-27.054h-.046l-8.65 27.054h-4.339L6.447 64.03h-.074a455.427 455.427 0 0 0-1.197 27.054H0A344.99 344.99 0 0 1 2.517 57.15H9.56l8.195 24.924h.046L26.07 57.15h6.708c1.486 12.368 2.374 23.677 2.637 33.933h-.023Zm24.634-25.04c-2.3 12.557-5.37 21.69-9.129 27.368-2.972 4.385-6.206 6.589-9.731 6.589-.934 0-2.084-.29-3.474-.865v-3.018c.695.096 1.486.165 2.374.165 1.652 0 2.973-.478 3.98-1.366 1.197-1.105 1.8-2.347 1.8-3.713 0-.957-.456-2.876-1.413-5.798l-6.207-19.361h5.586l4.458 14.475c1.008 3.308 1.44 5.586 1.247 6.902 2.466-6.52 4.169-13.661 5.13-21.377h5.379Zm75.628 25.04h-16.15V57.15h5.439v29.765h10.711v4.168Zm-20.369.82-6.23-3.07a11.945 11.945 0 0 0 1.56-1.532c2.659-3.092 3.98-7.716 3.98-13.803 0-11.24-4.408-16.845-13.228-16.845-4.316 0-7.693 1.413-10.113 4.265-2.637 3.115-3.98 7.716-3.98 13.78 0 5.968 1.173 10.33 3.524 13.132 2.158 2.494 5.392 3.764 9.731 3.764 1.606 0 3.092-.194 4.436-.598l8.125 4.743 2.227-3.832-.032-.005Zm-20.199-7.625c-1.39-2.204-2.061-5.751-2.061-10.642 0-8.554 2.59-12.819 7.79-12.819 2.71 0 4.72 1.03 5.99 3.069 1.367 2.227 2.062 5.728 2.062 10.569 0 8.604-2.614 12.943-7.79 12.943-2.733 0-4.72-1.031-6.014-3.07l.023-.05Zm-10.163-2.586c0 2.876-1.054 5.25-3.19 7.068-2.106 1.845-4.913 2.779-8.484 2.779-3.33 0-6.52-1.054-9.657-3.166l1.463-2.922c2.682 1.344 5.102 2.016 7.311 2.016 2.038 0 3.644-.456 4.794-1.344 1.15-.91 1.845-2.18 1.845-3.787 0-2.015-1.412-3.74-3.98-5.176a1066.7 1066.7 0 0 1-7.14-4.026c-2.59-1.89-3.86-3.906-3.86-7.237 0-2.756.956-4.96 2.875-6.64 1.942-1.725 4.408-2.563 7.477-2.563a15.505 15.505 0 0 1 8.604 2.517l-1.316 2.922a16.67 16.67 0 0 0-6.52-1.413c-1.748 0-3.092.433-4.026 1.27-.934.838-1.509 1.891-1.509 3.212 0 2.015 1.44 3.74 4.072 5.222 2.42 1.316 7.284 4.1 7.284 4.1 2.659 1.868 3.98 3.883 3.98 7.164l-.023.004Zm57.541-35.92c-3.285-.074-5.825.262-7.956 1.173-.598.239-1.582.239-1.679 1.007.336.336.382.865.672 1.316.501.815 1.343 1.919 2.135 2.494.865.672 1.725 1.344 2.613 1.919 1.606.984 3.405 1.56 4.983 2.54.888.575 1.799 1.316 2.683 1.918.455.313.74.865 1.316 1.054v-.12c-.29-.359-.359-.888-.649-1.316-.41-.41-.815-.768-1.224-1.173a19.394 19.394 0 0 0-4.265-4.146c-1.316-.888-4.192-2.135-4.721-3.644l-.074-.096c.888-.074 1.942-.41 2.802-.649 1.39-.359 2.683-.29 4.123-.649a33.165 33.165 0 0 0 1.965-.575v-.359c-.741-.74-1.293-1.748-2.062-2.443a53.542 53.542 0 0 0-6.759-5.034c-1.293-.837-2.921-1.366-4.288-2.06-.478-.24-1.316-.36-1.583-.77-.74-.91-1.173-2.084-1.702-3.165a109.237 109.237 0 0 1-3.354-7.14c-.741-1.607-1.174-3.19-2.085-4.675-4.219-6.976-8.82-11.19-15.864-15.336-1.509-.865-3.331-1.224-5.25-1.68-1.031-.045-2.038-.119-3.069-.165-.672-.29-1.316-1.054-1.891-1.44-2.347-1.486-8.388-4.675-10.09-.456-1.105 2.683 1.629 5.296 2.59 6.64.695.957 1.583 2.015 2.084 3.069.29.717.36 1.463.65 2.204.648 1.799 1.27 3.81 2.134 5.489.456.865.934 1.771 1.51 2.54.335.455.91.648 1.03 1.39-.575.836-.621 2.06-.934 3.068-1.486 4.647-.911 10.375 1.173 13.803.672 1.031 2.227 3.285 4.316 2.42 1.845-.74 1.44-3.068 1.965-5.13.119-.501.046-.814.29-1.15v.097c.598 1.15 1.173 2.254 1.702 3.404 1.247 2.016 3.474 4.1 5.319 5.49.985.74 1.748 2.015 2.972 2.466v-.12h-.096c-.263-.359-.599-.529-.934-.814a22.932 22.932 0 0 1-2.158-2.466c-1.703-2.301-3.235-4.84-4.578-7.454a49.72 49.72 0 0 1-1.772-3.953c-.239-.478-.239-1.223-.649-1.463-.621.888-1.532 1.652-1.964 2.78-.792 1.748-.865 3.929-1.174 6.183-.142.046-.073 0-.142.097-1.316-.336-1.772-1.68-2.255-2.83-1.247-2.922-1.44-7.596-.382-10.95.29-.865 1.51-3.57 1.031-4.385-.262-.792-1.077-1.247-1.51-1.868a15.428 15.428 0 0 1-1.485-2.614c-.985-2.3-1.464-4.84-2.54-7.14-.479-1.054-1.344-2.159-2.038-3.139-.792-1.104-1.652-1.89-2.255-3.188-.216-.456-.501-1.196-.166-1.68.074-.335.24-.455.576-.552.529-.455 2.06.12 2.59.382 1.51.598 2.779 1.173 4.049 2.038.575.41 1.196 1.174 1.942 1.39h.865c1.316.29 2.779.074 4.003.456 2.18.694 4.145 1.702 5.917 2.802a36.64 36.64 0 0 1 12.772 14.042c.502.934.718 1.8 1.173 2.78.838 2.037 1.919 4.071 2.78 6.013.86 1.941 1.679 3.906 2.921 5.512.621.865 3.069 1.316 4.192 1.748.814.382 2.084.718 2.802 1.15 1.412.866 2.802 1.846 4.123 2.803.671.455 2.71 1.486 2.829 2.3l.005.01Z"/>
</svg>
