<svg xmlns="http://www.w3.org/2000/svg" width="100" height="100" fill="none" viewBox="0 0 100 100">
  <path fill="#8993BE" d="M23.75 43.097a7.349 7.349 0 0 1 5.453 1.51 5.986 5.986 0 0 1 .647 5.187 8.687 8.687 0 0 1-2.869 5.462 10.546 10.546 0 0 1-6.469 1.653h-4.375l2.688-13.784 4.925-.028ZM6.25 70.865h7.188l1.703-8.75h6.147a22.028 22.028 0 0 0 6.7-.865 12.68 12.68 0 0 0 4.78-2.869 14.328 14.328 0 0 0 4.513-8.069 10.275 10.275 0 0 0-1.718-9.13 11.472 11.472 0 0 0-9.094-3.279h-13.79L6.25 70.865Zm36.303-41.73h7.135l-1.729 8.75h6.347a12.362 12.362 0 0 1 8.266 2.09 6.917 6.917 0 0 1 1.362 6.772l-2.98 15.34h-7.22l2.838-14.584a3.959 3.959 0 0 0-.356-3.394 5 5 0 0 0-3.575-.894h-5.697l-3.672 18.888h-7.15l6.431-32.969ZM79.81 43.096a7.349 7.349 0 0 1 5.454 1.51 5.987 5.987 0 0 1 .646 5.187 8.687 8.687 0 0 1-2.868 5.462 10.547 10.547 0 0 1-6.482 1.653h-4.371l2.68-13.8 4.941-.012Zm-17.5 27.768h7.188l1.703-8.75h6.15a22.028 22.028 0 0 0 6.713-.865 12.68 12.68 0 0 0 4.78-2.869 14.327 14.327 0 0 0 4.498-8.069 10.275 10.275 0 0 0-1.72-9.13 11.472 11.472 0 0 0-9.09-3.27H68.72l-6.41 32.953Z"/>
</svg>
