<svg xmlns="http://www.w3.org/2000/svg" width="177" height="177" fill="none" viewBox="0 0 177 177">
  <path fill="#0C0824" d="M17.518 19.453h141.965v138.094H17.518V19.453Z"/>
  <path fill="#31C5F0" d="M17.517 19.453h141.966v138.094H17.517V19.453Zm-6.454 144.549h154.875V12.998H11.063v151.004Zm104.413-89.054c-5.1 0-6.842 2.584-6.842 4.713 0 2.323 1.161 3.938 8.003 7.484 10.134 4.906 13.275 9.613 13.275 16.522 0 10.327-7.871 15.874-18.518 15.874-4.57.17-9.112-.78-13.23-2.765-.454-.194-.515-.515-.515-1.035v-9.497c0-.647.32-.84.774-.514a23.942 23.942 0 0 0 12.971 3.805c5.1 0 7.229-2.129 7.229-5.033 0-2.323-1.482-4.386-8.004-7.744-9.165-4.386-12.97-8.85-12.97-16.262 0-8.324 6.516-15.227 17.81-15.227a29.677 29.677 0 0 1 11.55 1.809 1.433 1.433 0 0 1 .647 1.288v8.85c0 .515-.321.841-.968.648a21.8 21.8 0 0 0-11.229-2.904l.017-.011Zm-55.5 7.678c1.482.127 2.643.127 5.226.127 7.55 0 14.647-2.644 14.647-12.904 0-8.198-5.1-12.324-13.679-12.324-2.583 0-5.033.127-6.195.194v24.907Zm-11.49-34.294c0-.453.903-.774 1.422-.774a385.906 385.906 0 0 1 16.65-.321c17.876 0 24.846 9.807 24.846 22.33 0 16.389-11.876 23.425-26.456 23.425-2.45 0-3.291-.128-5.033-.128v24.78c0 .515-.194.775-.775.775h-9.873c-.515 0-.775-.194-.775-.775V48.36l-.005-.028Z"/>
</svg>
