<svg xmlns="http://www.w3.org/2000/svg" width="101" height="100" fill="none" viewBox="0 0 101 100">
  <g clip-path="url(#a)">
    <path fill="url(#b)" d="M49.77.028c-25.424 0-23.836 11.026-23.836 11.026l.028 11.423h24.262v3.429H16.326S.056 24.061.056 49.714c0 25.654 14.2 24.744 14.2 24.744h8.475V62.553s-.457-14.2 13.974-14.2h24.063s13.52.219 13.52-13.066V13.322S76.34.028 49.77.028ZM36.394 7.71a4.36 4.36 0 0 1 4.364 4.365 4.36 4.36 0 0 1-4.364 4.364 4.36 4.36 0 0 1-4.365-4.364 4.36 4.36 0 0 1 4.365-4.365Z"/>
    <path fill="url(#c)" d="M50.493 99.657c25.424 0 23.837-11.025 23.837-11.025l-.028-11.423H50.039V73.78h33.899s16.269 1.845 16.269-23.809c0-25.653-14.2-24.743-14.2-24.743h-8.475v11.904s.457 14.2-13.973 14.2H39.495s-13.52-.219-13.52 13.066v21.966s-2.052 13.293 24.518 13.293Zm13.378-7.68a4.36 4.36 0 0 1-4.365-4.365 4.362 4.362 0 0 1 6.036-4.034 4.36 4.36 0 0 1 2.694 4.033 4.36 4.36 0 0 1-4.365 4.365Z"/>
  </g>
  <defs>
    <linearGradient id="b" x1="9.681" x2="59.312" y1="8.989" y2="58.125" gradientUnits="userSpaceOnUse">
      <stop stop-color="#387EB8"/>
      <stop offset="1" stop-color="#366994"/>
    </linearGradient>
    <linearGradient id="c" x1="40.145" x2="93.443" y1="40.541" y2="90.926" gradientUnits="userSpaceOnUse">
      <stop stop-color="#FFE052"/>
      <stop offset="1" stop-color="#FFC331"/>
    </linearGradient>
    <clipPath id="a">
      <path fill="#fff" d="M0 0h100.392v100H0z"/>
    </clipPath>
  </defs>
</svg>
